<svg width="24" height="24" viewBox="0 0 24 24" fill="none" xmlns="http://www.w3.org/2000/svg">
<path d="M4.40434 13.6099C3.51517 13.1448 3 12.5924 3 12C3 10.3431 7.02944 9 12 9C16.9706 9 21 10.3431 21 12C21 12.7144 20.2508 13.3705 19 13.8858" stroke="#E8E8E8" stroke-width="2" stroke-linecap="round" stroke-linejoin="round"/>
<path d="M12 11.01L12.01 10.9989" stroke="#E8E8E8" stroke-width="2" stroke-linecap="round" stroke-linejoin="round"/>
<path d="M16.8827 6.00004C16.878 4.97706 16.6199 4.25313 16.0856 3.98088C14.6093 3.22868 11.5832 6.20916 9.32659 10.6379C7.07 15.0667 6.43742 19.2668 7.91369 20.019C8.44112 20.2877 9.16637 20.08 9.98367 19.5" stroke="#E8E8E8" stroke-width="2" stroke-linecap="round" stroke-linejoin="round"/>
<path d="M9.60093 4.25166C8.94057 3.86581 8.3572 3.75491 7.9137 3.98088C6.43743 4.73308 7.07 8.93311 9.32659 13.3619C11.5832 17.7907 14.6092 20.7712 16.0855 20.019C17.3977 19.3504 17.0438 15.9577 15.3641 12.1016" stroke="#E8E8E8" stroke-width="2" stroke-linecap="round" stroke-linejoin="round"/>
</svg>
