<svg width="24" height="24" viewBox="0 0 24 24" fill="none" xmlns="http://www.w3.org/2000/svg">
<path d="M19.2616 17.0378L20.9383 4.46293C20.9746 4.19069 20.8214 3.92855 20.5664 3.82655L16 2H10.5L9.81819 3.5L5.00001 2L3.20967 3.79034C3.07752 3.92249 3.0145 4.10866 3.0392 4.2939L4.73839 17.0378C4.90326 18.2744 5.63561 19.3632 6.71874 19.9821L7.03862 20.1649C10.1129 21.9217 13.8871 21.9217 16.9614 20.1649L17.2813 19.9821C18.3644 19.3632 19.0968 18.2744 19.2616 17.0378Z" stroke="#E8E8E8" stroke-width="2"/>
<path d="M16 2L14 7" stroke="#E8E8E8" stroke-width="2"/>
<path d="M9 6.5L9.81818 3.5" stroke="#E8E8E8" stroke-width="2"/>
<path d="M3 5C5.57143 7.66666 18.4286 7.66662 21 5" stroke="#E8E8E8" stroke-width="2"/>
</svg>
