<svg width="24" height="24" viewBox="0 0 24 24" fill="none" xmlns="http://www.w3.org/2000/svg">
<path d="M7 17H17" stroke="#E8E8E8" stroke-width="2" stroke-linecap="round"/>
<path d="M9 12H15" stroke="#E8E8E8" stroke-width="2" stroke-linecap="round"/>
<path d="M12 3V2" stroke="#E8E8E8" stroke-width="2" stroke-linecap="round"/>
<path d="M11.5544 3.58147C10.633 4.83323 8.63764 7.82523 9.05721 9.74996C9.45139 11.5583 11.019 12 12 12C12.981 12 14.5486 11.5583 14.9428 9.74996C15.3624 7.82523 13.367 4.83323 12.4456 3.58147C12.2207 3.2759 11.7793 3.2759 11.5544 3.58147Z" stroke="#E8E8E8" stroke-width="2" stroke-linecap="round"/>
<path d="M17.8 22H6.19998C5.70555 22 5.41557 21.434 5.70048 21.0299C7.01605 19.1641 9.76291 15.044 10.1929 12.5964C10.2502 12.27 10.5186 12 10.85 12H13.15C13.4814 12 13.7498 12.27 13.8071 12.5963C14.237 15.044 16.9839 19.1641 18.2995 21.0299C18.5844 21.434 18.2944 22 17.8 22Z" stroke="#E8E8E8" stroke-width="2" stroke-linecap="round"/>
</svg>
