<svg width="24" height="24" viewBox="0 0 24 24" fill="none" xmlns="http://www.w3.org/2000/svg">
<path d="M2.69543 7.18542L11.6954 11.1855L12.3046 9.8147L3.30463 5.8147L2.69543 7.18542ZM12.75 21.5001V10.5001H11.25V21.5001H12.75ZM12.3046 11.1855L21.3046 7.18542L20.6954 5.8147L11.6954 9.8147L12.3046 11.1855Z" fill="#E8E8E8"/>
<path d="M3 17.1102V6.88997C3 6.65286 3.13964 6.43799 3.35632 6.34169L11.7563 2.60835C11.9115 2.5394 12.0885 2.5394 12.2437 2.60835L20.6437 6.34169C20.8604 6.43799 21 6.65286 21 6.88997V17.1102C21 17.3473 20.8604 17.5622 20.6437 17.6585L12.2437 21.3918C12.0885 21.4607 11.9115 21.4607 11.7563 21.3918L3.35632 17.6585C3.13964 17.5622 3 17.3473 3 17.1102Z" stroke="#E8E8E8" stroke-width="2" stroke-linecap="round" stroke-linejoin="round"/>
<path d="M7.5 4.5L16.1437 8.34164C16.3604 8.43794 16.5 8.65281 16.5 8.88992V12.5" stroke="#E8E8E8" stroke-width="2" stroke-linecap="round" stroke-linejoin="round"/>
</svg>
