<svg width="24" height="24" viewBox="0 0 24 24" fill="none" xmlns="http://www.w3.org/2000/svg">
<path d="M4 19V5C4 3.89543 4.89543 3 6 3H19.4C19.7314 3 20 3.26863 20 3.6V16.7143" stroke="#E8E8E8" stroke-width="2" stroke-linecap="round"/>
<path d="M10 14C10 14 10.9 10.8824 13 9" stroke="#E8E8E8" stroke-width="2" stroke-linecap="round" stroke-linejoin="round"/>
<path d="M12.8023 12.4245L12.6678 12.4372C10.9759 12.5961 9.46906 11.3541 9.3022 9.66297C9.13533 7.97186 10.3716 6.47207 12.0635 6.3131L15.0491 6.03256C15.2407 6.01456 15.4112 6.15517 15.4301 6.34662L15.6848 8.92755C15.859 10.6929 14.5684 12.2586 12.8023 12.4245Z" stroke="#E8E8E8" stroke-width="2" stroke-linecap="round" stroke-linejoin="round"/>
<path d="M6 17H20" stroke="#E8E8E8" stroke-width="2" stroke-linecap="round"/>
<path d="M6 21H20" stroke="#E8E8E8" stroke-width="2" stroke-linecap="round"/>
<path d="M6 21C4.89543 21 4 20.1046 4 19C4 17.8954 4.89543 17 6 17" stroke="#E8E8E8" stroke-width="2" stroke-linecap="round" stroke-linejoin="round"/>
</svg>
