<svg width="24" height="24" viewBox="0 0 24 24" fill="none" xmlns="http://www.w3.org/2000/svg">
<path d="M2.57325 8.46332L11.2316 4.13414C11.4005 4.04969 11.5993 4.04969 11.7682 4.13414L20.4266 8.46332C20.8688 8.68444 20.8688 9.31552 20.4266 9.53664L11.7682 13.8658C11.5993 13.9503 11.4005 13.9503 11.2316 13.8658L2.57325 9.53664C2.13102 9.31552 2.13102 8.68444 2.57325 8.46332Z" stroke="#E8E8E8" stroke-width="2" stroke-linecap="round" stroke-linejoin="round"/>
<path d="M22.5 13V9.5L20.5 8.5" stroke="#E8E8E8" stroke-width="2" stroke-linecap="round" stroke-linejoin="round"/>
<path d="M4.5 10.5V15.9121C4.5 16.6843 4.94459 17.3876 5.6422 17.7188L10.6422 20.0928C11.185 20.3505 11.815 20.3505 12.3578 20.0928L17.3578 17.7188C18.0554 17.3876 18.5 16.6843 18.5 15.9121V10.5" stroke="#E8E8E8" stroke-width="2" stroke-linecap="round" stroke-linejoin="round"/>
</svg>
