<svg width="24" height="24" viewBox="0 0 24 24" fill="none" xmlns="http://www.w3.org/2000/svg">
<g clip-path="url(#clip0_339_6018)">
<path d="M11.7397 1.62534C11.9042 1.54611 12.0958 1.54611 12.2603 1.62534L20.3398 5.51621C20.5043 5.59544 20.6238 5.74527 20.6644 5.92328L22.6599 14.666C22.7005 14.844 22.6579 15.0309 22.5441 15.1736L16.9529 22.1848C16.839 22.3275 16.6664 22.4107 16.4838 22.4107H7.51625C7.33366 22.4107 7.161 22.3275 7.04715 22.1848L1.45598 15.1736C1.34213 15.0309 1.29949 14.844 1.34012 14.666L3.33559 5.92328C3.37622 5.74527 3.4957 5.59544 3.66021 5.51621L11.7397 1.62534Z" stroke="#E8E8E8" stroke-width="2" stroke-linecap="round" stroke-linejoin="round"/>
</g>
<defs>
<clipPath id="clip0_339_6018">
<rect width="24" height="24" fill="white"/>
</clipPath>
</defs>
</svg>
