<svg width="24" height="24" viewBox="0 0 24 24" fill="none" xmlns="http://www.w3.org/2000/svg">
<path d="M9 12H12M12 12H15M12 12V9M12 12V15" stroke="#E8E8E8" stroke-width="2" stroke-linecap="round" stroke-linejoin="round"/>
<path d="M11.7 1.17321C11.8856 1.06604 12.1144 1.06604 12.3 1.17322L21.2263 6.32681C21.4119 6.43398 21.5263 6.63206 21.5263 6.84642V17.1536C21.5263 17.3679 21.4119 17.566 21.2263 17.6732L12.3 22.8268C12.1144 22.934 11.8856 22.934 11.7 22.8268L2.77375 17.6732C2.58811 17.566 2.47375 17.3679 2.47375 17.1536V6.84642C2.47375 6.63206 2.58811 6.43398 2.77375 6.3268L11.7 1.17321Z" stroke="#E8E8E8" stroke-width="2" stroke-linecap="round" stroke-linejoin="round"/>
</svg>
