<svg width="24" height="24" viewBox="0 0 24 24" fill="none" xmlns="http://www.w3.org/2000/svg">
<path d="M21.0404 12.2828L21.639 16.4731C21.8226 17.7584 20.752 18.8752 19.4601 18.746L12.199 18.0199C12.0667 18.0067 11.9333 18.0067 11.801 18.0199L4.53994 18.746C3.24806 18.8752 2.17743 17.7584 2.36104 16.4731L2.95964 12.2828C2.98644 12.0952 2.98644 11.9048 2.95964 11.7172L2.36104 7.5269C2.17743 6.24162 3.24806 5.12479 4.53995 5.25398L11.801 5.98009C11.9333 5.99332 12.0667 5.99332 12.199 5.98009L19.4601 5.25398C20.752 5.12479 21.8226 6.24162 21.639 7.52689L21.0404 11.7172C21.0136 11.9048 21.0136 12.0952 21.0404 12.2828Z" stroke="#E8E8E8" stroke-width="2" stroke-linecap="round" stroke-linejoin="round"/>
<path d="M21 6L17 9" stroke="#E8E8E8" stroke-width="2" stroke-linecap="round" stroke-linejoin="round"/>
<path d="M7 15L3 18" stroke="#E8E8E8" stroke-width="2" stroke-linecap="round" stroke-linejoin="round"/>
</svg>
