<svg width="24" height="24" viewBox="0 0 24 24" fill="none" xmlns="http://www.w3.org/2000/svg">
<path d="M14 9.01001L14.01 8.9989" stroke="#E8E8E8" stroke-width="2" stroke-linecap="round" stroke-linejoin="round"/>
<path d="M8 8.01001L8.01 7.9989" stroke="#E8E8E8" stroke-width="2" stroke-linecap="round" stroke-linejoin="round"/>
<path d="M8 14.01L8.01 13.9989" stroke="#E8E8E8" stroke-width="2" stroke-linecap="round" stroke-linejoin="round"/>
<path d="M5.99996 19L2.23622 3.0041C2.13083 2.55618 2.54811 2.16122 2.98957 2.29106L19 7" stroke="#E8E8E8" stroke-width="2"/>
<path d="M22.198 8.42466C22.4324 7.48702 21.8623 6.53689 20.9247 6.30248C19.987 6.06807 19.0369 6.63815 18.8025 7.57579C18.4106 9.14317 16.9015 11.6241 14.5753 13.9503C12.2743 16.2513 9.42718 18.1442 6.60676 18.7951C5.66501 19.0124 5.07775 19.952 5.29508 20.8937C5.5124 21.8355 6.45202 22.4227 7.39377 22.2054C11.0734 21.3563 14.4762 18.9991 17.0502 16.4252C19.5989 13.8764 21.5898 10.8573 22.198 8.42466Z" stroke="#E8E8E8" stroke-width="2" stroke-linecap="round"/>
</svg>
