<svg width="24" height="24" viewBox="0 0 24 24" fill="none" xmlns="http://www.w3.org/2000/svg">
<path d="M17 20.6615C15.5291 21.5123 13.8214 21.9993 12 21.9993C10.1785 21.9993 8.47087 21.5123 7 20.6615L10 16C10 16 11 16.4 12 16.4C13 16.4 14 16 14 16L17 20.6615Z" stroke="#E8E8E8" stroke-width="2" stroke-linecap="round" stroke-linejoin="round"/>
<path d="M16.9976 3.33887C18.4699 4.18725 19.7455 5.42267 20.6562 7.00008C21.5669 8.57749 21.999 10.2999 21.9976 11.9991L16.4607 11.7318C16.4607 11.7318 16.3071 10.6657 15.8071 9.79972C15.3071 8.93369 14.4607 8.26767 14.4607 8.26767L16.9976 3.33887Z" stroke="#E8E8E8" stroke-width="2" stroke-linecap="round" stroke-linejoin="round"/>
<path d="M1.99829 11.9994C1.99686 10.3002 2.42898 8.5778 3.3397 7.00039C4.25042 5.42298 5.526 4.18756 6.99829 3.33917L9.53522 8.26797C9.53522 8.26797 8.68881 8.934 8.18881 9.80002C7.68881 10.6661 7.53522 11.7321 7.53522 11.7321L1.99829 11.9994Z" stroke="#E8E8E8" stroke-width="2" stroke-linecap="round" stroke-linejoin="round"/>
<path d="M12 13C11.4477 13 11 12.5523 11 12C11 11.4477 11.4477 11 12 11C12.5523 11 13 11.4477 13 12C13 12.5523 12.5523 13 12 13Z" stroke="#E8E8E8" stroke-width="2" stroke-linecap="round" stroke-linejoin="round"/>
</svg>
