<svg width="24" height="24" viewBox="0 0 24 24" fill="none" xmlns="http://www.w3.org/2000/svg">
<path d="M16.0613 10.4037L13.9999 17H9.99994L7.93859 10.4037C7.35079 8.52271 7.72411 6.47305 8.93732 4.92013L11.5271 1.60518C11.7673 1.2977 12.2325 1.2977 12.4727 1.60518L15.0625 4.92013C16.2757 6.47305 16.649 8.52271 16.0613 10.4037Z" stroke="#E8E8E8" stroke-width="2" stroke-linecap="round" stroke-linejoin="round"/>
<path d="M10 20C10 22 12 23 12 23C12 23 14 22 14 20" stroke="#E8E8E8" stroke-width="2" stroke-linecap="round" stroke-linejoin="round"/>
<path d="M8.50004 12.5C5.00004 15 7.00004 19 7.00004 19L10 17" stroke="#E8E8E8" stroke-width="2" stroke-linecap="round" stroke-linejoin="round"/>
<path d="M15.9312 12.5C19.4312 15 17.4312 19 17.4312 19L14.4312 17" stroke="#E8E8E8" stroke-width="2" stroke-linecap="round" stroke-linejoin="round"/>
<path d="M12 11C10.8954 11 10 10.1046 10 9C10 7.89543 10.8954 7 12 7C13.1046 7 14 7.89543 14 9C14 10.1046 13.1046 11 12 11Z" stroke="#E8E8E8" stroke-width="2" stroke-linecap="round" stroke-linejoin="round"/>
</svg>
