<svg width="24" height="24" viewBox="0 0 24 24" fill="none" xmlns="http://www.w3.org/2000/svg">
<path d="M7 16H17" stroke="#E8E8E8" stroke-width="2" stroke-linecap="round"/>
<path d="M9 11H15" stroke="#E8E8E8" stroke-width="2" stroke-linecap="round"/>
<path d="M10 4V6" stroke="#E8E8E8" stroke-width="2" stroke-linecap="round"/>
<path d="M14 4V6" stroke="#E8E8E8" stroke-width="2" stroke-linecap="round"/>
<path d="M17.4 9H6.6C6.26863 9 6 8.73137 6 8.4V4.6C6 4.26863 6.26863 4 6.6 4H17.4C17.7314 4 18 4.26863 18 4.6V8.4C18 8.73137 17.7314 9 17.4 9Z" stroke="#E8E8E8" stroke-width="2" stroke-linecap="round"/>
<path d="M17.901 21H6.09902C5.62432 21 5.33182 20.4737 5.57765 20.0676C6.79232 18.061 9.50002 13.3271 9.50002 11V9.59965C9.50002 9.26828 9.76865 9 10.1 9H13.9C14.2314 9 14.5 9.26828 14.5 9.59965V11C14.5 13.3271 17.2077 18.061 18.4224 20.0676C18.6682 20.4737 18.3757 21 17.901 21Z" stroke="#E8E8E8" stroke-width="2" stroke-linecap="round"/>
</svg>
