<svg width="24" height="24" viewBox="0 0 24 24" fill="none" xmlns="http://www.w3.org/2000/svg">
<path d="M3.57143 7.99998C3.39038 6.73261 3.23403 5.63821 3.13088 4.91612C3.05698 4.39883 3.39389 3.91245 3.90398 3.7991L11.5661 2.09639C11.8519 2.03289 12.1481 2.03289 12.4339 2.09639L20.096 3.7991C20.6061 3.91245 20.943 4.39883 20.8691 4.91612C20.766 5.63821 20.6096 6.73261 20.4286 7.99998M3.57143 7.99998H20.4286M3.57143 7.99998C3.87997 10.1598 4.26028 12.822 4.57143 15M20.4286 7.99998C20.12 10.1598 19.7397 12.822 19.4286 15M4.57143 15C4.74331 16.2032 4.89409 17.2586 5 18C5.07071 18.495 5.5 21.5 12 21.5C18.5 21.5 18.9293 18.495 19 18C19.1059 17.2586 19.2567 16.2032 19.4286 15M4.57143 15H19.4286" stroke="#E8E8E8" stroke-width="2" stroke-linecap="round" stroke-linejoin="round"/>
</svg>
