<svg width="24" height="24" viewBox="0 0 24 24" fill="none" xmlns="http://www.w3.org/2000/svg">
<path d="M3 10V19C3 20.1046 3.89543 21 5 21H19C20.1046 21 21 20.1046 21 19V10" stroke="#E8E8E8" stroke-width="2"/>
<path d="M14.8332 21V15C14.8332 13.8954 13.9378 13 12.8332 13H10.8332C9.72868 13 8.83325 13.8954 8.83325 15V21" stroke="#E8E8E8" stroke-width="2" stroke-miterlimit="16"/>
<path d="M21.8183 9.36418L20.1243 3.43517C20.0507 3.17759 19.8153 3 19.5474 3H15.5L15.9753 8.70377C15.9909 8.89043 16.0923 9.05904 16.2532 9.15495C16.6425 9.38698 17.4052 9.81699 18 10C19.0158 10.3125 20.5008 10.1998 21.3465 10.0958C21.6982 10.0526 21.9157 9.7049 21.8183 9.36418Z" stroke="#E8E8E8" stroke-width="2"/>
<path d="M14.0001 10C14.5676 9.82538 15.288 9.42589 15.691 9.18807C15.8829 9.07486 15.9885 8.86103 15.97 8.63904L15.5001 3H8.50008L8.03016 8.63904C8.01166 8.86103 8.11731 9.07486 8.30914 9.18807C8.71215 9.42589 9.43258 9.82538 10.0001 10C11.4931 10.4594 12.5071 10.4594 14.0001 10Z" stroke="#E8E8E8" stroke-width="2"/>
<path d="M3.87575 3.43517L2.18174 9.36418C2.08439 9.7049 2.30188 10.0526 2.65358 10.0958C3.49924 10.1998 4.98432 10.3125 6.00008 10C6.59485 9.81699 7.35759 9.38698 7.74686 9.15495C7.90775 9.05904 8.00921 8.89043 8.02477 8.70377L8.50008 3H4.45266C4.18477 3 3.94934 3.17759 3.87575 3.43517Z" stroke="#E8E8E8" stroke-width="2"/>
</svg>
