<svg width="24" height="24" viewBox="0 0 24 24" fill="none" xmlns="http://www.w3.org/2000/svg">
<path d="M6.87175 3.42759L4.23175 12.2276C4.11626 12.6126 4.40453 13 4.80645 13H19.1936C19.5955 13 19.8838 12.6126 19.7683 12.2276L17.1283 3.42759C17.0521 3.1738 16.8185 3 16.5536 3H7.44645C7.18148 3 6.94789 3.1738 6.87175 3.42759Z" stroke="#E8E8E8" stroke-width="2" stroke-linecap="round" stroke-linejoin="round"/>
<path d="M12 17V15" stroke="#E8E8E8" stroke-width="2" stroke-linecap="round" stroke-linejoin="round"/>
<path d="M8.60005 21H15.4C15.7314 21 15.9949 20.7315 15.9423 20.4043C15.763 19.2896 15.0263 17 12 17C8.97374 17 8.23707 19.2896 8.05775 20.4043C8.00511 20.7315 8.26868 21 8.60005 21Z" stroke="#E8E8E8" stroke-width="2" stroke-linecap="round" stroke-linejoin="round"/>
</svg>
