<svg width="24" height="24" viewBox="0 0 24 24" fill="none" xmlns="http://www.w3.org/2000/svg">
<path d="M2 12H6" stroke="#E8E8E8" stroke-width="2" stroke-linecap="round" stroke-linejoin="round"/>
<path d="M17 12H22" stroke="#E8E8E8" stroke-width="2" stroke-linecap="round" stroke-linejoin="round"/>
<path d="M3 20.01L3.01 19.9989" stroke="#E8E8E8" stroke-width="2" stroke-linecap="round" stroke-linejoin="round"/>
<path d="M6 16.01L6.01 15.9989" stroke="#E8E8E8" stroke-width="2" stroke-linecap="round" stroke-linejoin="round"/>
<path d="M9 20.01L9.01 19.9989" stroke="#E8E8E8" stroke-width="2" stroke-linecap="round" stroke-linejoin="round"/>
<path d="M12 16.01L12.01 15.9989" stroke="#E8E8E8" stroke-width="2" stroke-linecap="round" stroke-linejoin="round"/>
<path d="M15 20.01L15.01 19.9989" stroke="#E8E8E8" stroke-width="2" stroke-linecap="round" stroke-linejoin="round"/>
<path d="M18 16.01L18.01 15.9989" stroke="#E8E8E8" stroke-width="2" stroke-linecap="round" stroke-linejoin="round"/>
<path d="M21 20.01L21.01 19.9989" stroke="#E8E8E8" stroke-width="2" stroke-linecap="round" stroke-linejoin="round"/>
<path d="M9 13C9 13 9.9 9.25882 12 7" stroke="#E8E8E8" stroke-width="2" stroke-linecap="round" stroke-linejoin="round"/>
<path d="M16.1857 2.24131L16.5601 6.13057C16.8031 8.65362 14.9114 10.9001 12.3883 11.143C9.91261 11.3814 7.66995 9.57183 7.43157 7.09618C7.19319 4.62053 9.00686 2.42038 11.4826 2.18201L15.6293 1.78272C15.9096 1.75573 16.1587 1.96105 16.1857 2.24131Z" stroke="#E8E8E8" stroke-width="2" stroke-linecap="round" stroke-linejoin="round"/>
</svg>
