<svg width="24" height="24" viewBox="0 0 24 24" fill="none" xmlns="http://www.w3.org/2000/svg">
<path d="M11.4563 2.66512C11.6717 2.20343 12.3283 2.20343 12.5437 2.66512L15.4077 8.80232C15.4673 8.93003 15.57 9.03269 15.6977 9.0923L21.8349 11.9563C22.2966 12.1717 22.2966 12.8283 21.8349 13.0437L15.6977 15.9077C15.57 15.9673 15.4673 16.07 15.4077 16.1977L12.5437 22.3349C12.3283 22.7966 11.6717 22.7966 11.4563 22.3349L8.5923 16.1977C8.53269 16.07 8.43003 15.9673 8.30232 15.9077L2.16512 13.0437C1.70343 12.8283 1.70343 12.1717 2.16512 11.9563L8.30232 9.0923C8.43003 9.03269 8.53269 8.93003 8.5923 8.80232L11.4563 2.66512Z" stroke="#E8E8E8" stroke-width="2" stroke-linecap="round" stroke-linejoin="round"/>
</svg>
