<svg width="24" height="24" viewBox="0 0 24 24" fill="none" xmlns="http://www.w3.org/2000/svg">
<path d="M10.0503 10.6066L2.97922 17.6777C2.19817 18.4587 2.19817 19.7251 2.97922 20.5061C3.76026 21.2872 5.02659 21.2872 5.80764 20.5061L12.8787 13.4351" stroke="#E8E8E8" stroke-width="2" stroke-linecap="round" stroke-linejoin="round"/>
<path d="M17.1927 13.7994L21.071 17.6777C21.8521 18.4587 21.8521 19.7251 21.071 20.5061C20.29 21.2872 19.0236 21.2872 18.2426 20.5061L12.0341 14.2977" stroke="#E8E8E8" stroke-width="2" stroke-linecap="round" stroke-linejoin="round"/>
<path d="M6.73263 5.90383L4.61131 6.61094L2.48999 3.07541L3.9042 1.66119L7.43974 3.78251L6.73263 5.90383ZM6.73263 5.90383L9.56286 8.73406" stroke="#E8E8E8" stroke-width="2" stroke-linecap="round" stroke-linejoin="round"/>
<path d="M10.0503 10.6066C9.2065 8.45357 9.37147 5.62859 11.111 3.88908C12.8505 2.14956 16.0607 1.76776 17.8285 2.82842L14.7878 5.86909L14.5052 8.98013L17.6162 8.69752L20.6569 5.65684C21.7176 7.42461 21.3358 10.6349 19.5963 12.3744C17.8567 14.1139 15.0318 14.2789 12.8788 13.435" stroke="#E8E8E8" stroke-width="2" stroke-linecap="round" stroke-linejoin="round"/>
</svg>
