<svg width="895" height="456" viewBox="0 0 895 456" fill="none" xmlns="http://www.w3.org/2000/svg">
<path d="M32 3H863C868.65 3 872.707 3.00251 875.892 3.2627C878.844 3.50392 880.814 3.95313 882.404 4.69922L882.718 4.85254C885.717 6.3805 888.19 8.76212 889.83 11.6895L890.147 12.2822C890.986 13.9279 891.48 15.959 891.737 19.1084C891.997 22.2929 892 26.35 892 32V424C892 429.65 891.997 433.707 891.737 436.892C891.496 439.844 891.047 441.814 890.301 443.404L890.147 443.718C888.619 446.717 886.238 449.19 883.311 450.83L882.718 451.147C881.072 451.986 879.041 452.48 875.892 452.737C872.707 452.997 868.65 453 863 453H32C26.35 453 22.2929 452.997 19.1084 452.737C16.156 452.496 14.1863 452.047 12.5957 451.301L12.2822 451.147C9.28343 449.619 6.81031 447.238 5.16992 444.311L4.85254 443.718C4.01407 442.072 3.52001 440.041 3.2627 436.892C3.00251 433.707 3 429.65 3 424V32C3 26.35 3.00251 22.2929 3.2627 19.1084C3.52001 15.959 4.01407 13.9279 4.85254 12.2822C6.48239 9.08347 9.08347 6.48239 12.2822 4.85254C13.9279 4.01407 15.959 3.52001 19.1084 3.2627C22.2929 3.00251 26.35 3 32 3Z" stroke="url(#paint0_linear_535_217)" stroke-width="6"/>
<defs>
<linearGradient id="paint0_linear_535_217" x1="447.5" y1="0" x2="447.5" y2="456" gradientUnits="userSpaceOnUse">
<stop stop-color="#FF9F5A"/>
<stop offset="1" stop-color="#C44610"/>
</linearGradient>
</defs>
</svg>
