<svg width="911" height="472" viewBox="0 0 911 472" fill="none" xmlns="http://www.w3.org/2000/svg">
<rect x="4" y="4" width="903" height="464" rx="24" fill="#2D2D2D" stroke="url(#paint0_linear_535_1185)" stroke-width="8"/>
<rect x="8" y="69" width="895" height="395" rx="20" fill="#212121"/>
<rect x="703" y="17" width="138" height="44" rx="12" fill="#202020"/>
<rect x="746" y="21" width="91" height="36" rx="8" fill="#2D2D2D"/>
<path d="M746 29C746 24.5817 749.582 21 754 21L823 21L823 57L754 57C749.582 57 746 53.4183 746 49L746 29Z" fill="#E7E7E7"/>
<path d="M734.427 29.5734C736.926 32.0737 738.331 35.4645 738.331 39C738.331 42.5356 736.926 45.9263 734.427 48.4267M729.72 34.28C730.97 35.5302 731.672 37.2256 731.672 38.9934C731.672 40.7611 730.97 42.4565 729.72 43.7067M723.667 29.6667L717 35H711.667V43H717L723.667 48.3334V29.6667Z" stroke="#E7E7E7" stroke-width="3" stroke-linecap="round" stroke-linejoin="round"/>
<rect x="590" y="17" width="103" height="44" rx="12" fill="#202020"/>
<path d="M622 21L681 21C685.418 21 689 24.5817 689 29L689 37L622 37L622 21Z" fill="#2D2D2D"/>
<path d="M622 41L689 41L689 49C689 53.4183 685.418 57 681 57L622 57L622 41Z" fill="#2D2D2D"/>
<path d="M622 21L672 21L672 37L622 37L622 21Z" fill="#E7E7E7"/>
<path d="M622 41L672 41L672 57L622 57L622 41Z" fill="#E7E7E7"/>
<mask id="path-12-inside-1_535_1185" fill="white">
<path d="M590 29C590 22.3726 595.373 17 602 17L620 17L620 37L590 37L590 29Z"/>
</mask>
<path d="M590 29C590 22.3726 595.373 17 602 17L620 17L620 37L590 37L590 29Z" fill="#2D2D2D"/>
<path d="M586 29C586 20.1634 593.163 13 602 13L622 13L618 21L602 21C597.582 21 594 24.5817 594 29L586 29ZM620 37L590 37L620 37ZM586 37L586 29C586 20.1634 593.163 13 602 13L602 21C597.582 21 594 24.5817 594 29L594 37L586 37ZM622 13L622 37L618 37L618 21L622 13Z" fill="#202020" mask="url(#path-12-inside-1_535_1185)"/>
<path d="M600 32L600 34" stroke="#E7E7E7" stroke-width="2" stroke-linecap="round"/>
<path d="M604 30L604 34" stroke="#E7E7E7" stroke-width="2" stroke-linecap="round"/>
<path d="M608 28L608 34" stroke="#E7E7E7" stroke-width="2" stroke-linecap="round"/>
<path d="M612 26L612 34" stroke="#E7E7E7" stroke-width="2" stroke-linecap="round"/>
<mask id="path-18-inside-2_535_1185" fill="white">
<path d="M590 49C590 55.6274 595.373 61 602 61L620 61L620 41L590 41L590 49Z"/>
</mask>
<path d="M590 49C590 55.6274 595.373 61 602 61L620 61L620 41L590 41L590 49Z" fill="#2D2D2D"/>
<path d="M586 49C586 57.8366 593.163 65 602 65L622 65L618 57L602 57C597.582 57 594 53.4183 594 49L586 49ZM620 41L590 41L620 41ZM586 41L586 49C586 57.8366 593.163 65 602 65L602 57C597.582 57 594 53.4183 594 49L594 41L586 41ZM622 65L622 41L618 41L618 57L622 65Z" fill="#202020" mask="url(#path-18-inside-2_535_1185)"/>
<path d="M612 51L612 53" stroke="#E7E7E7" stroke-width="2" stroke-linecap="round"/>
<path d="M608 49L608 53" stroke="#E7E7E7" stroke-width="2" stroke-linecap="round"/>
<path d="M604 47L604 53" stroke="#E7E7E7" stroke-width="2" stroke-linecap="round"/>
<path d="M600 45L600 53" stroke="#E7E7E7" stroke-width="2" stroke-linecap="round"/>
<rect x="19" y="19" width="38" height="38" rx="9" fill="url(#paint1_linear_535_1185)" stroke="#202020" stroke-width="6"/>
<path d="M349.155 48C348.941 48 348.749 47.9253 348.579 47.776C348.429 47.6053 348.355 47.4133 348.355 47.2V31.68C348.355 31.4453 348.429 31.2533 348.579 31.104C348.749 30.9547 348.941 30.88 349.155 30.88C349.389 30.88 349.581 30.9547 349.731 31.104C349.88 31.2533 349.955 31.4453 349.955 31.68V46.4H357.827C358.061 46.4 358.253 46.4747 358.403 46.624C358.552 46.7733 358.627 46.9653 358.627 47.2C358.627 47.4133 358.552 47.6053 358.403 47.776C358.253 47.9253 358.061 48 357.827 48H349.155ZM372.134 48C371.921 48 371.729 47.9253 371.558 47.776C371.409 47.6053 371.334 47.4133 371.334 47.2V45.76C370.63 46.4213 369.862 46.9653 369.03 47.392C368.198 47.7973 367.366 48 366.534 48C365.745 48 365.009 47.84 364.326 47.52C363.665 47.2 363.131 46.656 362.726 45.888C362.342 45.0987 362.15 44.0213 362.15 42.656V36.256C362.15 36.0213 362.225 35.8293 362.374 35.68C362.545 35.5307 362.737 35.456 362.95 35.456C363.185 35.456 363.377 35.5307 363.526 35.68C363.675 35.8293 363.75 36.0213 363.75 36.256V42.656C363.75 43.9573 363.995 44.9067 364.486 45.504C364.998 46.1013 365.681 46.4 366.534 46.4C367.409 46.4 368.273 46.1227 369.126 45.568C370.001 45.0133 370.737 44.3307 371.334 43.52V36.256C371.334 36.0213 371.409 35.8293 371.558 35.68C371.729 35.5307 371.921 35.456 372.134 35.456C372.369 35.456 372.561 35.5307 372.71 35.68C372.859 35.8293 372.934 36.0213 372.934 36.256V47.2C372.934 47.4133 372.859 47.6053 372.71 47.776C372.561 47.9253 372.369 48 372.134 48ZM396.52 48C396.307 48 396.115 47.9253 395.944 47.776C395.795 47.6053 395.72 47.4133 395.72 47.2V40.48C395.72 39.2213 395.464 38.336 394.952 37.824C394.462 37.312 393.822 37.056 393.032 37.056C392.243 37.056 391.475 37.28 390.728 37.728C389.982 38.176 389.299 38.7413 388.68 39.424V47.2C388.68 47.4133 388.606 47.6053 388.456 47.776C388.307 47.9253 388.115 48 387.88 48C387.667 48 387.475 47.9253 387.304 47.776C387.155 47.6053 387.08 47.4133 387.08 47.2V40.48C387.08 39.2213 386.824 38.336 386.312 37.824C385.822 37.312 385.182 37.056 384.392 37.056C383.603 37.056 382.824 37.3013 382.056 37.792C381.288 38.2613 380.595 38.8373 379.976 39.52V47.2C379.976 47.4133 379.902 47.6053 379.752 47.776C379.603 47.9253 379.411 48 379.176 48C378.963 48 378.771 47.9253 378.6 47.776C378.451 47.6053 378.376 47.4133 378.376 47.2V36.256C378.376 36.0213 378.451 35.8293 378.6 35.68C378.771 35.5307 378.963 35.456 379.176 35.456C379.411 35.456 379.603 35.5307 379.752 35.68C379.902 35.8293 379.976 36.0213 379.976 36.256V37.344C380.659 36.7893 381.374 36.3413 382.12 36C382.867 35.6373 383.624 35.456 384.392 35.456C385.224 35.456 385.982 35.6053 386.664 35.904C387.347 36.2027 387.87 36.7893 388.232 37.664C388.958 37.0027 389.726 36.4693 390.536 36.064C391.368 35.6587 392.2 35.456 393.032 35.456C393.822 35.456 394.536 35.5947 395.176 35.872C395.816 36.1493 396.328 36.6507 396.712 37.376C397.118 38.08 397.32 39.1147 397.32 40.48V47.2C397.32 47.4133 397.246 47.6053 397.096 47.776C396.947 47.9253 396.755 48 396.52 48ZM403.399 28.896C403.761 28.896 404.071 29.0453 404.327 29.344C404.583 29.6213 404.711 30.0053 404.711 30.496C404.711 30.9867 404.583 31.36 404.327 31.616C404.071 31.872 403.772 32 403.431 32C403.047 32 402.716 31.872 402.439 31.616C402.183 31.3387 402.055 30.9653 402.055 30.496C402.055 30.0053 402.183 29.6213 402.439 29.344C402.695 29.0453 403.015 28.896 403.399 28.896ZM402.631 36.256C402.631 36.0213 402.705 35.8293 402.855 35.68C403.025 35.5307 403.217 35.456 403.431 35.456C403.665 35.456 403.857 35.5307 404.007 35.68C404.156 35.8293 404.231 36.0213 404.231 36.256V47.2C404.231 47.4133 404.156 47.6053 404.007 47.776C403.857 47.9253 403.665 48 403.431 48C403.217 48 403.025 47.9253 402.855 47.776C402.705 47.6053 402.631 47.4133 402.631 47.2V36.256ZM419.86 48C419.647 48 419.455 47.9253 419.284 47.776C419.135 47.6053 419.06 47.4133 419.06 47.2V40.8C419.06 39.4773 418.804 38.528 418.292 37.952C417.802 37.3547 417.13 37.056 416.276 37.056C415.38 37.056 414.527 37.3013 413.716 37.792C412.906 38.2613 412.159 38.8373 411.476 39.52V47.2C411.476 47.4133 411.402 47.6053 411.252 47.776C411.103 47.9253 410.911 48 410.676 48C410.463 48 410.271 47.9253 410.1 47.776C409.951 47.6053 409.876 47.4133 409.876 47.2V36.256C409.876 36.0213 409.951 35.8293 410.1 35.68C410.271 35.5307 410.463 35.456 410.676 35.456C410.911 35.456 411.103 35.5307 411.252 35.68C411.402 35.8293 411.476 36.0213 411.476 36.256V37.408C412.202 36.832 412.959 36.3627 413.748 36C414.538 35.6373 415.38 35.456 416.276 35.456C417.087 35.456 417.823 35.616 418.484 35.936C419.146 36.256 419.668 36.8107 420.052 37.6C420.458 38.368 420.66 39.4347 420.66 40.8V47.2C420.66 47.4133 420.586 47.6053 420.436 47.776C420.287 47.9253 420.095 48 419.86 48ZM430.967 35.328C432.268 35.328 433.388 35.6267 434.327 36.224C435.287 36.8 436.023 37.5893 436.535 38.592C437.068 39.5733 437.335 40.672 437.335 41.888C437.335 43.0613 437.068 44.1173 436.535 45.056C436.023 45.9947 435.287 46.7413 434.327 47.296C433.388 47.8507 432.268 48.128 430.967 48.128C429.687 48.128 428.567 47.8507 427.607 47.296C426.647 46.7413 425.9 45.984 425.367 45.024C424.855 44.064 424.599 42.9973 424.599 41.824C424.599 40.6293 424.855 39.5413 425.367 38.56C425.879 37.5787 426.615 36.8 427.575 36.224C428.535 35.6267 429.665 35.328 430.967 35.328ZM430.967 36.928C429.985 36.928 429.132 37.152 428.407 37.6C427.703 38.048 427.159 38.6453 426.775 39.392C426.391 40.1173 426.199 40.928 426.199 41.824C426.199 43.1467 426.625 44.2667 427.479 45.184C428.353 46.08 429.516 46.528 430.967 46.528C432.417 46.528 433.569 46.08 434.423 45.184C435.297 44.288 435.735 43.1893 435.735 41.888C435.735 40.9707 435.543 40.1387 435.159 39.392C434.775 38.6453 434.22 38.048 433.495 37.6C432.791 37.152 431.948 36.928 430.967 36.928ZM451.29 48C451.077 48 450.885 47.9253 450.714 47.776C450.565 47.6053 450.49 47.4133 450.49 47.2V45.76C449.786 46.4213 449.018 46.9653 448.186 47.392C447.354 47.7973 446.522 48 445.69 48C444.901 48 444.165 47.84 443.482 47.52C442.821 47.2 442.288 46.656 441.882 45.888C441.498 45.0987 441.306 44.0213 441.306 42.656V36.256C441.306 36.0213 441.381 35.8293 441.53 35.68C441.701 35.5307 441.893 35.456 442.106 35.456C442.341 35.456 442.533 35.5307 442.682 35.68C442.832 35.8293 442.906 36.0213 442.906 36.256V42.656C442.906 43.9573 443.152 44.9067 443.642 45.504C444.154 46.1013 444.837 46.4 445.69 46.4C446.565 46.4 447.429 46.1227 448.282 45.568C449.157 45.0133 449.893 44.3307 450.49 43.52V36.256C450.49 36.0213 450.565 35.8293 450.714 35.68C450.885 35.5307 451.077 35.456 451.29 35.456C451.525 35.456 451.717 35.5307 451.866 35.68C452.016 35.8293 452.09 36.0213 452.09 36.256V47.2C452.09 47.4133 452.016 47.6053 451.866 47.776C451.717 47.9253 451.525 48 451.29 48ZM464.893 37.312C464.679 37.248 464.306 37.1733 463.773 37.088C463.261 37.0027 462.695 36.96 462.077 36.96C461.031 36.96 460.221 37.1413 459.645 37.504C459.069 37.8667 458.781 38.3147 458.781 38.848C458.781 39.3173 459.015 39.7013 459.485 40C459.975 40.2773 460.775 40.4693 461.885 40.576L463.165 40.704C464.253 40.8107 465.106 41.056 465.725 41.44C466.343 41.824 466.781 42.2827 467.037 42.816C467.293 43.328 467.421 43.872 467.421 44.448C467.421 45.024 467.271 45.6 466.973 46.176C466.674 46.7307 466.151 47.2 465.405 47.584C464.679 47.9467 463.634 48.128 462.269 48.128C461.479 48.128 460.669 48.0533 459.837 47.904C459.005 47.7333 458.215 47.488 457.469 47.168C457.149 47.0187 456.989 46.7627 456.989 46.4C456.989 46.208 457.074 46.0373 457.245 45.888C457.415 45.7173 457.607 45.632 457.821 45.632C457.863 45.632 457.938 45.6533 458.045 45.696C458.151 45.7387 458.343 45.8133 458.621 45.92C459.026 46.0693 459.559 46.208 460.221 46.336C460.882 46.464 461.565 46.528 462.269 46.528C463.421 46.528 464.295 46.336 464.893 45.952C465.511 45.5467 465.821 45.0453 465.821 44.448C465.821 43.8933 465.607 43.424 465.181 43.04C464.754 42.6347 464.039 42.3893 463.036 42.304L461.757 42.176C460.498 42.048 459.538 41.8133 458.877 41.472C458.215 41.1093 457.767 40.6933 457.533 40.224C457.298 39.7547 457.181 39.2853 457.181 38.816C457.181 38.2827 457.319 37.76 457.597 37.248C457.895 36.7147 458.397 36.2667 459.101 35.904C459.826 35.5413 460.818 35.36 462.077 35.36C462.802 35.36 463.474 35.4133 464.093 35.52C464.733 35.6053 465.298 35.7227 465.789 35.872C465.959 35.8933 466.098 35.9893 466.205 36.16C466.311 36.3093 466.365 36.4693 466.365 36.64C466.365 36.8747 466.279 37.0667 466.109 37.216C465.959 37.3653 465.778 37.44 465.565 37.44C465.437 37.44 465.213 37.3973 464.893 37.312ZM493.094 33.024C492.048 32.4693 490.726 32.192 489.126 32.192C487.846 32.192 486.662 32.5013 485.574 33.12C484.507 33.7387 483.643 34.6027 482.982 35.712C482.32 36.8 481.99 38.08 481.99 39.552C481.99 40.896 482.278 42.112 482.854 43.2C483.43 44.2667 484.262 45.12 485.35 45.76C486.459 46.3787 487.782 46.688 489.318 46.688C490.086 46.688 490.8 46.6133 491.462 46.464C492.144 46.3147 492.752 46.1013 493.286 45.824C493.392 45.76 493.51 45.728 493.638 45.728C493.872 45.728 494.064 45.8027 494.214 45.952C494.363 46.1013 494.438 46.2933 494.438 46.528C494.438 46.8693 494.288 47.104 493.99 47.232C493.35 47.5733 492.635 47.8293 491.846 48C491.056 48.192 490.214 48.288 489.318 48.288C487.44 48.288 485.83 47.904 484.486 47.136C483.163 46.368 482.15 45.3227 481.446 44C480.742 42.6773 480.39 41.1947 480.39 39.552C480.39 37.76 480.795 36.192 481.606 34.848C482.416 33.504 483.483 32.4587 484.806 31.712C486.128 30.9653 487.568 30.592 489.126 30.592C491.046 30.592 492.624 30.9333 493.862 31.616C494.139 31.7867 494.278 32.0213 494.278 32.32C494.278 32.512 494.203 32.6933 494.054 32.864C493.904 33.0347 493.712 33.12 493.478 33.12C493.35 33.12 493.222 33.088 493.094 33.024ZM508.339 47.712C507.869 47.2213 507.507 46.6027 507.251 45.856C506.525 46.5387 505.725 47.072 504.851 47.456C503.997 47.8187 503.069 48 502.067 48C501.085 48 500.307 47.8187 499.731 47.456C499.155 47.0933 498.749 46.6453 498.515 46.112C498.28 45.5787 498.163 45.0773 498.163 44.608C498.163 44.096 498.248 43.6053 498.419 43.136C498.611 42.6453 498.899 42.2187 499.283 41.856C499.816 41.3653 500.531 40.9493 501.427 40.608C502.323 40.2667 503.421 40.096 504.723 40.096C505.405 40.096 506.131 40.128 506.899 40.192C506.813 39.232 506.493 38.4747 505.939 37.92C505.384 37.344 504.552 37.056 503.443 37.056C503.016 37.056 502.579 37.0987 502.131 37.184C501.683 37.248 501.341 37.3227 501.107 37.408C500.829 37.5147 500.627 37.568 500.499 37.568C500.285 37.568 500.093 37.4933 499.923 37.344C499.752 37.1733 499.667 36.992 499.667 36.8C499.667 36.3947 499.848 36.128 500.211 36C500.573 35.8933 501.053 35.776 501.651 35.648C502.269 35.52 502.867 35.456 503.443 35.456C505.192 35.456 506.472 35.936 507.283 36.896C508.115 37.856 508.531 39.104 508.531 40.64V43.552C508.531 44.2773 508.605 44.8853 508.755 45.376C508.925 45.8453 509.171 46.2613 509.491 46.624C509.64 46.7733 509.715 46.9547 509.715 47.168C509.715 47.3813 509.629 47.5733 509.459 47.744C509.309 47.8933 509.128 47.968 508.915 47.968C508.701 47.968 508.509 47.8827 508.339 47.712ZM502.067 46.4C502.984 46.4 503.859 46.1973 504.691 45.792C505.523 45.3653 506.269 44.7253 506.931 43.872V41.792C506.141 41.728 505.405 41.696 504.723 41.696C502.696 41.696 501.267 42.112 500.435 42.944C500.179 43.2 499.997 43.4667 499.891 43.744C499.805 44.0213 499.763 44.3093 499.763 44.608C499.763 45.0347 499.944 45.44 500.307 45.824C500.691 46.208 501.277 46.4 502.067 46.4ZM518.297 48.128C517.998 48.128 517.774 48 517.625 47.744C516.771 46.3573 515.95 44.864 515.161 43.264C514.371 41.6427 513.646 40.0533 512.985 38.496C512.686 37.7707 512.473 37.2267 512.345 36.864C512.238 36.5013 512.185 36.2987 512.185 36.256C512.185 36.0427 512.259 35.8613 512.409 35.712C512.579 35.5413 512.771 35.456 512.985 35.456C513.347 35.456 513.593 35.6267 513.721 35.968C514.531 38.08 515.321 39.936 516.089 41.536C516.857 43.136 517.603 44.5653 518.329 45.824C518.841 44.9067 519.353 43.8827 519.865 42.752C520.398 41.6 520.91 40.4373 521.401 39.264C521.891 38.0907 522.318 36.992 522.681 35.968C522.787 35.6267 523.033 35.456 523.417 35.456C523.63 35.456 523.811 35.5413 523.961 35.712C524.131 35.8613 524.217 36.0427 524.217 36.256C524.217 36.448 523.993 37.1093 523.545 38.24C523.225 39.0507 522.819 40.0213 522.329 41.152C521.838 42.2827 521.315 43.4347 520.761 44.608C520.206 45.76 519.641 46.8053 519.065 47.744C518.915 48 518.691 48.128 518.393 48.128H518.297ZM533.478 48C531.43 48 529.776 47.4667 528.518 46.4C527.28 45.3333 526.662 43.8293 526.662 41.888C526.662 40.5867 526.939 39.456 527.494 38.496C528.048 37.536 528.784 36.7893 529.702 36.256C530.64 35.7227 531.675 35.456 532.806 35.456C533.936 35.456 534.886 35.68 535.654 36.128C536.422 36.576 536.998 37.1307 537.382 37.792C537.787 38.4533 537.99 39.104 537.99 39.744C537.99 40.512 537.744 41.1733 537.254 41.728C536.784 42.2827 535.888 42.56 534.566 42.56H528.294C528.464 43.84 529.019 44.8 529.958 45.44C530.918 46.08 532.091 46.4 533.478 46.4C534.011 46.4 534.491 46.3573 534.918 46.272C535.366 46.1867 535.707 46.1013 535.942 46.016C536.176 45.9307 536.326 45.8773 536.39 45.856C536.475 45.8347 536.539 45.824 536.582 45.824C536.795 45.824 536.976 45.9093 537.126 46.08C537.296 46.2293 537.382 46.4107 537.382 46.624C537.382 46.9867 537.211 47.232 536.87 47.36C536.422 47.5307 535.899 47.68 535.302 47.808C534.704 47.936 534.096 48 533.478 48ZM532.806 37.056C531.675 37.056 530.694 37.4187 529.862 38.144C529.03 38.848 528.518 39.7867 528.326 40.96H534.598C535.814 40.96 536.422 40.5547 536.422 39.744C536.422 39.0827 536.091 38.4747 535.43 37.92C534.768 37.344 533.894 37.056 532.806 37.056ZM543.333 48C543.119 48 542.927 47.9253 542.757 47.776C542.607 47.6053 542.533 47.4133 542.533 47.2V36.256C542.533 36.0213 542.607 35.8293 542.757 35.68C542.927 35.5307 543.119 35.456 543.333 35.456C543.567 35.456 543.759 35.5307 543.909 35.68C544.058 35.8293 544.133 36.0213 544.133 36.256V38.144C544.965 37.2693 545.85 36.608 546.789 36.16C547.727 35.712 548.634 35.488 549.509 35.488C549.743 35.488 549.925 35.5627 550.053 35.712C550.202 35.84 550.277 36.0107 550.277 36.224C550.277 36.7147 550.042 36.992 549.573 37.056C548.335 37.2053 547.29 37.6 546.437 38.24C545.583 38.88 544.815 39.712 544.133 40.736V47.2C544.133 47.4133 544.058 47.6053 543.909 47.776C543.759 47.9253 543.567 48 543.333 48ZM563.579 48C563.366 48 563.174 47.9253 563.003 47.776C562.854 47.6053 562.779 47.4133 562.779 47.2V40.8C562.779 39.4773 562.523 38.528 562.011 37.952C561.52 37.3547 560.848 37.056 559.995 37.056C559.099 37.056 558.246 37.3013 557.435 37.792C556.624 38.2613 555.878 38.8373 555.195 39.52V47.2C555.195 47.4133 555.12 47.6053 554.971 47.776C554.822 47.9253 554.63 48 554.395 48C554.182 48 553.99 47.9253 553.819 47.776C553.67 47.6053 553.595 47.4133 553.595 47.2V36.256C553.595 36.0213 553.67 35.8293 553.819 35.68C553.99 35.5307 554.182 35.456 554.395 35.456C554.63 35.456 554.822 35.5307 554.971 35.68C555.12 35.8293 555.195 36.0213 555.195 36.256V37.408C555.92 36.832 556.678 36.3627 557.467 36C558.256 35.6373 559.099 35.456 559.995 35.456C560.806 35.456 561.542 35.616 562.203 35.936C562.864 36.256 563.387 36.8107 563.771 37.6C564.176 38.368 564.379 39.4347 564.379 40.8V47.2C564.379 47.4133 564.304 47.6053 564.155 47.776C564.006 47.9253 563.814 48 563.579 48Z" fill="#E7E7E7"/>
<path d="M345.219 52H566.779V53.6H345.219V52Z" fill="#E7E7E7"/>
<rect x="162" y="17" width="157.196" height="44" rx="12" fill="#212121"/>
<path d="M251.44 33.12C252.387 33.12 253.247 33.3533 254.02 33.82C254.807 34.2867 255.427 34.94 255.88 35.78C256.347 36.6067 256.58 37.5667 256.58 38.66C256.58 39.7 256.373 40.64 255.96 41.48C255.56 42.3067 254.973 42.9667 254.2 43.46C253.44 43.94 252.52 44.18 251.44 44.18C250.427 44.18 249.527 43.94 248.74 43.46C247.953 42.9667 247.333 42.3067 246.88 41.48C246.44 40.6533 246.22 39.7333 246.22 38.72C246.22 37.6 246.44 36.62 246.88 35.78C247.32 34.94 247.927 34.2867 248.7 33.82C249.487 33.3533 250.4 33.12 251.44 33.12ZM251.44 34.12C250.6 34.12 249.86 34.32 249.22 34.72C248.593 35.1067 248.1 35.6467 247.74 36.34C247.393 37.02 247.22 37.8133 247.22 38.72C247.22 39.5333 247.393 40.28 247.74 40.96C248.1 41.64 248.6 42.18 249.24 42.58C249.88 42.98 250.613 43.18 251.44 43.18C252.32 43.18 253.067 42.98 253.68 42.58C254.307 42.18 254.78 41.64 255.1 40.96C255.42 40.2667 255.58 39.5 255.58 38.66C255.58 37.78 255.393 37 255.02 36.32C254.66 35.64 254.167 35.1067 253.54 34.72C252.913 34.32 252.213 34.12 251.44 34.12ZM265.928 44C265.795 44 265.675 43.9533 265.568 43.86C265.475 43.7533 265.428 43.6333 265.428 43.5V39.5C265.428 38.6733 265.268 38.08 264.948 37.72C264.642 37.3467 264.222 37.16 263.688 37.16C263.128 37.16 262.595 37.3133 262.088 37.62C261.582 37.9133 261.115 38.2733 260.688 38.7V43.5C260.688 43.6333 260.642 43.7533 260.548 43.86C260.455 43.9533 260.335 44 260.188 44C260.055 44 259.935 43.9533 259.828 43.86C259.735 43.7533 259.688 43.6333 259.688 43.5V36.66C259.688 36.5133 259.735 36.3933 259.828 36.3C259.935 36.2067 260.055 36.16 260.188 36.16C260.335 36.16 260.455 36.2067 260.548 36.3C260.642 36.3933 260.688 36.5133 260.688 36.66V37.38C261.142 37.02 261.615 36.7267 262.108 36.5C262.602 36.2733 263.128 36.16 263.688 36.16C264.195 36.16 264.655 36.26 265.068 36.46C265.482 36.66 265.808 37.0067 266.048 37.5C266.302 37.98 266.428 38.6467 266.428 39.5V43.5C266.428 43.6333 266.382 43.7533 266.288 43.86C266.195 43.9533 266.075 44 265.928 44ZM273.17 44C271.89 44 270.856 43.6667 270.07 43C269.296 42.3333 268.91 41.3933 268.91 40.18C268.91 39.3667 269.083 38.66 269.43 38.06C269.776 37.46 270.236 36.9933 270.81 36.66C271.396 36.3267 272.043 36.16 272.75 36.16C273.456 36.16 274.05 36.3 274.53 36.58C275.01 36.86 275.37 37.2067 275.61 37.62C275.863 38.0333 275.99 38.44 275.99 38.84C275.99 39.32 275.836 39.7333 275.53 40.08C275.236 40.4267 274.676 40.6 273.85 40.6H269.93C270.036 41.4 270.383 42 270.97 42.4C271.57 42.8 272.303 43 273.17 43C273.503 43 273.803 42.9733 274.07 42.92C274.35 42.8667 274.563 42.8133 274.71 42.76C274.856 42.7067 274.95 42.6733 274.99 42.66C275.043 42.6467 275.083 42.64 275.11 42.64C275.243 42.64 275.356 42.6933 275.45 42.8C275.556 42.8933 275.61 43.0067 275.61 43.14C275.61 43.3667 275.503 43.52 275.29 43.6C275.01 43.7067 274.683 43.8 274.31 43.88C273.936 43.96 273.556 44 273.17 44ZM272.75 37.16C272.043 37.16 271.43 37.3867 270.91 37.84C270.39 38.28 270.07 38.8667 269.95 39.6H273.87C274.63 39.6 275.01 39.3467 275.01 38.84C275.01 38.4267 274.803 38.0467 274.39 37.7C273.976 37.34 273.43 37.16 272.75 37.16ZM283.234 37.32C283.1 37.28 282.867 37.2333 282.534 37.18C282.214 37.1267 281.86 37.1 281.474 37.1C280.82 37.1 280.314 37.2133 279.954 37.44C279.594 37.6667 279.414 37.9467 279.414 38.28C279.414 38.5733 279.56 38.8133 279.854 39C280.16 39.1733 280.66 39.2933 281.354 39.36L282.154 39.44C282.834 39.5067 283.367 39.66 283.754 39.9C284.14 40.14 284.414 40.4267 284.574 40.76C284.734 41.08 284.814 41.42 284.814 41.78C284.814 42.14 284.72 42.5 284.534 42.86C284.347 43.2067 284.02 43.5 283.554 43.74C283.1 43.9667 282.447 44.08 281.594 44.08C281.1 44.08 280.594 44.0333 280.074 43.94C279.554 43.8333 279.06 43.68 278.594 43.48C278.394 43.3867 278.294 43.2267 278.294 43C278.294 42.88 278.347 42.7733 278.454 42.68C278.56 42.5733 278.68 42.52 278.814 42.52C278.84 42.52 278.887 42.5333 278.954 42.56C279.02 42.5867 279.14 42.6333 279.314 42.7C279.567 42.7933 279.9 42.88 280.314 42.96C280.727 43.04 281.154 43.08 281.594 43.08C282.314 43.08 282.86 42.96 283.234 42.72C283.62 42.4667 283.814 42.1533 283.814 41.78C283.814 41.4333 283.68 41.14 283.414 40.9C283.147 40.6467 282.7 40.4933 282.074 40.44L281.274 40.36C280.487 40.28 279.887 40.1333 279.474 39.92C279.06 39.6933 278.78 39.4333 278.634 39.14C278.487 38.8467 278.414 38.5533 278.414 38.26C278.414 37.9267 278.5 37.6 278.674 37.28C278.86 36.9467 279.174 36.6667 279.614 36.44C280.067 36.2133 280.687 36.1 281.474 36.1C281.927 36.1 282.347 36.1333 282.734 36.2C283.134 36.2533 283.487 36.3267 283.794 36.42C283.9 36.4333 283.987 36.4933 284.054 36.6C284.12 36.6933 284.154 36.7933 284.154 36.9C284.154 37.0467 284.1 37.1667 283.994 37.26C283.9 37.3533 283.787 37.4 283.654 37.4C283.574 37.4 283.434 37.3733 283.234 37.32ZM293.878 44C293.744 44 293.624 43.9533 293.518 43.86C293.424 43.7533 293.378 43.6333 293.378 43.5V39.5C293.378 38.6733 293.218 38.08 292.898 37.72C292.591 37.3467 292.171 37.16 291.638 37.16C291.078 37.16 290.544 37.3133 290.038 37.62C289.531 37.9133 289.064 38.2733 288.638 38.7V43.5C288.638 43.6333 288.591 43.7533 288.498 43.86C288.404 43.9533 288.284 44 288.138 44C288.004 44 287.884 43.9533 287.778 43.86C287.684 43.7533 287.638 43.6333 287.638 43.5V33.28C287.638 33.1333 287.684 33.0133 287.778 32.92C287.884 32.8267 288.004 32.78 288.138 32.78C288.284 32.78 288.404 32.8267 288.498 32.92C288.591 33.0133 288.638 33.1333 288.638 33.28V37.38C289.091 37.0333 289.564 36.7467 290.058 36.52C290.551 36.28 291.078 36.16 291.638 36.16C292.144 36.16 292.604 36.26 293.018 36.46C293.431 36.66 293.758 37.0067 293.998 37.5C294.251 37.98 294.378 38.6467 294.378 39.5V43.5C294.378 43.6333 294.331 43.7533 294.238 43.86C294.144 43.9533 294.024 44 293.878 44ZM300.819 36.08C301.632 36.08 302.332 36.2667 302.919 36.64C303.519 37 303.979 37.4933 304.299 38.12C304.632 38.7333 304.799 39.42 304.799 40.18C304.799 40.9133 304.632 41.5733 304.299 42.16C303.979 42.7467 303.519 43.2133 302.919 43.56C302.332 43.9067 301.632 44.08 300.819 44.08C300.019 44.08 299.319 43.9067 298.719 43.56C298.119 43.2133 297.652 42.74 297.319 42.14C296.999 41.54 296.839 40.8733 296.839 40.14C296.839 39.3933 296.999 38.7133 297.319 38.1C297.639 37.4867 298.099 37 298.699 36.64C299.299 36.2667 300.006 36.08 300.819 36.08ZM300.819 37.08C300.206 37.08 299.672 37.22 299.219 37.5C298.779 37.78 298.439 38.1533 298.199 38.62C297.959 39.0733 297.839 39.58 297.839 40.14C297.839 40.9667 298.106 41.6667 298.639 42.24C299.186 42.8 299.912 43.08 300.819 43.08C301.726 43.08 302.446 42.8 302.979 42.24C303.526 41.68 303.799 40.9933 303.799 40.18C303.799 39.6067 303.679 39.0867 303.439 38.62C303.199 38.1533 302.852 37.78 302.399 37.5C301.959 37.22 301.432 37.08 300.819 37.08ZM311.557 44C310.33 44 309.457 43.7467 308.937 43.24C308.417 42.72 308.157 42.0267 308.157 41.16V37.16H306.897C306.763 37.16 306.643 37.1133 306.537 37.02C306.443 36.9133 306.397 36.7933 306.397 36.66C306.397 36.5133 306.443 36.3933 306.537 36.3C306.643 36.2067 306.763 36.16 306.897 36.16H308.157V34.14C308.157 33.9933 308.203 33.8733 308.297 33.78C308.403 33.6867 308.523 33.64 308.657 33.64C308.803 33.64 308.923 33.6867 309.017 33.78C309.11 33.8733 309.157 33.9933 309.157 34.14V36.16H311.817C311.963 36.16 312.083 36.2067 312.177 36.3C312.27 36.3933 312.317 36.5133 312.317 36.66C312.317 36.7933 312.27 36.9133 312.177 37.02C312.083 37.1133 311.963 37.16 311.817 37.16H309.157V41.16C309.157 42.3867 309.957 43 311.557 43C311.703 43 311.823 43.0533 311.917 43.16C312.01 43.2533 312.057 43.3667 312.057 43.5C312.057 43.6333 312.003 43.7533 311.897 43.86C311.803 43.9533 311.69 44 311.557 44Z" fill="#E7E7E7"/>
<path d="M204 19L204 59L179.239 59C171.507 59 165.239 52.732 165.239 45L165.239 33L165.244 32.6387C165.436 25.0737 171.628 19 179.239 19L204 19Z" fill="#2D2D2D" stroke="#212121" stroke-width="4"/>
<g clip-path="url(#clip0_535_1185)">
<path d="M184 49C189.523 49 194 44.5228 194 39C194 33.4772 189.523 29 184 29C178.477 29 174 33.4772 174 39C174 44.5228 178.477 49 184 49Z" stroke="#FF9E5A" stroke-width="2.5" stroke-linecap="round" stroke-linejoin="round"/>
<path d="M184 42C185.657 42 187 40.6569 187 39C187 37.3431 185.657 36 184 36C182.343 36 181 37.3431 181 39C181 40.6569 182.343 42 184 42Z" stroke="#FF9E5A" stroke-width="2.5" stroke-linecap="round" stroke-linejoin="round"/>
</g>
<g clip-path="url(#clip1_535_1185)">
<path d="M225 28L229 32M229 32L225 36M229 32H215C213.939 32 212.922 32.4214 212.172 33.1716C211.421 33.9217 211 34.9391 211 36V38M215 50L211 46M211 46L215 42M211 46H225C226.061 46 227.078 45.5786 227.828 44.8284C228.579 44.0783 229 43.0609 229 42V40" stroke="#696969" stroke-width="2.5" stroke-linecap="round" stroke-linejoin="round"/>
</g>
<rect x="854" y="19" width="38" height="38" rx="9" fill="#2D2D2D" stroke="#202020" stroke-width="6"/>
<path d="M880 31L866 45M866 31L880 45" stroke="#FF5A5A" stroke-width="3" stroke-linecap="round" stroke-linejoin="round"/>
<rect x="73" y="19" width="38" height="38" rx="9" fill="#2D2D2D" stroke="#202020" stroke-width="6"/>
<path d="M84.4167 47.75H99.5833C100.78 47.75 101.75 46.78 101.75 45.5833V30.4167C101.75 29.22 100.78 28.25 99.5833 28.25H84.4167C83.22 28.25 82.25 29.22 82.25 30.4167V45.5833C82.25 46.78 83.22 47.75 84.4167 47.75ZM84.4167 47.75L96.3333 35.8333L101.75 41.25M89.8333 34.2083C89.8333 35.1058 89.1058 35.8333 88.2083 35.8333C87.3109 35.8333 86.5833 35.1058 86.5833 34.2083C86.5833 33.3109 87.3109 32.5833 88.2083 32.5833C89.1058 32.5833 89.8333 33.3109 89.8333 34.2083Z" stroke="#E7E7E7" stroke-width="2.5" stroke-linecap="round" stroke-linejoin="round"/>
<defs>
<linearGradient id="paint0_linear_535_1185" x1="455.5" y1="8" x2="455.5" y2="464" gradientUnits="userSpaceOnUse">
<stop stop-color="#8D47C7"/>
<stop offset="1" stop-color="#4F259B"/>
</linearGradient>
<linearGradient id="paint1_linear_535_1185" x1="38" y1="16" x2="38" y2="60" gradientUnits="userSpaceOnUse">
<stop stop-color="#9C4FD1"/>
<stop offset="1" stop-color="#411D91"/>
</linearGradient>
<clipPath id="clip0_535_1185">
<rect width="24" height="24" fill="white" transform="translate(172 27)"/>
</clipPath>
<clipPath id="clip1_535_1185">
<rect width="24" height="24" fill="white" transform="translate(208 27)"/>
</clipPath>
</defs>
</svg>
