<svg width="855" height="148" viewBox="0 0 855 148" fill="none" xmlns="http://www.w3.org/2000/svg">
<rect x="6.10352e-05" width="855" height="148" rx="12" fill="#2B2B2B"/>
<rect x="706" y="5" width="107" height="33" rx="12" fill="#202020"/>
<rect x="741" y="9" width="67" height="25" rx="8" fill="#2D2D2D"/>
<path d="M741 17C741 12.5817 744.582 9 749 9L792 9.00001L792 34L749 34C744.582 34 741 30.4183 741 26L741 17Z" fill="#E7E7E7"/>
<path d="M731.07 14.9301C732.945 16.8053 733.998 19.3484 733.998 22.0001C733.998 24.6517 732.945 27.1948 731.07 29.0701M727.54 18.4601C728.477 19.3977 729.004 20.6692 729.004 21.9951C729.004 23.3209 728.477 24.5924 727.54 25.5301M723 15.0001L718 19.0001H714V25.0001H718L723 29.0001V15.0001Z" stroke="#E7E7E7" stroke-width="2.5" stroke-linecap="round" stroke-linejoin="round"/>
<path d="M33 19L39 25L45 19" stroke="#E7E7E7" stroke-width="2" stroke-linecap="round"/>
<circle cx="16" cy="16" r="2" fill="white" fill-opacity="0.29"/>
<circle cx="22" cy="16" r="2" fill="white" fill-opacity="0.29"/>
<circle cx="16" cy="22" r="2" fill="white" fill-opacity="0.29"/>
<circle cx="22" cy="22" r="2" fill="white" fill-opacity="0.29"/>
<circle cx="16" cy="28" r="2" fill="white" fill-opacity="0.29"/>
<circle cx="22" cy="28" r="2" fill="white" fill-opacity="0.29"/>
<rect x="28" y="48" width="798" height="43.9999" rx="12" fill="#202020"/>
<path d="M32 60C32 55.5817 35.5817 52 40 52L55 52L55 88L40 88C35.5817 88 32 84.4183 32 80L32 60Z" fill="#2D2D2D"/>
<path d="M799 52L814 52C818.418 52 822 55.5817 822 60L822 80C822 84.4183 818.418 88 814 88L799 88L799 52Z" fill="#2D2D2D"/>
<path d="M815.5 64.5L804.5 75.5M804.5 64.5L815.5 75.5" stroke="#FF5A5A" stroke-width="3" stroke-linecap="round" stroke-linejoin="round"/>
<rect x="149" y="68" width="4" height="4" rx="2" fill="#696969"/>
<rect x="80" y="68" width="4" height="4" rx="2" fill="#696969"/>
<rect x="139" y="68" width="4" height="4" rx="2" fill="#696969"/>
<rect x="110" y="68" width="4" height="4" rx="2" fill="#696969"/>
<rect x="70" y="68" width="4" height="4" rx="2" fill="#696969"/>
<rect x="159.022" y="63.8823" width="3.95653" height="14.2353" rx="1.97826" fill="#E7E7E7"/>
<rect x="418" y="63.8823" width="3.95653" height="14.2353" rx="1.97826" fill="#E7E7E7"/>
<rect x="90" y="68" width="4" height="4" rx="2" fill="#696969"/>
<rect x="188.696" y="62.5883" width="3.95653" height="16.8235" rx="1.97826" fill="#E7E7E7"/>
<rect x="447.674" y="62.5883" width="3.95653" height="16.8235" rx="1.97826" fill="#E7E7E7"/>
<rect x="119" y="68" width="4" height="4" rx="2" fill="#696969"/>
<rect x="178.804" y="60" width="3.95653" height="22" rx="1.97826" fill="#E7E7E7"/>
<rect x="437.782" y="60" width="3.95653" height="22" rx="1.97826" fill="#E7E7E7"/>
<rect x="168.913" y="61.2941" width="3.95653" height="19.4118" rx="1.97826" fill="#E7E7E7"/>
<rect x="427.891" y="61.2941" width="3.95653" height="19.4118" rx="1.97826" fill="#E7E7E7"/>
<rect x="100" y="68" width="4" height="4" rx="2" fill="#696969"/>
<rect x="129" y="68" width="4" height="4" rx="2" fill="#696969"/>
<rect x="168.913" y="61.2941" width="3.95653" height="19.4118" rx="1.97826" fill="#E7E7E7"/>
<rect x="427.891" y="61.2941" width="3.95653" height="19.4118" rx="1.97826" fill="#E7E7E7"/>
<rect x="218.783" y="66.4706" width="3.95652" height="9.05882" rx="1.97826" fill="#E7E7E7"/>
<rect x="477.761" y="66.4706" width="3.95652" height="9.05882" rx="1.97826" fill="#E7E7E7"/>
<rect x="199" y="62.5883" width="3.95653" height="16.8235" rx="1.97826" fill="#E7E7E7"/>
<rect x="457.978" y="62.5883" width="3.95653" height="16.8235" rx="1.97826" fill="#E7E7E7"/>
<rect x="228.674" y="64.5294" width="3.95653" height="12.9412" rx="1.97826" fill="#E7E7E7"/>
<rect x="487.652" y="64.5294" width="3.95653" height="12.9412" rx="1.97826" fill="#E7E7E7"/>
<rect x="208.892" y="61.2941" width="3.95653" height="19.4118" rx="1.97826" fill="#E7E7E7"/>
<rect x="467.87" y="61.2941" width="3.95653" height="19.4118" rx="1.97826" fill="#E7E7E7"/>
<rect x="238.565" y="65.8235" width="3.95652" height="10.3529" rx="1.97826" fill="#E7E7E7"/>
<rect x="497.544" y="65.8235" width="3.95652" height="10.3529" rx="1.97826" fill="#E7E7E7"/>
<rect x="248.109" y="69" width="4" height="4" rx="2" fill="#E7E7E7"/>
<rect x="507.087" y="69" width="4" height="4" rx="2" fill="#E7E7E7"/>
<rect x="258.109" y="69" width="4" height="4" rx="2" fill="#E7E7E7"/>
<rect x="517.087" y="69" width="4" height="4" rx="2" fill="#E7E7E7"/>
<rect x="268.109" y="69" width="4" height="4" rx="2" fill="#E7E7E7"/>
<rect x="527.087" y="69" width="4" height="4" rx="2" fill="#E7E7E7"/>
<rect x="278.109" y="69" width="4" height="4" rx="2" fill="#E7E7E7"/>
<rect x="537.087" y="69" width="4" height="4" rx="2" fill="#E7E7E7"/>
<rect x="348" y="69" width="4" height="4" rx="2" fill="#E7E7E7"/>
<rect x="606.978" y="69" width="4" height="4" rx="2" fill="#E7E7E7"/>
<rect x="736.891" y="69" width="4" height="4" rx="2" fill="#E7E7E7"/>
<rect x="288.109" y="69" width="4" height="4" rx="2" fill="#E7E7E7"/>
<rect x="547.087" y="69" width="4" height="4" rx="2" fill="#E7E7E7"/>
<rect x="677" y="69" width="4" height="4" rx="2" fill="#E7E7E7"/>
<rect x="358" y="69" width="4" height="4" rx="2" fill="#E7E7E7"/>
<rect x="616.978" y="69" width="4" height="4" rx="2" fill="#E7E7E7"/>
<rect x="746.891" y="69" width="4" height="4" rx="2" fill="#E7E7E7"/>
<rect x="298.109" y="69" width="4" height="4" rx="2" fill="#E7E7E7"/>
<rect x="557.087" y="69" width="4" height="4" rx="2" fill="#E7E7E7"/>
<rect x="687" y="69" width="4" height="4" rx="2" fill="#E7E7E7"/>
<rect x="368" y="69" width="4" height="4" rx="2" fill="#E7E7E7"/>
<rect x="626.978" y="69" width="4" height="4" rx="2" fill="#E7E7E7"/>
<rect x="756.891" y="69" width="4" height="4" rx="2" fill="#E7E7E7"/>
<rect x="308.109" y="69" width="4" height="4" rx="2" fill="#E7E7E7"/>
<rect x="567.087" y="69" width="4" height="4" rx="2" fill="#E7E7E7"/>
<rect x="697" y="69" width="4" height="4" rx="2" fill="#E7E7E7"/>
<rect x="378" y="69" width="4" height="4" rx="2" fill="#E7E7E7"/>
<rect x="636.978" y="69" width="4" height="4" rx="2" fill="#E7E7E7"/>
<rect x="766.891" y="69" width="4" height="4" rx="2" fill="#E7E7E7"/>
<rect x="318.109" y="69" width="4" height="4" rx="2" fill="#E7E7E7"/>
<rect x="577.087" y="69" width="4" height="4" rx="2" fill="#E7E7E7"/>
<rect x="707" y="69" width="4" height="4" rx="2" fill="#E7E7E7"/>
<rect x="388" y="69" width="4" height="4" rx="2" fill="#E7E7E7"/>
<rect x="646.978" y="69" width="4" height="4" rx="2" fill="#E7E7E7"/>
<rect x="776.891" y="69" width="4" height="4" rx="2" fill="#E7E7E7"/>
<rect x="328.109" y="69" width="4" height="4" rx="2" fill="#E7E7E7"/>
<rect x="587.087" y="69" width="4" height="4" rx="2" fill="#E7E7E7"/>
<rect x="717" y="69" width="4" height="4" rx="2" fill="#E7E7E7"/>
<rect x="398" y="69" width="4" height="4" rx="2" fill="#E7E7E7"/>
<rect x="656.978" y="69" width="4" height="4" rx="2" fill="#E7E7E7"/>
<rect x="786.891" y="69" width="4" height="4" rx="2" fill="#E7E7E7"/>
<rect x="338.109" y="69" width="4" height="4" rx="2" fill="#E7E7E7"/>
<rect x="597.087" y="69" width="4" height="4" rx="2" fill="#E7E7E7"/>
<rect x="727" y="69" width="4" height="4" rx="2" fill="#E7E7E7"/>
<rect x="408" y="69" width="4" height="4" rx="2" fill="#E7E7E7"/>
<rect x="666.978" y="69" width="4" height="4" rx="2" fill="#E7E7E7"/>
<path d="M168 52H236.5L334 88H156L168 52Z" fill="#FF9E5A" fill-opacity="0.1"/>
<path d="M156 88L156 62M156 62V53.5H165L156 62Z" stroke="#FF9E5A" stroke-width="3"/>
<path d="M334 88L334 62M334 62V53.5H325L334 62Z" stroke="#FF9E5A" stroke-width="3"/>
<path d="M835 42L853 42L853 12C853 6.47716 848.523 2.00001 843 2L825 2L825 32C825 37.5228 829.477 42 835 42Z" fill="#2D2D2D" stroke="#212121" stroke-width="4"/>
<path d="M832 15.6952H833.667M833.667 15.6952H847M833.667 15.6952L833.667 28.2526C833.667 28.7284 833.842 29.1846 834.155 29.5211C834.467 29.8575 834.891 30.0465 835.333 30.0465H843.667C844.109 30.0465 844.533 29.8575 844.845 29.5211C845.158 29.1846 845.333 28.7284 845.333 28.2526V15.6952M836.167 15.6952V13.9013C836.167 13.4256 836.342 12.9693 836.655 12.6328C836.967 12.2964 837.391 12.1074 837.833 12.1074H841.167C841.609 12.1074 842.033 12.2964 842.345 12.6328C842.658 12.9693 842.833 13.4256 842.833 13.9013V15.6952M837.833 20.18V25.5617M841.167 20.18V25.5617" stroke="#FF5A5A" stroke-width="2" stroke-linecap="round" stroke-linejoin="round"/>
<rect x="437" y="102" width="267" height="32" rx="16" fill="#202020"/>
<rect x="535" y="108" width="56" height="21" rx="10.5" fill="#202020" stroke="#E7E7E7" stroke-width="2"/>
<path d="M546.544 114.312C547.184 114.312 547.771 114.499 548.304 114.872C548.848 115.235 549.28 115.747 549.6 116.408C549.931 117.059 550.096 117.821 550.096 118.696C550.096 119.517 549.952 120.264 549.664 120.936C549.387 121.608 548.981 122.141 548.448 122.536C547.925 122.931 547.291 123.128 546.544 123.128C545.861 123.128 545.248 122.931 544.704 122.536C544.16 122.141 543.728 121.613 543.408 120.952C543.099 120.28 542.944 119.539 542.944 118.728C542.944 117.843 543.099 117.069 543.408 116.408C543.717 115.747 544.144 115.235 544.688 114.872C545.232 114.499 545.851 114.312 546.544 114.312ZM546.544 115.112C545.979 115.112 545.483 115.272 545.056 115.592C544.64 115.901 544.315 116.328 544.08 116.872C543.856 117.416 543.744 118.035 543.744 118.728C543.744 119.357 543.861 119.949 544.096 120.504C544.331 121.048 544.656 121.491 545.072 121.832C545.499 122.163 545.989 122.328 546.544 122.328C547.152 122.328 547.659 122.157 548.064 121.816C548.469 121.475 548.773 121.032 548.976 120.488C549.189 119.933 549.296 119.336 549.296 118.696C549.296 118.013 549.173 117.405 548.928 116.872C548.693 116.328 548.368 115.901 547.952 115.592C547.536 115.272 547.067 115.112 546.544 115.112Z" fill="#E7E7E7"/>
<rect x="641" y="108" width="56" height="21" rx="10.5" fill="#202020" stroke="#3B3B3B" stroke-width="2"/>
<path d="M650.216 123C650.109 123 650.013 122.963 649.928 122.888C649.853 122.803 649.816 122.707 649.816 122.6C649.816 122.515 649.853 122.424 649.928 122.328L652.76 119.624C653.293 119.112 653.715 118.685 654.024 118.344C654.344 118.003 654.573 117.693 654.712 117.416C654.851 117.128 654.92 116.829 654.92 116.52C654.92 116.147 654.765 115.816 654.456 115.528C654.147 115.24 653.704 115.096 653.128 115.096C652.36 115.096 651.624 115.309 650.92 115.736C650.888 115.747 650.856 115.763 650.824 115.784C650.792 115.795 650.755 115.8 650.712 115.8C650.616 115.8 650.525 115.768 650.44 115.704C650.355 115.629 650.312 115.528 650.312 115.4C650.312 115.251 650.376 115.139 650.504 115.064C651.325 114.552 652.2 114.296 653.128 114.296C653.725 114.296 654.216 114.408 654.6 114.632C654.984 114.845 655.267 115.123 655.448 115.464C655.629 115.795 655.72 116.147 655.72 116.52C655.72 116.872 655.651 117.213 655.512 117.544C655.373 117.875 655.128 118.248 654.776 118.664C654.435 119.08 653.944 119.592 653.304 120.2L651.208 122.2H655.848C655.965 122.2 656.061 122.243 656.136 122.328C656.211 122.403 656.248 122.493 656.248 122.6C656.248 122.707 656.211 122.803 656.136 122.888C656.061 122.963 655.965 123 655.848 123H650.216Z" fill="#E7E7E7"/>
<path d="M446.46 124C446.327 124 446.207 123.953 446.1 123.86C446.007 123.753 445.96 123.633 445.96 123.5V113.8C445.96 113.653 446.007 113.533 446.1 113.44C446.207 113.347 446.327 113.3 446.46 113.3H449.98C450.86 113.3 451.68 113.527 452.44 113.98C453.213 114.433 453.833 115.06 454.3 115.86C454.78 116.66 455.02 117.587 455.02 118.64C455.02 119.64 454.807 120.547 454.38 121.36C453.967 122.16 453.38 122.8 452.62 123.28C451.873 123.76 450.993 124 449.98 124H446.46ZM446.96 114.3V123H449.98C450.807 123 451.52 122.807 452.12 122.42C452.733 122.02 453.2 121.493 453.52 120.84C453.853 120.173 454.02 119.44 454.02 118.64C454.02 117.8 453.833 117.053 453.46 116.4C453.087 115.747 452.593 115.233 451.98 114.86C451.367 114.487 450.7 114.3 449.98 114.3H446.96ZM461.486 124C460.206 124 459.173 123.667 458.386 123C457.613 122.333 457.226 121.393 457.226 120.18C457.226 119.367 457.399 118.66 457.746 118.06C458.093 117.46 458.553 116.993 459.126 116.66C459.713 116.327 460.359 116.16 461.066 116.16C461.773 116.16 462.366 116.3 462.846 116.58C463.326 116.86 463.686 117.207 463.926 117.62C464.179 118.033 464.306 118.44 464.306 118.84C464.306 119.32 464.153 119.733 463.846 120.08C463.553 120.427 462.993 120.6 462.166 120.6H458.246C458.353 121.4 458.699 122 459.286 122.4C459.886 122.8 460.619 123 461.486 123C461.819 123 462.119 122.973 462.386 122.92C462.666 122.867 462.879 122.813 463.026 122.76C463.173 122.707 463.266 122.673 463.306 122.66C463.359 122.647 463.399 122.64 463.426 122.64C463.559 122.64 463.673 122.693 463.766 122.8C463.873 122.893 463.926 123.007 463.926 123.14C463.926 123.367 463.819 123.52 463.606 123.6C463.326 123.707 462.999 123.8 462.626 123.88C462.253 123.96 461.873 124 461.486 124ZM461.066 117.16C460.359 117.16 459.746 117.387 459.226 117.84C458.706 118.28 458.386 118.867 458.266 119.6H462.186C462.946 119.6 463.326 119.347 463.326 118.84C463.326 118.427 463.119 118.047 462.706 117.7C462.293 117.34 461.746 117.16 461.066 117.16ZM467.265 113.28C467.265 113.133 467.312 113.013 467.405 112.92C467.512 112.827 467.632 112.78 467.765 112.78C467.912 112.78 468.032 112.827 468.125 112.92C468.219 113.013 468.265 113.133 468.265 113.28V123.5C468.265 123.633 468.219 123.753 468.125 123.86C468.032 123.953 467.912 124 467.765 124C467.632 124 467.512 123.953 467.405 123.86C467.312 123.753 467.265 123.633 467.265 123.5V113.28ZM477.454 123.82C477.16 123.513 476.934 123.127 476.774 122.66C476.32 123.087 475.82 123.42 475.274 123.66C474.74 123.887 474.16 124 473.534 124C472.92 124 472.434 123.887 472.074 123.66C471.714 123.433 471.46 123.153 471.314 122.82C471.167 122.487 471.094 122.173 471.094 121.88C471.094 121.56 471.147 121.253 471.254 120.96C471.374 120.653 471.554 120.387 471.794 120.16C472.127 119.853 472.574 119.593 473.134 119.38C473.694 119.167 474.38 119.06 475.194 119.06C475.62 119.06 476.074 119.08 476.554 119.12C476.5 118.52 476.3 118.047 475.954 117.7C475.607 117.34 475.087 117.16 474.394 117.16C474.127 117.16 473.854 117.187 473.574 117.24C473.294 117.28 473.08 117.327 472.934 117.38C472.76 117.447 472.634 117.48 472.554 117.48C472.42 117.48 472.3 117.433 472.194 117.34C472.087 117.233 472.034 117.12 472.034 117C472.034 116.747 472.147 116.58 472.374 116.5C472.6 116.433 472.9 116.36 473.274 116.28C473.66 116.2 474.034 116.16 474.394 116.16C475.487 116.16 476.287 116.46 476.794 117.06C477.314 117.66 477.574 118.44 477.574 119.4V121.22C477.574 121.673 477.62 122.053 477.714 122.36C477.82 122.653 477.974 122.913 478.174 123.14C478.267 123.233 478.314 123.347 478.314 123.48C478.314 123.613 478.26 123.733 478.154 123.84C478.06 123.933 477.947 123.98 477.814 123.98C477.68 123.98 477.56 123.927 477.454 123.82ZM473.534 123C474.107 123 474.654 122.873 475.174 122.62C475.694 122.353 476.16 121.953 476.574 121.42V120.12C476.08 120.08 475.62 120.06 475.194 120.06C473.927 120.06 473.034 120.32 472.514 120.84C472.354 121 472.24 121.167 472.174 121.34C472.12 121.513 472.094 121.693 472.094 121.88C472.094 122.147 472.207 122.4 472.434 122.64C472.674 122.88 473.04 123 473.534 123ZM480.378 127.48C480.258 127.48 480.138 127.433 480.018 127.34C479.911 127.247 479.858 127.133 479.858 127C479.858 126.8 479.944 126.647 480.118 126.54C480.678 126.22 481.218 125.833 481.738 125.38C482.258 124.94 482.764 124.32 483.258 123.52C482.751 122.72 482.211 121.793 481.638 120.74C481.078 119.687 480.584 118.593 480.158 117.46C480.051 117.153 479.978 116.953 479.938 116.86C479.911 116.753 479.898 116.673 479.898 116.62C479.898 116.513 479.944 116.407 480.038 116.3C480.131 116.193 480.244 116.14 480.378 116.14C480.484 116.14 480.584 116.173 480.678 116.24C480.771 116.293 480.838 116.373 480.878 116.48C481.344 117.773 481.838 118.92 482.358 119.92C482.878 120.92 483.364 121.793 483.818 122.54C484.138 121.967 484.451 121.34 484.758 120.66C485.078 119.98 485.371 119.287 485.638 118.58C485.918 117.86 486.151 117.173 486.338 116.52C486.404 116.28 486.564 116.16 486.818 116.16C486.964 116.16 487.084 116.213 487.178 116.32C487.271 116.413 487.318 116.527 487.318 116.66C487.318 116.7 487.291 116.8 487.238 116.96C487.198 117.12 487.158 117.26 487.118 117.38C486.931 117.967 486.684 118.64 486.378 119.4C486.071 120.147 485.738 120.907 485.378 121.68C485.031 122.44 484.678 123.127 484.318 123.74C483.731 124.74 483.131 125.507 482.518 126.04C481.904 126.573 481.264 127.033 480.598 127.42C480.544 127.46 480.471 127.48 480.378 127.48ZM508.143 124.04C508.023 124.04 507.917 124 507.823 123.92C507.73 123.84 507.67 123.733 507.643 123.6C507.55 122.84 507.43 121.98 507.283 121.02C507.137 120.06 506.977 119.067 506.803 118.04C506.63 117.013 506.45 116.02 506.263 115.06C505.823 115.953 505.37 116.887 504.903 117.86C504.45 118.82 504.017 119.767 503.603 120.7C503.19 121.633 502.817 122.507 502.483 123.32C502.39 123.547 502.243 123.66 502.043 123.66C501.803 123.66 501.643 123.567 501.563 123.38C501.177 122.553 500.75 121.66 500.283 120.7C499.817 119.727 499.35 118.753 498.883 117.78C498.43 116.807 498.003 115.907 497.603 115.08C497.497 115.787 497.383 116.533 497.263 117.32C497.157 118.107 497.05 118.887 496.943 119.66C496.85 120.433 496.757 121.16 496.663 121.84C496.583 122.52 496.517 123.107 496.463 123.6C496.45 123.72 496.39 123.827 496.283 123.92C496.19 124 496.077 124.04 495.943 124.04C495.81 124.04 495.697 123.993 495.603 123.9C495.51 123.793 495.463 123.667 495.463 123.52C495.463 123.493 495.483 123.3 495.523 122.94C495.577 122.5 495.65 121.9 495.743 121.14C495.837 120.38 495.943 119.553 496.063 118.66C496.183 117.753 496.31 116.853 496.443 115.96C496.577 115.067 496.703 114.26 496.823 113.54C496.85 113.42 496.91 113.32 497.003 113.24C497.11 113.16 497.223 113.12 497.343 113.12C497.503 113.12 497.623 113.173 497.703 113.28C497.837 113.413 497.943 113.573 498.023 113.76C498.397 114.507 498.803 115.347 499.243 116.28C499.697 117.2 500.163 118.147 500.643 119.12C501.123 120.093 501.577 121.027 502.003 121.92C502.39 121.04 502.803 120.107 503.243 119.12C503.697 118.12 504.157 117.127 504.623 116.14C505.103 115.14 505.57 114.213 506.023 113.36C506.13 113.187 506.283 113.1 506.483 113.1C506.603 113.1 506.717 113.14 506.823 113.22C506.93 113.287 506.99 113.38 507.003 113.5C507.163 114.287 507.317 115.127 507.463 116.02C507.623 116.9 507.77 117.747 507.903 118.56C508.037 119.373 508.143 120.087 508.223 120.7C508.317 121.3 508.383 121.713 508.423 121.94C508.53 122.593 508.59 123.013 508.603 123.2C508.63 123.387 508.643 123.5 508.643 123.54C508.643 123.673 508.597 123.793 508.503 123.9C508.41 123.993 508.29 124.04 508.143 124.04ZM512.57 112.06C512.796 112.06 512.99 112.153 513.15 112.34C513.31 112.513 513.39 112.753 513.39 113.06C513.39 113.367 513.31 113.6 513.15 113.76C512.99 113.92 512.803 114 512.59 114C512.35 114 512.143 113.92 511.97 113.76C511.81 113.587 511.73 113.353 511.73 113.06C511.73 112.753 511.81 112.513 511.97 112.34C512.13 112.153 512.33 112.06 512.57 112.06ZM512.09 116.66C512.09 116.513 512.136 116.393 512.23 116.3C512.336 116.207 512.456 116.16 512.59 116.16C512.736 116.16 512.856 116.207 512.95 116.3C513.043 116.393 513.09 116.513 513.09 116.66V123.5C513.09 123.633 513.043 123.753 512.95 123.86C512.856 123.953 512.736 124 512.59 124C512.456 124 512.336 123.953 512.23 123.86C512.136 123.753 512.09 123.633 512.09 123.5V116.66ZM522.858 124C522.725 124 522.605 123.953 522.498 123.86C522.405 123.753 522.358 123.633 522.358 123.5V119.5C522.358 118.673 522.198 118.08 521.878 117.72C521.571 117.347 521.151 117.16 520.618 117.16C520.058 117.16 519.525 117.313 519.018 117.62C518.511 117.913 518.045 118.273 517.618 118.7V123.5C517.618 123.633 517.571 123.753 517.478 123.86C517.385 123.953 517.265 124 517.118 124C516.985 124 516.865 123.953 516.758 123.86C516.665 123.753 516.618 123.633 516.618 123.5V116.66C516.618 116.513 516.665 116.393 516.758 116.3C516.865 116.207 516.985 116.16 517.118 116.16C517.265 116.16 517.385 116.207 517.478 116.3C517.571 116.393 517.618 116.513 517.618 116.66V117.38C518.071 117.02 518.545 116.727 519.038 116.5C519.531 116.273 520.058 116.16 520.618 116.16C521.125 116.16 521.585 116.26 521.998 116.46C522.411 116.66 522.738 117.007 522.978 117.5C523.231 117.98 523.358 118.647 523.358 119.5V123.5C523.358 123.633 523.311 123.753 523.218 123.86C523.125 123.953 523.005 124 522.858 124ZM527.359 116.54C527.626 116.54 527.846 116.647 528.019 116.86C528.193 117.06 528.279 117.313 528.279 117.62C528.279 117.993 528.193 118.267 528.019 118.44C527.859 118.613 527.646 118.7 527.379 118.7C527.166 118.7 526.959 118.613 526.759 118.44C526.559 118.267 526.459 117.993 526.459 117.62C526.459 117.3 526.539 117.04 526.699 116.84C526.859 116.64 527.079 116.54 527.359 116.54ZM527.359 121.94C527.626 121.94 527.846 122.047 528.019 122.26C528.193 122.46 528.279 122.713 528.279 123.02C528.279 123.393 528.193 123.667 528.019 123.84C527.859 124.013 527.646 124.1 527.379 124.1C527.166 124.1 526.959 124.013 526.759 123.84C526.559 123.667 526.459 123.393 526.459 123.02C526.459 122.7 526.539 122.44 526.699 122.24C526.859 122.04 527.079 121.94 527.359 121.94Z" fill="#E7E7E7"/>
<path d="M610.28 124.04C610.16 124.04 610.053 124 609.96 123.92C609.867 123.84 609.807 123.733 609.78 123.6C609.687 122.84 609.567 121.98 609.42 121.02C609.273 120.06 609.113 119.067 608.94 118.04C608.767 117.013 608.587 116.02 608.4 115.06C607.96 115.953 607.507 116.887 607.04 117.86C606.587 118.82 606.153 119.767 605.74 120.7C605.327 121.633 604.953 122.507 604.62 123.32C604.527 123.547 604.38 123.66 604.18 123.66C603.94 123.66 603.78 123.567 603.7 123.38C603.313 122.553 602.887 121.66 602.42 120.7C601.953 119.727 601.487 118.753 601.02 117.78C600.567 116.807 600.14 115.907 599.74 115.08C599.633 115.787 599.52 116.533 599.4 117.32C599.293 118.107 599.187 118.887 599.08 119.66C598.987 120.433 598.893 121.16 598.8 121.84C598.72 122.52 598.653 123.107 598.6 123.6C598.587 123.72 598.527 123.827 598.42 123.92C598.327 124 598.213 124.04 598.08 124.04C597.947 124.04 597.833 123.993 597.74 123.9C597.647 123.793 597.6 123.667 597.6 123.52C597.6 123.493 597.62 123.3 597.66 122.94C597.713 122.5 597.787 121.9 597.88 121.14C597.973 120.38 598.08 119.553 598.2 118.66C598.32 117.753 598.447 116.853 598.58 115.96C598.713 115.067 598.84 114.26 598.96 113.54C598.987 113.42 599.047 113.32 599.14 113.24C599.247 113.16 599.36 113.12 599.48 113.12C599.64 113.12 599.76 113.173 599.84 113.28C599.973 113.413 600.08 113.573 600.16 113.76C600.533 114.507 600.94 115.347 601.38 116.28C601.833 117.2 602.3 118.147 602.78 119.12C603.26 120.093 603.713 121.027 604.14 121.92C604.527 121.04 604.94 120.107 605.38 119.12C605.833 118.12 606.293 117.127 606.76 116.14C607.24 115.14 607.707 114.213 608.16 113.36C608.267 113.187 608.42 113.1 608.62 113.1C608.74 113.1 608.853 113.14 608.96 113.22C609.067 113.287 609.127 113.38 609.14 113.5C609.3 114.287 609.453 115.127 609.6 116.02C609.76 116.9 609.907 117.747 610.04 118.56C610.173 119.373 610.28 120.087 610.36 120.7C610.453 121.3 610.52 121.713 610.56 121.94C610.667 122.593 610.727 123.013 610.74 123.2C610.767 123.387 610.78 123.5 610.78 123.54C610.78 123.673 610.733 123.793 610.64 123.9C610.547 123.993 610.427 124.04 610.28 124.04ZM619.669 123.82C619.375 123.513 619.149 123.127 618.989 122.66C618.535 123.087 618.035 123.42 617.489 123.66C616.955 123.887 616.375 124 615.749 124C615.135 124 614.649 123.887 614.289 123.66C613.929 123.433 613.675 123.153 613.529 122.82C613.382 122.487 613.309 122.173 613.309 121.88C613.309 121.56 613.362 121.253 613.469 120.96C613.589 120.653 613.769 120.387 614.009 120.16C614.342 119.853 614.789 119.593 615.349 119.38C615.909 119.167 616.595 119.06 617.409 119.06C617.835 119.06 618.289 119.08 618.769 119.12C618.715 118.52 618.515 118.047 618.169 117.7C617.822 117.34 617.302 117.16 616.609 117.16C616.342 117.16 616.069 117.187 615.789 117.24C615.509 117.28 615.295 117.327 615.149 117.38C614.975 117.447 614.849 117.48 614.769 117.48C614.635 117.48 614.515 117.433 614.409 117.34C614.302 117.233 614.249 117.12 614.249 117C614.249 116.747 614.362 116.58 614.589 116.5C614.815 116.433 615.115 116.36 615.489 116.28C615.875 116.2 616.249 116.16 616.609 116.16C617.702 116.16 618.502 116.46 619.009 117.06C619.529 117.66 619.789 118.44 619.789 119.4V121.22C619.789 121.673 619.835 122.053 619.929 122.36C620.035 122.653 620.189 122.913 620.389 123.14C620.482 123.233 620.529 123.347 620.529 123.48C620.529 123.613 620.475 123.733 620.369 123.84C620.275 123.933 620.162 123.98 620.029 123.98C619.895 123.98 619.775 123.927 619.669 123.82ZM615.749 123C616.322 123 616.869 122.873 617.389 122.62C617.909 122.353 618.375 121.953 618.789 121.42V120.12C618.295 120.08 617.835 120.06 617.409 120.06C616.142 120.06 615.249 120.32 614.729 120.84C614.569 121 614.455 121.167 614.389 121.34C614.335 121.513 614.309 121.693 614.309 121.88C614.309 122.147 614.422 122.4 614.649 122.64C614.889 122.88 615.255 123 615.749 123ZM628.993 124C628.846 124 628.719 123.94 628.613 123.82C628.199 123.353 627.746 122.853 627.253 122.32C626.773 121.773 626.279 121.227 625.773 120.68C625.213 121.293 624.679 121.88 624.173 122.44C623.679 123 623.273 123.46 622.953 123.82C622.859 123.94 622.733 124 622.573 124C622.439 124 622.319 123.953 622.213 123.86C622.119 123.753 622.073 123.633 622.073 123.5C622.073 123.367 622.113 123.26 622.193 123.18C622.513 122.807 622.933 122.333 623.453 121.76C623.973 121.187 624.519 120.58 625.093 119.94C624.599 119.393 624.119 118.867 623.653 118.36C623.199 117.853 622.799 117.393 622.453 116.98C622.373 116.9 622.333 116.8 622.333 116.68C622.333 116.533 622.379 116.413 622.473 116.32C622.579 116.213 622.693 116.16 622.813 116.16C622.986 116.16 623.119 116.22 623.213 116.34C623.559 116.74 623.946 117.187 624.373 117.68C624.813 118.16 625.279 118.667 625.773 119.2C626.239 118.68 626.679 118.173 627.093 117.68C627.519 117.187 627.886 116.74 628.193 116.34C628.299 116.22 628.433 116.16 628.593 116.16C628.739 116.16 628.859 116.213 628.953 116.32C629.046 116.427 629.093 116.54 629.093 116.66C629.093 116.793 629.059 116.9 628.993 116.98C628.673 117.393 628.286 117.853 627.833 118.36C627.379 118.867 626.913 119.393 626.433 119.94C626.966 120.513 627.486 121.08 627.993 121.64C628.499 122.187 628.959 122.7 629.373 123.18C629.453 123.26 629.493 123.367 629.493 123.5C629.493 123.62 629.446 123.733 629.353 123.84C629.259 123.947 629.139 124 628.993 124ZM632.953 116.54C633.22 116.54 633.44 116.647 633.613 116.86C633.786 117.06 633.873 117.313 633.873 117.62C633.873 117.993 633.786 118.267 633.613 118.44C633.453 118.613 633.24 118.7 632.973 118.7C632.76 118.7 632.553 118.613 632.353 118.44C632.153 118.267 632.053 117.993 632.053 117.62C632.053 117.3 632.133 117.04 632.293 116.84C632.453 116.64 632.673 116.54 632.953 116.54ZM632.953 121.94C633.22 121.94 633.44 122.047 633.613 122.26C633.786 122.46 633.873 122.713 633.873 123.02C633.873 123.393 633.786 123.667 633.613 123.84C633.453 124.013 633.24 124.1 632.973 124.1C632.76 124.1 632.553 124.013 632.353 123.84C632.153 123.667 632.053 123.393 632.053 123.02C632.053 122.7 632.133 122.44 632.293 122.24C632.453 122.04 632.673 121.94 632.953 121.94Z" fill="#E7E7E7"/>
<rect x="359" y="102" width="68" height="32" rx="16" fill="#202020"/>
<circle cx="411.258" cy="118.158" r="9" fill="#202020" stroke="#2B2B2B" stroke-width="6"/>
<path d="M418.953 104.758C416.6 103.4 413.933 102.683 411.217 102.679C408.501 102.675 405.831 103.384 403.475 104.736L405.226 107.789C407.048 106.744 409.112 106.196 411.212 106.199C413.312 106.202 415.374 106.756 417.193 107.806L418.953 104.758Z" fill="#FF9E5A" fill-opacity="0.4"/>
<path d="M411.149 106.013L411.149 112.013" stroke="#E7E7E7" stroke-width="2" stroke-linecap="round"/>
<path d="M366.827 124C366.694 124 366.574 123.953 366.467 123.86C366.374 123.753 366.327 123.633 366.327 123.5V113.8C366.327 113.653 366.374 113.533 366.467 113.44C366.574 113.347 366.694 113.3 366.827 113.3H369.687C370.474 113.3 371.161 113.46 371.747 113.78C372.334 114.087 372.787 114.507 373.107 115.04C373.441 115.573 373.607 116.187 373.607 116.88C373.607 117.52 373.461 118.113 373.167 118.66C372.887 119.207 372.454 119.647 371.867 119.98C371.294 120.313 370.567 120.48 369.687 120.48H367.327V123.5C367.327 123.633 367.281 123.753 367.187 123.86C367.094 123.953 366.974 124 366.827 124ZM367.327 114.3V119.48H369.687C370.634 119.48 371.354 119.233 371.847 118.74C372.354 118.233 372.607 117.613 372.607 116.88C372.607 116.107 372.334 115.487 371.787 115.02C371.241 114.54 370.541 114.3 369.687 114.3H367.327ZM381.415 123.82C381.121 123.513 380.895 123.127 380.735 122.66C380.281 123.087 379.781 123.42 379.235 123.66C378.701 123.887 378.121 124 377.495 124C376.881 124 376.395 123.887 376.035 123.66C375.675 123.433 375.421 123.153 375.275 122.82C375.128 122.487 375.055 122.173 375.055 121.88C375.055 121.56 375.108 121.253 375.215 120.96C375.335 120.653 375.515 120.387 375.755 120.16C376.088 119.853 376.535 119.593 377.095 119.38C377.655 119.167 378.341 119.06 379.155 119.06C379.581 119.06 380.035 119.08 380.515 119.12C380.461 118.52 380.261 118.047 379.915 117.7C379.568 117.34 379.048 117.16 378.355 117.16C378.088 117.16 377.815 117.187 377.535 117.24C377.255 117.28 377.041 117.327 376.895 117.38C376.721 117.447 376.595 117.48 376.515 117.48C376.381 117.48 376.261 117.433 376.155 117.34C376.048 117.233 375.995 117.12 375.995 117C375.995 116.747 376.108 116.58 376.335 116.5C376.561 116.433 376.861 116.36 377.235 116.28C377.621 116.2 377.995 116.16 378.355 116.16C379.448 116.16 380.248 116.46 380.755 117.06C381.275 117.66 381.535 118.44 381.535 119.4V121.22C381.535 121.673 381.581 122.053 381.675 122.36C381.781 122.653 381.935 122.913 382.135 123.14C382.228 123.233 382.275 123.347 382.275 123.48C382.275 123.613 382.221 123.733 382.115 123.84C382.021 123.933 381.908 123.98 381.775 123.98C381.641 123.98 381.521 123.927 381.415 123.82ZM377.495 123C378.068 123 378.615 122.873 379.135 122.62C379.655 122.353 380.121 121.953 380.535 121.42V120.12C380.041 120.08 379.581 120.06 379.155 120.06C377.888 120.06 376.995 120.32 376.475 120.84C376.315 121 376.201 121.167 376.135 121.34C376.081 121.513 376.055 121.693 376.055 121.88C376.055 122.147 376.168 122.4 376.395 122.64C376.635 122.88 377.001 123 377.495 123ZM390.999 124C390.865 124 390.745 123.953 390.639 123.86C390.545 123.753 390.499 123.633 390.499 123.5V119.5C390.499 118.673 390.339 118.08 390.019 117.72C389.712 117.347 389.292 117.16 388.759 117.16C388.199 117.16 387.665 117.313 387.159 117.62C386.652 117.913 386.185 118.273 385.759 118.7V123.5C385.759 123.633 385.712 123.753 385.619 123.86C385.525 123.953 385.405 124 385.259 124C385.125 124 385.005 123.953 384.899 123.86C384.805 123.753 384.759 123.633 384.759 123.5V116.66C384.759 116.513 384.805 116.393 384.899 116.3C385.005 116.207 385.125 116.16 385.259 116.16C385.405 116.16 385.525 116.207 385.619 116.3C385.712 116.393 385.759 116.513 385.759 116.66V117.38C386.212 117.02 386.685 116.727 387.179 116.5C387.672 116.273 388.199 116.16 388.759 116.16C389.265 116.16 389.725 116.26 390.139 116.46C390.552 116.66 390.879 117.007 391.119 117.5C391.372 117.98 391.499 118.647 391.499 119.5V123.5C391.499 123.633 391.452 123.753 391.359 123.86C391.265 123.953 391.145 124 390.999 124Z" fill="#E7E7E7"/>
<rect x="710" y="103" width="116" height="32" rx="16" fill="#202020"/>
<path d="M725.4 115.62C725.08 115.487 724.727 115.38 724.34 115.3C723.967 115.22 723.473 115.18 722.86 115.18C722.18 115.18 721.64 115.353 721.24 115.7C720.84 116.033 720.64 116.413 720.64 116.84C720.64 117.267 720.827 117.653 721.2 118C721.573 118.347 722.3 118.647 723.38 118.9C724.34 119.113 725.08 119.387 725.6 119.72C726.133 120.053 726.507 120.433 726.72 120.86C726.933 121.273 727.04 121.733 727.04 122.24C727.04 122.733 726.913 123.207 726.66 123.66C726.42 124.1 726.02 124.467 725.46 124.76C724.913 125.04 724.18 125.18 723.26 125.18C721.953 125.18 720.747 124.873 719.64 124.26C719.467 124.153 719.38 124.007 719.38 123.82C719.38 123.7 719.427 123.587 719.52 123.48C719.613 123.373 719.733 123.32 719.88 123.32C719.96 123.32 720.04 123.34 720.12 123.38C721.067 123.913 722.113 124.18 723.26 124.18C724.167 124.18 724.853 123.993 725.32 123.62C725.8 123.233 726.04 122.773 726.04 122.24C726.04 121.68 725.813 121.213 725.36 120.84C724.92 120.467 724.193 120.153 723.18 119.9C722.233 119.66 721.5 119.387 720.98 119.08C720.473 118.773 720.12 118.427 719.92 118.04C719.733 117.653 719.64 117.227 719.64 116.76C719.64 116.333 719.76 115.927 720 115.54C720.253 115.14 720.62 114.813 721.1 114.56C721.58 114.307 722.167 114.18 722.86 114.18C723.593 114.18 724.18 114.24 724.62 114.36C725.073 114.467 725.547 114.62 726.04 114.82C726.253 114.9 726.36 115.053 726.36 115.28C726.36 115.413 726.307 115.533 726.2 115.64C726.107 115.733 725.993 115.78 725.86 115.78C725.833 115.78 725.793 115.773 725.74 115.76C725.687 115.733 725.573 115.687 725.4 115.62ZM731.013 128.32C731.013 128.453 730.966 128.567 730.873 128.66C730.779 128.767 730.659 128.82 730.513 128.82C730.379 128.82 730.259 128.767 730.153 128.66C730.059 128.567 730.013 128.453 730.013 128.32V117.66C730.013 117.513 730.059 117.393 730.153 117.3C730.259 117.207 730.379 117.16 730.513 117.16C730.659 117.16 730.779 117.207 730.873 117.3C730.966 117.393 731.013 117.513 731.013 117.66V118.46C731.439 118.047 731.886 117.727 732.353 117.5C732.833 117.273 733.333 117.16 733.853 117.16C734.479 117.16 735.059 117.307 735.593 117.6C736.139 117.893 736.579 118.333 736.913 118.92C737.246 119.493 737.413 120.213 737.413 121.08C737.413 121.827 737.253 122.5 736.933 123.1C736.613 123.687 736.166 124.153 735.593 124.5C735.019 124.833 734.359 125 733.613 125C733.173 125 732.733 124.927 732.293 124.78C731.853 124.633 731.426 124.433 731.013 124.18V128.32ZM733.613 124C734.453 124 735.126 123.72 735.633 123.16C736.153 122.587 736.413 121.893 736.413 121.08C736.413 120.147 736.159 119.427 735.653 118.92C735.146 118.413 734.546 118.16 733.853 118.16C733.293 118.16 732.773 118.327 732.293 118.66C731.826 118.98 731.399 119.407 731.013 119.94V122.98C731.399 123.273 731.813 123.52 732.253 123.72C732.706 123.907 733.159 124 733.613 124ZM745.536 124.82C745.242 124.513 745.016 124.127 744.856 123.66C744.402 124.087 743.902 124.42 743.356 124.66C742.822 124.887 742.242 125 741.616 125C741.002 125 740.516 124.887 740.156 124.66C739.796 124.433 739.542 124.153 739.396 123.82C739.249 123.487 739.176 123.173 739.176 122.88C739.176 122.56 739.229 122.253 739.336 121.96C739.456 121.653 739.636 121.387 739.876 121.16C740.209 120.853 740.656 120.593 741.216 120.38C741.776 120.167 742.462 120.06 743.276 120.06C743.702 120.06 744.156 120.08 744.636 120.12C744.582 119.52 744.382 119.047 744.036 118.7C743.689 118.34 743.169 118.16 742.476 118.16C742.209 118.16 741.936 118.187 741.656 118.24C741.376 118.28 741.162 118.327 741.016 118.38C740.842 118.447 740.716 118.48 740.636 118.48C740.502 118.48 740.382 118.433 740.276 118.34C740.169 118.233 740.116 118.12 740.116 118C740.116 117.747 740.229 117.58 740.456 117.5C740.682 117.433 740.982 117.36 741.356 117.28C741.742 117.2 742.116 117.16 742.476 117.16C743.569 117.16 744.369 117.46 744.876 118.06C745.396 118.66 745.656 119.44 745.656 120.4V122.22C745.656 122.673 745.702 123.053 745.796 123.36C745.902 123.653 746.056 123.913 746.256 124.14C746.349 124.233 746.396 124.347 746.396 124.48C746.396 124.613 746.342 124.733 746.236 124.84C746.142 124.933 746.029 124.98 745.896 124.98C745.762 124.98 745.642 124.927 745.536 124.82ZM741.616 124C742.189 124 742.736 123.873 743.256 123.62C743.776 123.353 744.242 122.953 744.656 122.42V121.12C744.162 121.08 743.702 121.06 743.276 121.06C742.009 121.06 741.116 121.32 740.596 121.84C740.436 122 740.322 122.167 740.256 122.34C740.202 122.513 740.176 122.693 740.176 122.88C740.176 123.147 740.289 123.4 740.516 123.64C740.756 123.88 741.122 124 741.616 124ZM752.76 125C751.533 125 750.66 124.747 750.14 124.24C749.62 123.72 749.36 123.027 749.36 122.16V118.16H748.1C747.966 118.16 747.846 118.113 747.74 118.02C747.646 117.913 747.6 117.793 747.6 117.66C747.6 117.513 747.646 117.393 747.74 117.3C747.846 117.207 747.966 117.16 748.1 117.16H749.36V115.14C749.36 114.993 749.406 114.873 749.5 114.78C749.606 114.687 749.726 114.64 749.86 114.64C750.006 114.64 750.126 114.687 750.22 114.78C750.313 114.873 750.36 114.993 750.36 115.14V117.16H753.02C753.166 117.16 753.286 117.207 753.38 117.3C753.473 117.393 753.52 117.513 753.52 117.66C753.52 117.793 753.473 117.913 753.38 118.02C753.286 118.113 753.166 118.16 753.02 118.16H750.36V122.16C750.36 123.387 751.16 124 752.76 124C752.906 124 753.026 124.053 753.12 124.16C753.213 124.253 753.26 124.367 753.26 124.5C753.26 124.633 753.206 124.753 753.1 124.86C753.006 124.953 752.893 125 752.76 125ZM756.55 113.06C756.777 113.06 756.97 113.153 757.13 113.34C757.29 113.513 757.37 113.753 757.37 114.06C757.37 114.367 757.29 114.6 757.13 114.76C756.97 114.92 756.783 115 756.57 115C756.33 115 756.123 114.92 755.95 114.76C755.79 114.587 755.71 114.353 755.71 114.06C755.71 113.753 755.79 113.513 755.95 113.34C756.11 113.153 756.31 113.06 756.55 113.06ZM756.07 117.66C756.07 117.513 756.117 117.393 756.21 117.3C756.317 117.207 756.437 117.16 756.57 117.16C756.717 117.16 756.837 117.207 756.93 117.3C757.023 117.393 757.07 117.513 757.07 117.66V124.5C757.07 124.633 757.023 124.753 756.93 124.86C756.837 124.953 756.717 125 756.57 125C756.437 125 756.317 124.953 756.21 124.86C756.117 124.753 756.07 124.633 756.07 124.5V117.66ZM766.258 124.82C765.965 124.513 765.738 124.127 765.578 123.66C765.125 124.087 764.625 124.42 764.078 124.66C763.545 124.887 762.965 125 762.338 125C761.725 125 761.238 124.887 760.878 124.66C760.518 124.433 760.265 124.153 760.118 123.82C759.972 123.487 759.898 123.173 759.898 122.88C759.898 122.56 759.952 122.253 760.058 121.96C760.178 121.653 760.358 121.387 760.598 121.16C760.932 120.853 761.378 120.593 761.938 120.38C762.498 120.167 763.185 120.06 763.998 120.06C764.425 120.06 764.878 120.08 765.358 120.12C765.305 119.52 765.105 119.047 764.758 118.7C764.412 118.34 763.892 118.16 763.198 118.16C762.932 118.16 762.658 118.187 762.378 118.24C762.098 118.28 761.885 118.327 761.738 118.38C761.565 118.447 761.438 118.48 761.358 118.48C761.225 118.48 761.105 118.433 760.998 118.34C760.892 118.233 760.838 118.12 760.838 118C760.838 117.747 760.952 117.58 761.178 117.5C761.405 117.433 761.705 117.36 762.078 117.28C762.465 117.2 762.838 117.16 763.198 117.16C764.292 117.16 765.092 117.46 765.598 118.06C766.118 118.66 766.378 119.44 766.378 120.4V122.22C766.378 122.673 766.425 123.053 766.518 123.36C766.625 123.653 766.778 123.913 766.978 124.14C767.072 124.233 767.118 124.347 767.118 124.48C767.118 124.613 767.065 124.733 766.958 124.84C766.865 124.933 766.752 124.98 766.618 124.98C766.485 124.98 766.365 124.927 766.258 124.82ZM762.338 124C762.912 124 763.458 123.873 763.978 123.62C764.498 123.353 764.965 122.953 765.378 122.42V121.12C764.885 121.08 764.425 121.06 763.998 121.06C762.732 121.06 761.838 121.32 761.318 121.84C761.158 122 761.045 122.167 760.978 122.34C760.925 122.513 760.898 122.693 760.898 122.88C760.898 123.147 761.012 123.4 761.238 123.64C761.478 123.88 761.845 124 762.338 124ZM769.722 114.28C769.722 114.133 769.769 114.013 769.862 113.92C769.969 113.827 770.089 113.78 770.222 113.78C770.369 113.78 770.489 113.827 770.582 113.92C770.676 114.013 770.722 114.133 770.722 114.28V124.5C770.722 124.633 770.676 124.753 770.582 124.86C770.489 124.953 770.369 125 770.222 125C770.089 125 769.969 124.953 769.862 124.86C769.769 124.753 769.722 124.633 769.722 124.5V114.28ZM774.851 113.06C775.077 113.06 775.271 113.153 775.431 113.34C775.591 113.513 775.671 113.753 775.671 114.06C775.671 114.367 775.591 114.6 775.431 114.76C775.271 114.92 775.084 115 774.871 115C774.631 115 774.424 114.92 774.251 114.76C774.091 114.587 774.011 114.353 774.011 114.06C774.011 113.753 774.091 113.513 774.251 113.34C774.411 113.153 774.611 113.06 774.851 113.06ZM774.371 117.66C774.371 117.513 774.417 117.393 774.511 117.3C774.617 117.207 774.737 117.16 774.871 117.16C775.017 117.16 775.137 117.207 775.231 117.3C775.324 117.393 775.371 117.513 775.371 117.66V124.5C775.371 124.633 775.324 124.753 775.231 124.86C775.137 124.953 775.017 125 774.871 125C774.737 125 774.617 124.953 774.511 124.86C774.417 124.753 774.371 124.633 774.371 124.5V117.66ZM783.499 118.32C783.366 118.28 783.133 118.233 782.799 118.18C782.479 118.127 782.126 118.1 781.739 118.1C781.086 118.1 780.579 118.213 780.219 118.44C779.859 118.667 779.679 118.947 779.679 119.28C779.679 119.573 779.826 119.813 780.119 120C780.426 120.173 780.926 120.293 781.619 120.36L782.419 120.44C783.099 120.507 783.633 120.66 784.019 120.9C784.406 121.14 784.679 121.427 784.839 121.76C784.999 122.08 785.079 122.42 785.079 122.78C785.079 123.14 784.986 123.5 784.799 123.86C784.613 124.207 784.286 124.5 783.819 124.74C783.366 124.967 782.713 125.08 781.859 125.08C781.366 125.08 780.859 125.033 780.339 124.94C779.819 124.833 779.326 124.68 778.859 124.48C778.659 124.387 778.559 124.227 778.559 124C778.559 123.88 778.613 123.773 778.719 123.68C778.826 123.573 778.946 123.52 779.079 123.52C779.106 123.52 779.153 123.533 779.219 123.56C779.286 123.587 779.406 123.633 779.579 123.7C779.833 123.793 780.166 123.88 780.579 123.96C780.993 124.04 781.419 124.08 781.859 124.08C782.579 124.08 783.126 123.96 783.499 123.72C783.886 123.467 784.079 123.153 784.079 122.78C784.079 122.433 783.946 122.14 783.679 121.9C783.413 121.647 782.966 121.493 782.339 121.44L781.539 121.36C780.753 121.28 780.153 121.133 779.739 120.92C779.326 120.693 779.046 120.433 778.899 120.14C778.753 119.847 778.679 119.553 778.679 119.26C778.679 118.927 778.766 118.6 778.939 118.28C779.126 117.947 779.439 117.667 779.879 117.44C780.333 117.213 780.953 117.1 781.739 117.1C782.193 117.1 782.613 117.133 782.999 117.2C783.399 117.253 783.753 117.327 784.059 117.42C784.166 117.433 784.253 117.493 784.319 117.6C784.386 117.693 784.419 117.793 784.419 117.9C784.419 118.047 784.366 118.167 784.259 118.26C784.166 118.353 784.053 118.4 783.919 118.4C783.839 118.4 783.699 118.373 783.499 118.32ZM791.443 125C790.163 125 789.13 124.667 788.343 124C787.57 123.333 787.183 122.393 787.183 121.18C787.183 120.367 787.356 119.66 787.703 119.06C788.05 118.46 788.51 117.993 789.083 117.66C789.67 117.327 790.316 117.16 791.023 117.16C791.73 117.16 792.323 117.3 792.803 117.58C793.283 117.86 793.643 118.207 793.883 118.62C794.136 119.033 794.263 119.44 794.263 119.84C794.263 120.32 794.11 120.733 793.803 121.08C793.51 121.427 792.95 121.6 792.123 121.6H788.203C788.31 122.4 788.656 123 789.243 123.4C789.843 123.8 790.576 124 791.443 124C791.776 124 792.076 123.973 792.343 123.92C792.623 123.867 792.836 123.813 792.983 123.76C793.13 123.707 793.223 123.673 793.263 123.66C793.316 123.647 793.356 123.64 793.383 123.64C793.516 123.64 793.63 123.693 793.723 123.8C793.83 123.893 793.883 124.007 793.883 124.14C793.883 124.367 793.776 124.52 793.563 124.6C793.283 124.707 792.956 124.8 792.583 124.88C792.21 124.96 791.83 125 791.443 125ZM791.023 118.16C790.316 118.16 789.703 118.387 789.183 118.84C788.663 119.28 788.343 119.867 788.223 120.6H792.143C792.903 120.6 793.283 120.347 793.283 119.84C793.283 119.427 793.076 119.047 792.663 118.7C792.25 118.34 791.703 118.16 791.023 118.16Z" fill="#E7E7E7"/>
<rect x="801" y="109" width="20" height="20" rx="10" fill="#E7E7E7"/>
<rect x="28" y="102" width="89" height="32" rx="16" fill="#202020"/>
<circle cx="100.258" cy="118.158" r="9" transform="rotate(-60 100.258 118.158)" fill="#202020" stroke="#2B2B2B" stroke-width="6"/>
<path d="M100.195 106.195C98.0941 106.195 96.0302 106.746 94.2095 107.794C92.3888 108.842 90.875 110.349 89.8195 112.165L95.0071 115.18C95.5349 114.272 96.2918 113.518 97.2021 112.994C98.1125 112.471 99.1444 112.195 100.195 112.195L100.195 106.195Z" fill="#FF9E5A"/>
<path d="M92.437 104.758C90.0848 106.116 88.1303 108.068 86.7689 110.418C85.4075 112.768 84.6869 115.435 84.6792 118.151L88.199 118.161C88.2049 116.061 88.762 113.999 89.8146 112.182C90.8671 110.365 92.3783 108.856 94.1969 107.806L92.437 104.758Z" fill="#FF9E5A" fill-opacity="0.4"/>
<path d="M89.6849 112.18L94.881 115.18" stroke="#E7E7E7" stroke-width="2" stroke-linecap="round"/>
<path d="M36.46 124C36.3267 124 36.2067 123.953 36.1 123.86C36.0067 123.753 35.96 123.633 35.96 123.5V113.8C35.96 113.653 36.0067 113.533 36.1 113.44C36.2067 113.347 36.3267 113.3 36.46 113.3H39.32C40.1067 113.3 40.7933 113.46 41.38 113.78C41.9667 114.087 42.42 114.507 42.74 115.04C43.0733 115.573 43.24 116.187 43.24 116.88C43.24 117.52 43.0933 118.113 42.8 118.66C42.52 119.207 42.0867 119.647 41.5 119.98C40.9267 120.313 40.2 120.48 39.32 120.48H36.96V123.5C36.96 123.633 36.9133 123.753 36.82 123.86C36.7267 123.953 36.6067 124 36.46 124ZM36.96 114.3V119.48H39.32C40.2667 119.48 40.9867 119.233 41.48 118.74C41.9867 118.233 42.24 117.613 42.24 116.88C42.24 116.107 41.9667 115.487 41.42 115.02C40.8733 114.54 40.1733 114.3 39.32 114.3H36.96ZM46.3976 112.06C46.6243 112.06 46.8176 112.153 46.9776 112.34C47.1376 112.513 47.2176 112.753 47.2176 113.06C47.2176 113.367 47.1376 113.6 46.9776 113.76C46.8176 113.92 46.631 114 46.4176 114C46.1776 114 45.971 113.92 45.7976 113.76C45.6376 113.587 45.5576 113.353 45.5576 113.06C45.5576 112.753 45.6376 112.513 45.7976 112.34C45.9576 112.153 46.1576 112.06 46.3976 112.06ZM45.9176 116.66C45.9176 116.513 45.9643 116.393 46.0576 116.3C46.1643 116.207 46.2843 116.16 46.4176 116.16C46.5643 116.16 46.6843 116.207 46.7776 116.3C46.871 116.393 46.9176 116.513 46.9176 116.66V123.5C46.9176 123.633 46.871 123.753 46.7776 123.86C46.6843 123.953 46.5643 124 46.4176 124C46.2843 124 46.1643 123.953 46.0576 123.86C45.9643 123.753 45.9176 123.633 45.9176 123.5V116.66ZM54.3261 124C53.0994 124 52.2261 123.747 51.7061 123.24C51.1861 122.72 50.9261 122.027 50.9261 121.16V117.16H49.6661C49.5328 117.16 49.4128 117.113 49.3061 117.02C49.2128 116.913 49.1661 116.793 49.1661 116.66C49.1661 116.513 49.2128 116.393 49.3061 116.3C49.4128 116.207 49.5328 116.16 49.6661 116.16H50.9261V114.14C50.9261 113.993 50.9728 113.873 51.0661 113.78C51.1728 113.687 51.2928 113.64 51.4261 113.64C51.5728 113.64 51.6928 113.687 51.7861 113.78C51.8794 113.873 51.9261 113.993 51.9261 114.14V116.16H54.5861C54.7328 116.16 54.8528 116.207 54.9461 116.3C55.0394 116.393 55.0861 116.513 55.0861 116.66C55.0861 116.793 55.0394 116.913 54.9461 117.02C54.8528 117.113 54.7328 117.16 54.5861 117.16H51.9261V121.16C51.9261 122.387 52.7261 123 54.3261 123C54.4728 123 54.5928 123.053 54.6861 123.16C54.7794 123.253 54.8261 123.367 54.8261 123.5C54.8261 123.633 54.7728 123.753 54.6661 123.86C54.5728 123.953 54.4594 124 54.3261 124ZM62.2211 117.38C61.7411 117.233 61.2744 117.16 60.8211 117.16C59.8078 117.16 59.0144 117.453 58.4411 118.04C57.8811 118.613 57.6011 119.353 57.6011 120.26C57.6011 121.047 57.8811 121.7 58.4411 122.22C59.0011 122.74 59.7878 123 60.8011 123C61.1744 123 61.5011 122.973 61.7811 122.92C62.0611 122.853 62.2811 122.793 62.4411 122.74C62.5878 122.687 62.6811 122.653 62.7211 122.64C62.7744 122.627 62.8144 122.62 62.8411 122.62C62.9744 122.62 63.0878 122.673 63.1811 122.78C63.2878 122.873 63.3411 122.987 63.3411 123.12C63.3411 123.347 63.2344 123.5 63.0211 123.58C62.7278 123.7 62.3944 123.8 62.0211 123.88C61.6611 123.96 61.2544 124 60.8011 124C59.8944 124 59.1278 123.833 58.5011 123.5C57.8744 123.153 57.4011 122.7 57.0811 122.14C56.7611 121.567 56.6011 120.94 56.6011 120.26C56.6011 119.473 56.7678 118.773 57.1011 118.16C57.4344 117.533 57.9144 117.047 58.5411 116.7C59.1678 116.34 59.9278 116.16 60.8211 116.16C61.5011 116.16 62.1478 116.267 62.7611 116.48C62.9878 116.56 63.1011 116.727 63.1011 116.98C63.1011 117.1 63.0478 117.213 62.9411 117.32C62.8344 117.413 62.7144 117.46 62.5811 117.46C62.5411 117.46 62.4211 117.433 62.2211 117.38ZM72.272 124C72.1387 124 72.0187 123.953 71.912 123.86C71.8187 123.753 71.772 123.633 71.772 123.5V119.5C71.772 118.673 71.612 118.08 71.292 117.72C70.9854 117.347 70.5654 117.16 70.032 117.16C69.472 117.16 68.9387 117.313 68.432 117.62C67.9254 117.913 67.4587 118.273 67.032 118.7V123.5C67.032 123.633 66.9854 123.753 66.892 123.86C66.7987 123.953 66.6787 124 66.532 124C66.3987 124 66.2787 123.953 66.172 123.86C66.0787 123.753 66.032 123.633 66.032 123.5V113.28C66.032 113.133 66.0787 113.013 66.172 112.92C66.2787 112.827 66.3987 112.78 66.532 112.78C66.6787 112.78 66.7987 112.827 66.892 112.92C66.9854 113.013 67.032 113.133 67.032 113.28V117.38C67.4854 117.033 67.9587 116.747 68.452 116.52C68.9454 116.28 69.472 116.16 70.032 116.16C70.5387 116.16 70.9987 116.26 71.412 116.46C71.8254 116.66 72.152 117.007 72.392 117.5C72.6454 117.98 72.772 118.647 72.772 119.5V123.5C72.772 123.633 72.7254 123.753 72.632 123.86C72.5387 123.953 72.4187 124 72.272 124Z" fill="#E7E7E7"/>
<rect x="127" y="102" width="98" height="32" rx="16" fill="#202020"/>
<circle cx="208" cy="118" r="9" transform="rotate(-135 208 118)" fill="#202020" stroke="#2B2B2B" stroke-width="4"/>
<path d="M208 129C205.083 129 202.285 127.841 200.222 125.778L203.052 122.948C204.365 124.26 206.144 124.998 208 124.998L208 129Z" fill="#FF9E5A"/>
<path d="M200.222 125.778L203.051 122.95" stroke="#E7E7E7" stroke-width="2" stroke-linecap="round"/>
<path d="M138.019 124C137.885 124 137.765 123.953 137.659 123.86C137.565 123.753 137.519 123.633 137.519 123.5V113.8C137.519 113.653 137.565 113.533 137.659 113.44C137.765 113.347 137.885 113.3 138.019 113.3H143.719C143.865 113.3 143.985 113.347 144.079 113.44C144.172 113.533 144.219 113.653 144.219 113.8C144.219 113.933 144.172 114.053 144.079 114.16C143.985 114.253 143.865 114.3 143.719 114.3H138.519V118.16H142.699C142.845 118.16 142.965 118.207 143.059 118.3C143.152 118.393 143.199 118.513 143.199 118.66C143.199 118.793 143.152 118.913 143.059 119.02C142.965 119.113 142.845 119.16 142.699 119.16H138.519V123.5C138.519 123.633 138.472 123.753 138.379 123.86C138.285 123.953 138.165 124 138.019 124ZM151.708 123.82C151.414 123.513 151.188 123.127 151.028 122.66C150.574 123.087 150.074 123.42 149.528 123.66C148.994 123.887 148.414 124 147.788 124C147.174 124 146.688 123.887 146.328 123.66C145.968 123.433 145.714 123.153 145.568 122.82C145.421 122.487 145.348 122.173 145.348 121.88C145.348 121.56 145.401 121.253 145.508 120.96C145.628 120.653 145.808 120.387 146.048 120.16C146.381 119.853 146.828 119.593 147.388 119.38C147.948 119.167 148.634 119.06 149.448 119.06C149.874 119.06 150.328 119.08 150.808 119.12C150.754 118.52 150.554 118.047 150.208 117.7C149.861 117.34 149.341 117.16 148.648 117.16C148.381 117.16 148.108 117.187 147.828 117.24C147.548 117.28 147.334 117.327 147.188 117.38C147.014 117.447 146.888 117.48 146.808 117.48C146.674 117.48 146.554 117.433 146.448 117.34C146.341 117.233 146.288 117.12 146.288 117C146.288 116.747 146.401 116.58 146.628 116.5C146.854 116.433 147.154 116.36 147.528 116.28C147.914 116.2 148.288 116.16 148.648 116.16C149.741 116.16 150.541 116.46 151.048 117.06C151.568 117.66 151.828 118.44 151.828 119.4V121.22C151.828 121.673 151.874 122.053 151.968 122.36C152.074 122.653 152.228 122.913 152.428 123.14C152.521 123.233 152.568 123.347 152.568 123.48C152.568 123.613 152.514 123.733 152.408 123.84C152.314 123.933 152.201 123.98 152.068 123.98C151.934 123.98 151.814 123.927 151.708 123.82ZM147.788 123C148.361 123 148.908 122.873 149.428 122.62C149.948 122.353 150.414 121.953 150.828 121.42V120.12C150.334 120.08 149.874 120.06 149.448 120.06C148.181 120.06 147.288 120.32 146.768 120.84C146.608 121 146.494 121.167 146.428 121.34C146.374 121.513 146.348 121.693 146.348 121.88C146.348 122.147 146.461 122.4 146.688 122.64C146.928 122.88 147.294 123 147.788 123ZM161.252 124C161.118 124 160.998 123.953 160.892 123.86C160.798 123.753 160.752 123.633 160.752 123.5V122.66C160.365 123.073 159.925 123.4 159.432 123.64C158.952 123.88 158.418 124 157.832 124C157.178 124 156.585 123.847 156.052 123.54C155.532 123.233 155.112 122.8 154.792 122.24C154.485 121.667 154.332 121 154.332 120.24C154.332 119.44 154.498 118.733 154.832 118.12C155.178 117.507 155.645 117.027 156.232 116.68C156.832 116.333 157.505 116.16 158.252 116.16C158.732 116.16 159.172 116.227 159.572 116.36C159.985 116.48 160.378 116.653 160.752 116.88V113.28C160.752 113.133 160.798 113.013 160.892 112.92C160.998 112.827 161.118 112.78 161.252 112.78C161.398 112.78 161.518 112.827 161.612 112.92C161.705 113.013 161.752 113.133 161.752 113.28V123.5C161.752 123.633 161.705 123.753 161.612 123.86C161.518 123.953 161.398 124 161.252 124ZM157.832 123C158.498 123 159.065 122.827 159.532 122.48C160.012 122.133 160.418 121.687 160.752 121.14V118.08C160.378 117.787 159.992 117.56 159.592 117.4C159.205 117.24 158.758 117.16 158.252 117.16C157.692 117.16 157.192 117.293 156.752 117.56C156.312 117.827 155.965 118.193 155.712 118.66C155.458 119.113 155.332 119.64 155.332 120.24C155.332 121.053 155.565 121.72 156.032 122.24C156.512 122.747 157.112 123 157.832 123ZM168.689 124C167.409 124 166.376 123.667 165.589 123C164.816 122.333 164.429 121.393 164.429 120.18C164.429 119.367 164.603 118.66 164.949 118.06C165.296 117.46 165.756 116.993 166.329 116.66C166.916 116.327 167.563 116.16 168.269 116.16C168.976 116.16 169.569 116.3 170.049 116.58C170.529 116.86 170.889 117.207 171.129 117.62C171.383 118.033 171.509 118.44 171.509 118.84C171.509 119.32 171.356 119.733 171.049 120.08C170.756 120.427 170.196 120.6 169.369 120.6H165.449C165.556 121.4 165.903 122 166.489 122.4C167.089 122.8 167.823 123 168.689 123C169.023 123 169.323 122.973 169.589 122.92C169.869 122.867 170.083 122.813 170.229 122.76C170.376 122.707 170.469 122.673 170.509 122.66C170.563 122.647 170.603 122.64 170.629 122.64C170.763 122.64 170.876 122.693 170.969 122.8C171.076 122.893 171.129 123.007 171.129 123.14C171.129 123.367 171.023 123.52 170.809 123.6C170.529 123.707 170.203 123.8 169.829 123.88C169.456 123.96 169.076 124 168.689 124ZM168.269 117.16C167.563 117.16 166.949 117.387 166.429 117.84C165.909 118.28 165.589 118.867 165.469 119.6H169.389C170.149 119.6 170.529 119.347 170.529 118.84C170.529 118.427 170.323 118.047 169.909 117.7C169.496 117.34 168.949 117.16 168.269 117.16ZM180.71 112.06C180.937 112.06 181.13 112.153 181.29 112.34C181.45 112.513 181.53 112.753 181.53 113.06C181.53 113.367 181.45 113.6 181.29 113.76C181.13 113.92 180.943 114 180.73 114C180.49 114 180.283 113.92 180.11 113.76C179.95 113.587 179.87 113.353 179.87 113.06C179.87 112.753 179.95 112.513 180.11 112.34C180.27 112.153 180.47 112.06 180.71 112.06ZM180.23 116.66C180.23 116.513 180.277 116.393 180.37 116.3C180.477 116.207 180.597 116.16 180.73 116.16C180.877 116.16 180.997 116.207 181.09 116.3C181.183 116.393 181.23 116.513 181.23 116.66V123.5C181.23 123.633 181.183 123.753 181.09 123.86C180.997 123.953 180.877 124 180.73 124C180.597 124 180.477 123.953 180.37 123.86C180.277 123.753 180.23 123.633 180.23 123.5V116.66ZM190.999 124C190.865 124 190.745 123.953 190.639 123.86C190.545 123.753 190.499 123.633 190.499 123.5V119.5C190.499 118.673 190.339 118.08 190.019 117.72C189.712 117.347 189.292 117.16 188.759 117.16C188.199 117.16 187.665 117.313 187.159 117.62C186.652 117.913 186.185 118.273 185.759 118.7V123.5C185.759 123.633 185.712 123.753 185.619 123.86C185.525 123.953 185.405 124 185.259 124C185.125 124 185.005 123.953 184.899 123.86C184.805 123.753 184.759 123.633 184.759 123.5V116.66C184.759 116.513 184.805 116.393 184.899 116.3C185.005 116.207 185.125 116.16 185.259 116.16C185.405 116.16 185.525 116.207 185.619 116.3C185.712 116.393 185.759 116.513 185.759 116.66V117.38C186.212 117.02 186.685 116.727 187.179 116.5C187.672 116.273 188.199 116.16 188.759 116.16C189.265 116.16 189.725 116.26 190.139 116.46C190.552 116.66 190.879 117.007 191.119 117.5C191.372 117.98 191.499 118.647 191.499 119.5V123.5C191.499 123.633 191.452 123.753 191.359 123.86C191.265 123.953 191.145 124 190.999 124Z" fill="#E7E7E7"/>
<rect x="235" y="102" width="114" height="32" rx="16" fill="#202020"/>
<circle cx="332" cy="118" r="9" fill="#202020" stroke="#2B2B2B" stroke-width="4"/>
<path d="M332 129C329.083 129 326.285 127.841 324.222 125.778C322.159 123.715 321 120.917 321 118C321 115.083 322.159 112.285 324.222 110.222C326.285 108.159 329.083 107 332 107L332 111.002C330.145 111.002 328.365 111.74 327.052 113.052C325.74 114.364 325.003 116.144 325.003 118C325.003 119.856 325.74 121.636 327.052 122.948C328.365 124.26 330.145 124.998 332 124.998L332 129Z" fill="#FF9E5A"/>
<path d="M332 107V111" stroke="#E7E7E7" stroke-width="2" stroke-linecap="round"/>
<path d="M249.694 124C249.561 124 249.441 123.953 249.334 123.86C249.241 123.753 249.194 123.633 249.194 123.5V113.8C249.194 113.653 249.241 113.533 249.334 113.44C249.441 113.347 249.561 113.3 249.694 113.3H255.394C255.541 113.3 255.661 113.347 255.754 113.44C255.848 113.533 255.894 113.653 255.894 113.8C255.894 113.933 255.848 114.053 255.754 114.16C255.661 114.253 255.541 114.3 255.394 114.3H250.194V118.16H254.374C254.521 118.16 254.641 118.207 254.734 118.3C254.828 118.393 254.874 118.513 254.874 118.66C254.874 118.793 254.828 118.913 254.734 119.02C254.641 119.113 254.521 119.16 254.374 119.16H250.194V123.5C250.194 123.633 250.148 123.753 250.054 123.86C249.961 123.953 249.841 124 249.694 124ZM263.384 123.82C263.09 123.513 262.864 123.127 262.704 122.66C262.25 123.087 261.75 123.42 261.204 123.66C260.67 123.887 260.09 124 259.464 124C258.85 124 258.364 123.887 258.004 123.66C257.644 123.433 257.39 123.153 257.244 122.82C257.097 122.487 257.024 122.173 257.024 121.88C257.024 121.56 257.077 121.253 257.184 120.96C257.304 120.653 257.484 120.387 257.724 120.16C258.057 119.853 258.504 119.593 259.064 119.38C259.624 119.167 260.31 119.06 261.124 119.06C261.55 119.06 262.004 119.08 262.484 119.12C262.43 118.52 262.23 118.047 261.884 117.7C261.537 117.34 261.017 117.16 260.324 117.16C260.057 117.16 259.784 117.187 259.504 117.24C259.224 117.28 259.01 117.327 258.864 117.38C258.69 117.447 258.564 117.48 258.484 117.48C258.35 117.48 258.23 117.433 258.124 117.34C258.017 117.233 257.964 117.12 257.964 117C257.964 116.747 258.077 116.58 258.304 116.5C258.53 116.433 258.83 116.36 259.204 116.28C259.59 116.2 259.964 116.16 260.324 116.16C261.417 116.16 262.217 116.46 262.724 117.06C263.244 117.66 263.504 118.44 263.504 119.4V121.22C263.504 121.673 263.55 122.053 263.644 122.36C263.75 122.653 263.904 122.913 264.104 123.14C264.197 123.233 264.244 123.347 264.244 123.48C264.244 123.613 264.19 123.733 264.084 123.84C263.99 123.933 263.877 123.98 263.744 123.98C263.61 123.98 263.49 123.927 263.384 123.82ZM259.464 123C260.037 123 260.584 122.873 261.104 122.62C261.624 122.353 262.09 121.953 262.504 121.42V120.12C262.01 120.08 261.55 120.06 261.124 120.06C259.857 120.06 258.964 120.32 258.444 120.84C258.284 121 258.17 121.167 258.104 121.34C258.05 121.513 258.024 121.693 258.024 121.88C258.024 122.147 258.137 122.4 258.364 122.64C258.604 122.88 258.97 123 259.464 123ZM272.927 124C272.794 124 272.674 123.953 272.567 123.86C272.474 123.753 272.427 123.633 272.427 123.5V122.66C272.041 123.073 271.601 123.4 271.107 123.64C270.627 123.88 270.094 124 269.507 124C268.854 124 268.261 123.847 267.727 123.54C267.207 123.233 266.787 122.8 266.467 122.24C266.161 121.667 266.007 121 266.007 120.24C266.007 119.44 266.174 118.733 266.507 118.12C266.854 117.507 267.321 117.027 267.907 116.68C268.507 116.333 269.181 116.16 269.927 116.16C270.407 116.16 270.847 116.227 271.247 116.36C271.661 116.48 272.054 116.653 272.427 116.88V113.28C272.427 113.133 272.474 113.013 272.567 112.92C272.674 112.827 272.794 112.78 272.927 112.78C273.074 112.78 273.194 112.827 273.287 112.92C273.381 113.013 273.427 113.133 273.427 113.28V123.5C273.427 123.633 273.381 123.753 273.287 123.86C273.194 123.953 273.074 124 272.927 124ZM269.507 123C270.174 123 270.741 122.827 271.207 122.48C271.687 122.133 272.094 121.687 272.427 121.14V118.08C272.054 117.787 271.667 117.56 271.267 117.4C270.881 117.24 270.434 117.16 269.927 117.16C269.367 117.16 268.867 117.293 268.427 117.56C267.987 117.827 267.641 118.193 267.387 118.66C267.134 119.113 267.007 119.64 267.007 120.24C267.007 121.053 267.241 121.72 267.707 122.24C268.187 122.747 268.787 123 269.507 123ZM280.365 124C279.085 124 278.052 123.667 277.265 123C276.492 122.333 276.105 121.393 276.105 120.18C276.105 119.367 276.278 118.66 276.625 118.06C276.972 117.46 277.432 116.993 278.005 116.66C278.592 116.327 279.238 116.16 279.945 116.16C280.652 116.16 281.245 116.3 281.725 116.58C282.205 116.86 282.565 117.207 282.805 117.62C283.058 118.033 283.185 118.44 283.185 118.84C283.185 119.32 283.032 119.733 282.725 120.08C282.432 120.427 281.872 120.6 281.045 120.6H277.125C277.232 121.4 277.578 122 278.165 122.4C278.765 122.8 279.498 123 280.365 123C280.698 123 280.998 122.973 281.265 122.92C281.545 122.867 281.758 122.813 281.905 122.76C282.052 122.707 282.145 122.673 282.185 122.66C282.238 122.647 282.278 122.64 282.305 122.64C282.438 122.64 282.552 122.693 282.645 122.8C282.752 122.893 282.805 123.007 282.805 123.14C282.805 123.367 282.698 123.52 282.485 123.6C282.205 123.707 281.878 123.8 281.505 123.88C281.132 123.96 280.752 124 280.365 124ZM279.945 117.16C279.238 117.16 278.625 117.387 278.105 117.84C277.585 118.28 277.265 118.867 277.145 119.6H281.065C281.825 119.6 282.205 119.347 282.205 118.84C282.205 118.427 281.998 118.047 281.585 117.7C281.172 117.34 280.625 117.16 279.945 117.16ZM295.026 116.08C295.839 116.08 296.539 116.267 297.126 116.64C297.726 117 298.186 117.493 298.506 118.12C298.839 118.733 299.006 119.42 299.006 120.18C299.006 120.913 298.839 121.573 298.506 122.16C298.186 122.747 297.726 123.213 297.126 123.56C296.539 123.907 295.839 124.08 295.026 124.08C294.226 124.08 293.526 123.907 292.926 123.56C292.326 123.213 291.859 122.74 291.526 122.14C291.206 121.54 291.046 120.873 291.046 120.14C291.046 119.393 291.206 118.713 291.526 118.1C291.846 117.487 292.306 117 292.906 116.64C293.506 116.267 294.213 116.08 295.026 116.08ZM295.026 117.08C294.413 117.08 293.879 117.22 293.426 117.5C292.986 117.78 292.646 118.153 292.406 118.62C292.166 119.073 292.046 119.58 292.046 120.14C292.046 120.967 292.313 121.667 292.846 122.24C293.393 122.8 294.119 123.08 295.026 123.08C295.933 123.08 296.653 122.8 297.186 122.24C297.733 121.68 298.006 120.993 298.006 120.18C298.006 119.607 297.886 119.087 297.646 118.62C297.406 118.153 297.059 117.78 296.606 117.5C296.166 117.22 295.639 117.08 295.026 117.08ZM307.728 124C307.595 124 307.475 123.953 307.368 123.86C307.275 123.753 307.228 123.633 307.228 123.5V122.6C306.788 123.013 306.308 123.353 305.788 123.62C305.268 123.873 304.748 124 304.228 124C303.735 124 303.275 123.9 302.848 123.7C302.435 123.5 302.102 123.16 301.848 122.68C301.608 122.187 301.488 121.513 301.488 120.66V116.66C301.488 116.513 301.535 116.393 301.628 116.3C301.735 116.207 301.855 116.16 301.988 116.16C302.135 116.16 302.255 116.207 302.348 116.3C302.442 116.393 302.488 116.513 302.488 116.66V120.66C302.488 121.473 302.642 122.067 302.948 122.44C303.268 122.813 303.695 123 304.228 123C304.775 123 305.315 122.827 305.848 122.48C306.395 122.133 306.855 121.707 307.228 121.2V116.66C307.228 116.513 307.275 116.393 307.368 116.3C307.475 116.207 307.595 116.16 307.728 116.16C307.875 116.16 307.995 116.207 308.088 116.3C308.182 116.393 308.228 116.513 308.228 116.66V123.5C308.228 123.633 308.182 123.753 308.088 123.86C307.995 123.953 307.875 124 307.728 124ZM315.51 124C314.283 124 313.41 123.747 312.89 123.24C312.37 122.72 312.11 122.027 312.11 121.16V117.16H310.85C310.716 117.16 310.596 117.113 310.49 117.02C310.396 116.913 310.35 116.793 310.35 116.66C310.35 116.513 310.396 116.393 310.49 116.3C310.596 116.207 310.716 116.16 310.85 116.16H312.11V114.14C312.11 113.993 312.156 113.873 312.25 113.78C312.356 113.687 312.476 113.64 312.61 113.64C312.756 113.64 312.876 113.687 312.97 113.78C313.063 113.873 313.11 113.993 313.11 114.14V116.16H315.77C315.916 116.16 316.036 116.207 316.13 116.3C316.223 116.393 316.27 116.513 316.27 116.66C316.27 116.793 316.223 116.913 316.13 117.02C316.036 117.113 315.916 117.16 315.77 117.16H313.11V121.16C313.11 122.387 313.91 123 315.51 123C315.656 123 315.776 123.053 315.87 123.16C315.963 123.253 316.01 123.367 316.01 123.5C316.01 123.633 315.956 123.753 315.85 123.86C315.756 123.953 315.643 124 315.51 124Z" fill="#E7E7E7"/>
</svg>
