<svg width="855" height="44" viewBox="0 0 855 44" fill="none" xmlns="http://www.w3.org/2000/svg">
<path d="M0 12C0 5.37258 5.37258 0 12 0H843C849.627 0 855 5.37258 855 12V32C855 38.6274 849.627 44 843 44H12C5.3726 44 0 38.6274 0 32V12Z" fill="#2B2B2B"/>
<path d="M38 29L44 23L38 17" stroke="#E7E7E7" stroke-width="2" stroke-linecap="round"/>
<circle cx="16" cy="16" r="2" fill="white" fill-opacity="0.29"/>
<circle cx="22" cy="16" r="2" fill="white" fill-opacity="0.29"/>
<circle cx="16" cy="22" r="2" fill="white" fill-opacity="0.29"/>
<circle cx="22" cy="22" r="2" fill="white" fill-opacity="0.29"/>
<circle cx="16" cy="28" r="2" fill="white" fill-opacity="0.29"/>
<circle cx="22" cy="28" r="2" fill="white" fill-opacity="0.29"/>
<path d="M843 42C848.523 42 853 37.5229 853 32L853 12C853 6.47716 848.523 2.00001 843 2L825 2L825 42L843 42Z" fill="#2D2D2D" stroke="#212121" stroke-width="4"/>
<path d="M832 15.5878H833.667M833.667 15.5878H847M833.667 15.5878L833.667 28.1452C833.667 28.6209 833.842 29.0772 834.155 29.4136C834.467 29.7501 834.891 29.9391 835.333 29.9391H843.667C844.109 29.9391 844.533 29.7501 844.845 29.4136C845.158 29.0772 845.333 28.6209 845.333 28.1452V15.5878M836.167 15.5878V13.7939C836.167 13.3181 836.342 12.8618 836.655 12.5254C836.967 12.189 837.391 12 837.833 12H841.167C841.609 12 842.033 12.189 842.345 12.5254C842.658 12.8618 842.833 13.3181 842.833 13.7939V15.5878M837.833 20.0726V25.4543M841.167 20.0726V25.4543" stroke="#FF5A5A" stroke-width="2" stroke-linecap="round" stroke-linejoin="round"/>
<rect x="706" y="5" width="107" height="33" rx="12" fill="#202020"/>
<rect x="741" y="9" width="67" height="25" rx="8" fill="#E7E7E7"/>
<path d="M741 17C741 12.5817 744.582 9 749 9L792 9.00001L792 34L749 34C744.582 34 741 30.4183 741 26L741 17Z" fill="#E7E7E7"/>
<path d="M731.07 14.9301C732.945 16.8053 733.998 19.3484 733.998 22.0001C733.998 24.6517 732.945 27.1948 731.07 29.0701M727.54 18.4601C728.477 19.3977 729.004 20.6692 729.004 21.9951C729.004 23.3209 728.477 24.5924 727.54 25.5301M723 15.0001L718 19.0001H714V25.0001H718L723 29.0001V15.0001Z" stroke="#E7E7E7" stroke-width="2.5" stroke-linecap="round" stroke-linejoin="round"/>
<path d="M421 17C421 10.3726 426.373 5 433 5L686 5.00005C692.627 5.00005 698 10.3726 698 17.0001L698 26C698 32.6274 692.627 38 686 38L433 37.9999C426.373 37.9999 421 32.6274 421 25.9999L421 17Z" fill="#202020"/>
<path d="M670 9L686 9C690.418 9 694 12.5817 694 17L694 26C694 30.4183 690.418 34 686 34L670 34L670 9Z" fill="#2D2D2D"/>
<path d="M687 17L677 27M677 17L687 27" stroke="#FF5A5A" stroke-width="3" stroke-linecap="round" stroke-linejoin="round"/>
<rect x="537.131" y="13" width="3.95653" height="16" rx="1.97826" fill="#E7E7E7"/>
<rect x="467.892" y="13" width="3.95653" height="16" rx="1.97826" fill="#E7E7E7"/>
<rect x="527.239" y="14.4117" width="3.95653" height="13.1765" rx="1.97826" fill="#E7E7E7"/>
<rect x="626.152" y="14.4117" width="3.95653" height="13.1765" rx="1.97826" fill="#E7E7E7"/>
<rect x="497.565" y="17.7059" width="3.95652" height="6.58823" rx="1.97826" fill="#E7E7E7"/>
<rect x="458" y="17.7059" width="3.95652" height="6.58823" rx="1.97826" fill="#E7E7E7"/>
<rect x="596.478" y="17.7059" width="3.95652" height="6.58823" rx="1.97826" fill="#E7E7E7"/>
<rect x="547.022" y="15.8235" width="3.95653" height="10.3529" rx="1.97826" fill="#E7E7E7"/>
<rect x="636.044" y="15.8235" width="3.95653" height="10.3529" rx="1.97826" fill="#E7E7E7"/>
<rect x="477.783" y="14.8823" width="3.95653" height="12.2353" rx="1.97826" fill="#E7E7E7"/>
<rect x="576.696" y="14.8823" width="3.95653" height="12.2353" rx="1.97826" fill="#E7E7E7"/>
<rect x="507.457" y="16.2941" width="3.95653" height="9.41177" rx="1.97826" fill="#E7E7E7"/>
<rect x="566.804" y="13" width="3.95653" height="16" rx="1.97826" fill="#E7E7E7"/>
<rect x="606.37" y="16.2941" width="3.95653" height="9.41177" rx="1.97826" fill="#E7E7E7"/>
<rect x="556.913" y="13.9412" width="3.95653" height="14.1176" rx="1.97826" fill="#E7E7E7"/>
<rect x="487.674" y="13.9412" width="3.95653" height="14.1176" rx="1.97826" fill="#E7E7E7"/>
<rect x="586.587" y="13.9412" width="3.95653" height="14.1176" rx="1.97826" fill="#E7E7E7"/>
<rect x="517.348" y="17.2352" width="3.95652" height="7.52941" rx="1.97826" fill="#E7E7E7"/>
<rect x="616.261" y="17.2352" width="3.95652" height="7.52941" rx="1.97826" fill="#E7E7E7"/>
<rect x="556.913" y="13.9412" width="3.95653" height="14.1176" rx="1.97826" fill="#E7E7E7"/>
<rect x="656" y="13" width="3.95653" height="16" rx="1.97826" fill="#E7E7E7"/>
<rect x="646" y="17.7059" width="3.95652" height="6.58823" rx="1.97826" fill="#E7E7E7"/>
<path d="M425 17C425 12.5817 428.582 9 433 9L449 9L449 34L433 34C428.582 34 425 30.4183 425 26L425 17Z" fill="#2D2D2D"/>
<path d="M433 14L445 21.5L433 29V14Z" stroke="#E7E7E7" stroke-width="2.5" stroke-linecap="round" stroke-linejoin="round"/>
<rect x="453" y="9" width="213" height="25" fill="#62BDFF" fill-opacity="0.1"/>
<path d="M666 9V34" stroke="#62BDFF" stroke-width="3"/>
<path d="M453 9V34" stroke="#62BDFF" stroke-width="3"/>
</svg>
