<svg width="855" height="148" viewBox="0 0 855 148" fill="none" xmlns="http://www.w3.org/2000/svg">
<path d="M6.10352e-05 20C6.10352e-05 8.9543 8.95437 0 20.0001 0H835C846.046 0 855 8.9543 855 20V128C855 139.046 846.046 148 835 148H20.0001C8.95439 148 6.10352e-05 139.046 6.10352e-05 128V20Z" fill="#2B2B2B"/>
<rect x="706" y="5" width="107" height="33" rx="12" fill="#202020"/>
<rect x="741" y="9" width="67" height="25" rx="8" fill="#E7E7E7"/>
<path d="M741 17C741 12.5817 744.582 9 749 9L792 9.00001L792 34L749 34C744.582 34 741 30.4183 741 26L741 17Z" fill="#E7E7E7"/>
<path d="M731.07 14.9301C732.945 16.8053 733.998 19.3484 733.998 22.0001C733.998 24.6517 732.945 27.1948 731.07 29.0701M727.54 18.4601C728.477 19.3977 729.004 20.6692 729.004 21.9951C729.004 23.3209 728.477 24.5924 727.54 25.5301M723 15.0001L718 19.0001H714V25.0001H718L723 29.0001V15.0001Z" stroke="#E7E7E7" stroke-width="2.5" stroke-linecap="round" stroke-linejoin="round"/>
<path d="M32.0001 18L38.0001 24L44.0001 18" stroke="#E7E7E7" stroke-width="2" stroke-linecap="round"/>
<circle cx="13.0001" cy="15" r="2" fill="white" fill-opacity="0.29"/>
<circle cx="19.0001" cy="15" r="2" fill="white" fill-opacity="0.29"/>
<circle cx="13.0001" cy="21" r="2" fill="white" fill-opacity="0.29"/>
<circle cx="19.0001" cy="21" r="2" fill="white" fill-opacity="0.29"/>
<circle cx="13.0001" cy="27" r="2" fill="white" fill-opacity="0.29"/>
<circle cx="19.0001" cy="27" r="2" fill="white" fill-opacity="0.29"/>
<rect x="28" y="48" width="798" height="43.9999" rx="12" fill="#202020"/>
<path d="M32 60C32 55.5817 35.5817 52 40 52L55 52L55 88L40 88C35.5817 88 32 84.4183 32 80L32 60Z" fill="#2D2D2D"/>
<path d="M799 52L814 52C818.418 52 822 55.5817 822 60L822 80C822 84.4183 818.418 88 814 88L799 88L799 52Z" fill="#2D2D2D"/>
<path d="M815.5 64.5L804.5 75.5M804.5 64.5L815.5 75.5" stroke="#FF5A5A" stroke-width="3" stroke-linecap="round" stroke-linejoin="round"/>
<rect x="149.13" y="60" width="3.95653" height="22" rx="1.97826" fill="#E7E7E7"/>
<rect x="277.348" y="60" width="3.95653" height="22" rx="1.97826" fill="#E7E7E7"/>
<rect x="533.348" y="60" width="3.95653" height="22" rx="1.97826" fill="#E7E7E7"/>
<rect x="405.565" y="60" width="3.95653" height="22" rx="1.97826" fill="#E7E7E7"/>
<rect x="79.8914" y="60" width="3.95653" height="22" rx="1.97826" fill="#E7E7E7"/>
<rect x="139.239" y="61.9412" width="3.95653" height="18.1176" rx="1.97826" fill="#E7E7E7"/>
<rect x="267.457" y="61.9412" width="3.95653" height="18.1176" rx="1.97826" fill="#E7E7E7"/>
<rect x="523.457" y="61.9412" width="3.95653" height="18.1176" rx="1.97826" fill="#E7E7E7"/>
<rect x="395.674" y="61.9412" width="3.95653" height="18.1176" rx="1.97826" fill="#E7E7E7"/>
<rect x="602.782" y="61.9412" width="3.95653" height="18.1176" rx="1.97826" fill="#E7E7E7"/>
<rect x="109.565" y="66.4706" width="3.95652" height="9.05882" rx="1.97826" fill="#E7E7E7"/>
<rect x="237.783" y="66.4706" width="3.95652" height="9.05882" rx="1.97826" fill="#E7E7E7"/>
<rect x="493.783" y="66.4706" width="3.95652" height="9.05882" rx="1.97826" fill="#E7E7E7"/>
<rect x="366" y="66.4706" width="3.95652" height="9.05882" rx="1.97826" fill="#E7E7E7"/>
<rect x="70" y="66.4706" width="3.95652" height="9.05882" rx="1.97826" fill="#E7E7E7"/>
<rect x="208.478" y="66.4706" width="3.95652" height="9.05882" rx="1.97826" fill="#E7E7E7"/>
<rect x="336.696" y="66.4706" width="3.95652" height="9.05882" rx="1.97826" fill="#E7E7E7"/>
<rect x="464.913" y="66.4706" width="3.95652" height="9.05882" rx="1.97826" fill="#E7E7E7"/>
<rect x="159.022" y="63.8823" width="3.95653" height="14.2353" rx="1.97826" fill="#E7E7E7"/>
<rect x="287.239" y="63.8823" width="3.95653" height="14.2353" rx="1.97826" fill="#E7E7E7"/>
<rect x="543.239" y="63.8823" width="3.95653" height="14.2353" rx="1.97826" fill="#E7E7E7"/>
<rect x="415.457" y="63.8823" width="3.95653" height="14.2353" rx="1.97826" fill="#E7E7E7"/>
<rect x="612.674" y="63.8823" width="3.95653" height="14.2353" rx="1.97826" fill="#E7E7E7"/>
<rect x="89.7825" y="62.5883" width="3.95653" height="16.8235" rx="1.97826" fill="#E7E7E7"/>
<rect x="218" y="62.5883" width="3.95653" height="16.8235" rx="1.97826" fill="#E7E7E7"/>
<rect x="474" y="62.5883" width="3.95653" height="16.8235" rx="1.97826" fill="#E7E7E7"/>
<rect x="346.218" y="62.5883" width="3.95653" height="16.8235" rx="1.97826" fill="#E7E7E7"/>
<rect x="188.696" y="62.5883" width="3.95653" height="16.8235" rx="1.97826" fill="#E7E7E7"/>
<rect x="316.913" y="62.5883" width="3.95653" height="16.8235" rx="1.97826" fill="#E7E7E7"/>
<rect x="572.913" y="62.5883" width="3.95653" height="16.8235" rx="1.97826" fill="#E7E7E7"/>
<rect x="445.131" y="62.5883" width="3.95653" height="16.8235" rx="1.97826" fill="#E7E7E7"/>
<rect x="119.457" y="64.5294" width="3.95653" height="12.9412" rx="1.97826" fill="#E7E7E7"/>
<rect x="247.674" y="64.5294" width="3.95653" height="12.9412" rx="1.97826" fill="#E7E7E7"/>
<rect x="503.674" y="64.5294" width="3.95653" height="12.9412" rx="1.97826" fill="#E7E7E7"/>
<rect x="375.892" y="64.5294" width="3.95653" height="12.9412" rx="1.97826" fill="#E7E7E7"/>
<rect x="178.804" y="60" width="3.95653" height="22" rx="1.97826" fill="#E7E7E7"/>
<rect x="307.022" y="60" width="3.95653" height="22" rx="1.97826" fill="#E7E7E7"/>
<rect x="563.022" y="60" width="3.95653" height="22" rx="1.97826" fill="#E7E7E7"/>
<rect x="435.239" y="60" width="3.95653" height="22" rx="1.97826" fill="#E7E7E7"/>
<rect x="583" y="64.5294" width="3.95653" height="12.9412" rx="1.97826" fill="#E7E7E7"/>
<rect x="168.913" y="61.2941" width="3.95653" height="19.4118" rx="1.97826" fill="#E7E7E7"/>
<rect x="297.131" y="61.2941" width="3.95653" height="19.4118" rx="1.97826" fill="#E7E7E7"/>
<rect x="553.131" y="61.2941" width="3.95653" height="19.4118" rx="1.97826" fill="#E7E7E7"/>
<rect x="425.348" y="61.2941" width="3.95653" height="19.4118" rx="1.97826" fill="#E7E7E7"/>
<rect x="99.6738" y="61.2941" width="3.95653" height="19.4118" rx="1.97826" fill="#E7E7E7"/>
<rect x="227.891" y="61.2941" width="3.95653" height="19.4118" rx="1.97826" fill="#E7E7E7"/>
<rect x="483.891" y="61.2941" width="3.95653" height="19.4118" rx="1.97826" fill="#E7E7E7"/>
<rect x="356.109" y="61.2941" width="3.95653" height="19.4118" rx="1.97826" fill="#E7E7E7"/>
<rect x="198.587" y="61.2941" width="3.95653" height="19.4118" rx="1.97826" fill="#E7E7E7"/>
<rect x="326.804" y="61.2941" width="3.95653" height="19.4118" rx="1.97826" fill="#E7E7E7"/>
<rect x="455.022" y="61.2941" width="3.95653" height="19.4118" rx="1.97826" fill="#E7E7E7"/>
<rect x="129.348" y="65.8235" width="3.95652" height="10.3529" rx="1.97826" fill="#E7E7E7"/>
<rect x="257.565" y="65.8235" width="3.95652" height="10.3529" rx="1.97826" fill="#E7E7E7"/>
<rect x="513.565" y="65.8235" width="3.95652" height="10.3529" rx="1.97826" fill="#E7E7E7"/>
<rect x="385.783" y="65.8235" width="3.95652" height="10.3529" rx="1.97826" fill="#E7E7E7"/>
<rect x="592.891" y="65.8235" width="3.95652" height="10.3529" rx="1.97826" fill="#E7E7E7"/>
<rect x="168.913" y="61.2941" width="3.95653" height="19.4118" rx="1.97826" fill="#E7E7E7"/>
<rect x="297.131" y="61.2941" width="3.95653" height="19.4118" rx="1.97826" fill="#E7E7E7"/>
<rect x="553.131" y="61.2941" width="3.95653" height="19.4118" rx="1.97826" fill="#E7E7E7"/>
<rect x="425.348" y="61.2941" width="3.95653" height="19.4118" rx="1.97826" fill="#E7E7E7"/>
<rect x="632.63" y="60" width="3.95653" height="22" rx="1.97826" fill="#E7E7E7"/>
<rect x="662.304" y="66.4706" width="3.95652" height="9.05882" rx="1.97826" fill="#E7E7E7"/>
<rect x="622.63" y="66.4706" width="3.95652" height="9.05882" rx="1.97826" fill="#E7E7E7"/>
<rect x="642.521" y="62.5883" width="3.95653" height="16.8235" rx="1.97826" fill="#E7E7E7"/>
<rect x="652.413" y="61.2941" width="3.95653" height="19.4118" rx="1.97826" fill="#E7E7E7"/>
<rect x="711.761" y="61.9412" width="3.95653" height="18.1176" rx="1.97826" fill="#E7E7E7"/>
<rect x="721.652" y="63.8823" width="3.95653" height="14.2353" rx="1.97826" fill="#E7E7E7"/>
<rect x="781" y="61.9412" width="3.95653" height="18.1176" rx="1.97826" fill="#E7E7E7"/>
<rect x="681.891" y="62.5883" width="3.95653" height="16.8235" rx="1.97826" fill="#E7E7E7"/>
<rect x="672" y="60" width="3.95653" height="22" rx="1.97826" fill="#E7E7E7"/>
<rect x="691.978" y="64.5294" width="3.95653" height="12.9412" rx="1.97826" fill="#E7E7E7"/>
<rect x="701.869" y="65.8235" width="3.95652" height="10.3529" rx="1.97826" fill="#E7E7E7"/>
<rect x="741.609" y="60" width="3.95653" height="22" rx="1.97826" fill="#E7E7E7"/>
<rect x="771.282" y="66.4706" width="3.95652" height="9.05882" rx="1.97826" fill="#E7E7E7"/>
<rect x="731.609" y="66.4706" width="3.95652" height="9.05882" rx="1.97826" fill="#E7E7E7"/>
<rect x="751.5" y="62.5883" width="3.95653" height="16.8235" rx="1.97826" fill="#E7E7E7"/>
<rect x="761.391" y="61.2941" width="3.95653" height="19.4118" rx="1.97826" fill="#E7E7E7"/>
<path d="M59 52L795 52V88H59V52Z" fill="#62BDFF" fill-opacity="0.1"/>
<path d="M59 88L59 62M59 62V53.5H68L59 62Z" stroke="#62BDFF" stroke-width="3"/>
<path d="M795 88L795 62M795 62V53.5H786L795 62Z" stroke="#62BDFF" stroke-width="3"/>
<path d="M835 34L853 34L853 12C853 6.47716 848.523 2.00001 843 2L825 2L825 24C825 29.5228 829.477 34 835 34Z" fill="#2D2D2D" stroke="#212121" stroke-width="4"/>
<path d="M832 12.3333H833.667M833.667 12.3333H847M833.667 12.3333L833.667 24C833.667 24.442 833.842 24.866 834.155 25.1785C834.467 25.4911 834.891 25.6667 835.333 25.6667H843.667C844.109 25.6667 844.533 25.4911 844.845 25.1785C845.158 24.866 845.333 24.442 845.333 24V12.3333M836.167 12.3333V10.6667C836.167 10.2246 836.342 9.80072 836.655 9.48816C836.967 9.17559 837.391 9 837.833 9H841.167C841.609 9 842.033 9.17559 842.345 9.48816C842.658 9.80072 842.833 10.2246 842.833 10.6667V12.3333M837.833 16.5V21.5M841.167 16.5V21.5" stroke="#FF5A5A" stroke-width="2" stroke-linecap="round" stroke-linejoin="round"/>
<rect x="255" y="102" width="267" height="32" rx="16" fill="#202020"/>
<rect x="353" y="108" width="56" height="21" rx="10.5" fill="#202020" stroke="#3B3B3B" stroke-width="2"/>
<path d="M364.544 114.312C365.184 114.312 365.771 114.499 366.304 114.872C366.848 115.235 367.28 115.747 367.6 116.408C367.931 117.059 368.096 117.821 368.096 118.696C368.096 119.517 367.952 120.264 367.664 120.936C367.387 121.608 366.981 122.141 366.448 122.536C365.925 122.931 365.291 123.128 364.544 123.128C363.861 123.128 363.248 122.931 362.704 122.536C362.16 122.141 361.728 121.613 361.408 120.952C361.099 120.28 360.944 119.539 360.944 118.728C360.944 117.843 361.099 117.069 361.408 116.408C361.717 115.747 362.144 115.235 362.688 114.872C363.232 114.499 363.851 114.312 364.544 114.312ZM364.544 115.112C363.979 115.112 363.483 115.272 363.056 115.592C362.64 115.901 362.315 116.328 362.08 116.872C361.856 117.416 361.744 118.035 361.744 118.728C361.744 119.357 361.861 119.949 362.096 120.504C362.331 121.048 362.656 121.491 363.072 121.832C363.499 122.163 363.989 122.328 364.544 122.328C365.152 122.328 365.659 122.157 366.064 121.816C366.469 121.475 366.773 121.032 366.976 120.488C367.189 119.933 367.296 119.336 367.296 118.696C367.296 118.013 367.173 117.405 366.928 116.872C366.693 116.328 366.368 115.901 365.952 115.592C365.536 115.272 365.067 115.112 364.544 115.112Z" fill="#E7E7E7"/>
<rect x="459" y="108" width="56" height="21" rx="10.5" fill="#202020" stroke="#3B3B3B" stroke-width="2"/>
<path d="M471.544 114.312C472.184 114.312 472.771 114.499 473.304 114.872C473.848 115.235 474.28 115.747 474.6 116.408C474.931 117.059 475.096 117.821 475.096 118.696C475.096 119.517 474.952 120.264 474.664 120.936C474.387 121.608 473.981 122.141 473.448 122.536C472.925 122.931 472.291 123.128 471.544 123.128C470.861 123.128 470.248 122.931 469.704 122.536C469.16 122.141 468.728 121.613 468.408 120.952C468.099 120.28 467.944 119.539 467.944 118.728C467.944 117.843 468.099 117.069 468.408 116.408C468.717 115.747 469.144 115.235 469.688 114.872C470.232 114.499 470.851 114.312 471.544 114.312ZM471.544 115.112C470.979 115.112 470.483 115.272 470.056 115.592C469.64 115.901 469.315 116.328 469.08 116.872C468.856 117.416 468.744 118.035 468.744 118.728C468.744 119.357 468.861 119.949 469.096 120.504C469.331 121.048 469.656 121.491 470.072 121.832C470.499 122.163 470.989 122.328 471.544 122.328C472.152 122.328 472.659 122.157 473.064 121.816C473.469 121.475 473.773 121.032 473.976 120.488C474.189 119.933 474.296 119.336 474.296 118.696C474.296 118.013 474.173 117.405 473.928 116.872C473.693 116.328 473.368 115.901 472.952 115.592C472.536 115.272 472.067 115.112 471.544 115.112Z" fill="#E7E7E7"/>
<path d="M264.46 124C264.327 124 264.207 123.953 264.1 123.86C264.007 123.753 263.96 123.633 263.96 123.5V113.8C263.96 113.653 264.007 113.533 264.1 113.44C264.207 113.347 264.327 113.3 264.46 113.3H267.98C268.86 113.3 269.68 113.527 270.44 113.98C271.213 114.433 271.833 115.06 272.3 115.86C272.78 116.66 273.02 117.587 273.02 118.64C273.02 119.64 272.807 120.547 272.38 121.36C271.967 122.16 271.38 122.8 270.62 123.28C269.873 123.76 268.993 124 267.98 124H264.46ZM264.96 114.3V123H267.98C268.807 123 269.52 122.807 270.12 122.42C270.733 122.02 271.2 121.493 271.52 120.84C271.853 120.173 272.02 119.44 272.02 118.64C272.02 117.8 271.833 117.053 271.46 116.4C271.087 115.747 270.593 115.233 269.98 114.86C269.367 114.487 268.7 114.3 267.98 114.3H264.96ZM279.486 124C278.206 124 277.173 123.667 276.386 123C275.613 122.333 275.226 121.393 275.226 120.18C275.226 119.367 275.4 118.66 275.746 118.06C276.093 117.46 276.553 116.993 277.126 116.66C277.713 116.327 278.36 116.16 279.066 116.16C279.773 116.16 280.366 116.3 280.846 116.58C281.326 116.86 281.686 117.207 281.926 117.62C282.18 118.033 282.306 118.44 282.306 118.84C282.306 119.32 282.153 119.733 281.846 120.08C281.553 120.427 280.993 120.6 280.166 120.6H276.246C276.353 121.4 276.7 122 277.286 122.4C277.886 122.8 278.62 123 279.486 123C279.82 123 280.12 122.973 280.386 122.92C280.666 122.867 280.88 122.813 281.026 122.76C281.173 122.707 281.266 122.673 281.306 122.66C281.36 122.647 281.4 122.64 281.426 122.64C281.56 122.64 281.673 122.693 281.766 122.8C281.873 122.893 281.926 123.007 281.926 123.14C281.926 123.367 281.82 123.52 281.606 123.6C281.326 123.707 281 123.8 280.626 123.88C280.253 123.96 279.873 124 279.486 124ZM279.066 117.16C278.36 117.16 277.746 117.387 277.226 117.84C276.706 118.28 276.386 118.867 276.266 119.6H280.186C280.946 119.6 281.326 119.347 281.326 118.84C281.326 118.427 281.12 118.047 280.706 117.7C280.293 117.34 279.746 117.16 279.066 117.16ZM285.265 113.28C285.265 113.133 285.312 113.013 285.405 112.92C285.512 112.827 285.632 112.78 285.765 112.78C285.912 112.78 286.032 112.827 286.125 112.92C286.219 113.013 286.265 113.133 286.265 113.28V123.5C286.265 123.633 286.219 123.753 286.125 123.86C286.032 123.953 285.912 124 285.765 124C285.632 124 285.512 123.953 285.405 123.86C285.312 123.753 285.265 123.633 285.265 123.5V113.28ZM295.454 123.82C295.161 123.513 294.934 123.127 294.774 122.66C294.321 123.087 293.821 123.42 293.274 123.66C292.741 123.887 292.161 124 291.534 124C290.921 124 290.434 123.887 290.074 123.66C289.714 123.433 289.461 123.153 289.314 122.82C289.167 122.487 289.094 122.173 289.094 121.88C289.094 121.56 289.147 121.253 289.254 120.96C289.374 120.653 289.554 120.387 289.794 120.16C290.127 119.853 290.574 119.593 291.134 119.38C291.694 119.167 292.381 119.06 293.194 119.06C293.621 119.06 294.074 119.08 294.554 119.12C294.501 118.52 294.301 118.047 293.954 117.7C293.607 117.34 293.087 117.16 292.394 117.16C292.127 117.16 291.854 117.187 291.574 117.24C291.294 117.28 291.081 117.327 290.934 117.38C290.761 117.447 290.634 117.48 290.554 117.48C290.421 117.48 290.301 117.433 290.194 117.34C290.087 117.233 290.034 117.12 290.034 117C290.034 116.747 290.147 116.58 290.374 116.5C290.601 116.433 290.901 116.36 291.274 116.28C291.661 116.2 292.034 116.16 292.394 116.16C293.487 116.16 294.287 116.46 294.794 117.06C295.314 117.66 295.574 118.44 295.574 119.4V121.22C295.574 121.673 295.621 122.053 295.714 122.36C295.821 122.653 295.974 122.913 296.174 123.14C296.267 123.233 296.314 123.347 296.314 123.48C296.314 123.613 296.261 123.733 296.154 123.84C296.061 123.933 295.947 123.98 295.814 123.98C295.681 123.98 295.561 123.927 295.454 123.82ZM291.534 123C292.107 123 292.654 122.873 293.174 122.62C293.694 122.353 294.161 121.953 294.574 121.42V120.12C294.081 120.08 293.621 120.06 293.194 120.06C291.927 120.06 291.034 120.32 290.514 120.84C290.354 121 290.241 121.167 290.174 121.34C290.121 121.513 290.094 121.693 290.094 121.88C290.094 122.147 290.207 122.4 290.434 122.64C290.674 122.88 291.041 123 291.534 123ZM298.378 127.48C298.258 127.48 298.138 127.433 298.018 127.34C297.911 127.247 297.858 127.133 297.858 127C297.858 126.8 297.944 126.647 298.118 126.54C298.678 126.22 299.218 125.833 299.738 125.38C300.258 124.94 300.764 124.32 301.258 123.52C300.751 122.72 300.211 121.793 299.638 120.74C299.078 119.687 298.584 118.593 298.158 117.46C298.051 117.153 297.978 116.953 297.938 116.86C297.911 116.753 297.898 116.673 297.898 116.62C297.898 116.513 297.944 116.407 298.038 116.3C298.131 116.193 298.244 116.14 298.378 116.14C298.484 116.14 298.584 116.173 298.678 116.24C298.771 116.293 298.838 116.373 298.878 116.48C299.344 117.773 299.838 118.92 300.358 119.92C300.878 120.92 301.364 121.793 301.818 122.54C302.138 121.967 302.451 121.34 302.758 120.66C303.078 119.98 303.371 119.287 303.638 118.58C303.918 117.86 304.151 117.173 304.338 116.52C304.404 116.28 304.564 116.16 304.818 116.16C304.964 116.16 305.084 116.213 305.178 116.32C305.271 116.413 305.318 116.527 305.318 116.66C305.318 116.7 305.291 116.8 305.238 116.96C305.198 117.12 305.158 117.26 305.118 117.38C304.931 117.967 304.684 118.64 304.378 119.4C304.071 120.147 303.738 120.907 303.378 121.68C303.031 122.44 302.678 123.127 302.318 123.74C301.731 124.74 301.131 125.507 300.518 126.04C299.904 126.573 299.264 127.033 298.598 127.42C298.544 127.46 298.471 127.48 298.378 127.48ZM326.143 124.04C326.023 124.04 325.917 124 325.823 123.92C325.73 123.84 325.67 123.733 325.643 123.6C325.55 122.84 325.43 121.98 325.283 121.02C325.137 120.06 324.977 119.067 324.803 118.04C324.63 117.013 324.45 116.02 324.263 115.06C323.823 115.953 323.37 116.887 322.903 117.86C322.45 118.82 322.017 119.767 321.603 120.7C321.19 121.633 320.817 122.507 320.483 123.32C320.39 123.547 320.243 123.66 320.043 123.66C319.803 123.66 319.643 123.567 319.563 123.38C319.177 122.553 318.75 121.66 318.283 120.7C317.817 119.727 317.35 118.753 316.883 117.78C316.43 116.807 316.003 115.907 315.603 115.08C315.497 115.787 315.383 116.533 315.263 117.32C315.157 118.107 315.05 118.887 314.943 119.66C314.85 120.433 314.757 121.16 314.663 121.84C314.583 122.52 314.517 123.107 314.463 123.6C314.45 123.72 314.39 123.827 314.283 123.92C314.19 124 314.077 124.04 313.943 124.04C313.81 124.04 313.697 123.993 313.603 123.9C313.51 123.793 313.463 123.667 313.463 123.52C313.463 123.493 313.483 123.3 313.523 122.94C313.577 122.5 313.65 121.9 313.743 121.14C313.837 120.38 313.943 119.553 314.063 118.66C314.183 117.753 314.31 116.853 314.443 115.96C314.577 115.067 314.703 114.26 314.823 113.54C314.85 113.42 314.91 113.32 315.003 113.24C315.11 113.16 315.223 113.12 315.343 113.12C315.503 113.12 315.623 113.173 315.703 113.28C315.837 113.413 315.943 113.573 316.023 113.76C316.397 114.507 316.803 115.347 317.243 116.28C317.697 117.2 318.163 118.147 318.643 119.12C319.123 120.093 319.577 121.027 320.003 121.92C320.39 121.04 320.803 120.107 321.243 119.12C321.697 118.12 322.157 117.127 322.623 116.14C323.103 115.14 323.57 114.213 324.023 113.36C324.13 113.187 324.283 113.1 324.483 113.1C324.603 113.1 324.717 113.14 324.823 113.22C324.93 113.287 324.99 113.38 325.003 113.5C325.163 114.287 325.317 115.127 325.463 116.02C325.623 116.9 325.77 117.747 325.903 118.56C326.037 119.373 326.143 120.087 326.223 120.7C326.317 121.3 326.383 121.713 326.423 121.94C326.53 122.593 326.59 123.013 326.603 123.2C326.63 123.387 326.643 123.5 326.643 123.54C326.643 123.673 326.597 123.793 326.503 123.9C326.41 123.993 326.29 124.04 326.143 124.04ZM330.57 112.06C330.796 112.06 330.99 112.153 331.15 112.34C331.31 112.513 331.39 112.753 331.39 113.06C331.39 113.367 331.31 113.6 331.15 113.76C330.99 113.92 330.803 114 330.59 114C330.35 114 330.143 113.92 329.97 113.76C329.81 113.587 329.73 113.353 329.73 113.06C329.73 112.753 329.81 112.513 329.97 112.34C330.13 112.153 330.33 112.06 330.57 112.06ZM330.09 116.66C330.09 116.513 330.136 116.393 330.23 116.3C330.336 116.207 330.456 116.16 330.59 116.16C330.736 116.16 330.856 116.207 330.95 116.3C331.043 116.393 331.09 116.513 331.09 116.66V123.5C331.09 123.633 331.043 123.753 330.95 123.86C330.856 123.953 330.736 124 330.59 124C330.456 124 330.336 123.953 330.23 123.86C330.136 123.753 330.09 123.633 330.09 123.5V116.66ZM340.858 124C340.725 124 340.605 123.953 340.498 123.86C340.405 123.753 340.358 123.633 340.358 123.5V119.5C340.358 118.673 340.198 118.08 339.878 117.72C339.571 117.347 339.151 117.16 338.618 117.16C338.058 117.16 337.525 117.313 337.018 117.62C336.511 117.913 336.045 118.273 335.618 118.7V123.5C335.618 123.633 335.571 123.753 335.478 123.86C335.385 123.953 335.265 124 335.118 124C334.985 124 334.865 123.953 334.758 123.86C334.665 123.753 334.618 123.633 334.618 123.5V116.66C334.618 116.513 334.665 116.393 334.758 116.3C334.865 116.207 334.985 116.16 335.118 116.16C335.265 116.16 335.385 116.207 335.478 116.3C335.571 116.393 335.618 116.513 335.618 116.66V117.38C336.071 117.02 336.545 116.727 337.038 116.5C337.531 116.273 338.058 116.16 338.618 116.16C339.125 116.16 339.585 116.26 339.998 116.46C340.411 116.66 340.738 117.007 340.978 117.5C341.231 117.98 341.358 118.647 341.358 119.5V123.5C341.358 123.633 341.311 123.753 341.218 123.86C341.125 123.953 341.005 124 340.858 124ZM345.359 116.54C345.626 116.54 345.846 116.647 346.019 116.86C346.193 117.06 346.279 117.313 346.279 117.62C346.279 117.993 346.193 118.267 346.019 118.44C345.859 118.613 345.646 118.7 345.379 118.7C345.166 118.7 344.959 118.613 344.759 118.44C344.559 118.267 344.459 117.993 344.459 117.62C344.459 117.3 344.539 117.04 344.699 116.84C344.859 116.64 345.079 116.54 345.359 116.54ZM345.359 121.94C345.626 121.94 345.846 122.047 346.019 122.26C346.193 122.46 346.279 122.713 346.279 123.02C346.279 123.393 346.193 123.667 346.019 123.84C345.859 124.013 345.646 124.1 345.379 124.1C345.166 124.1 344.959 124.013 344.759 123.84C344.559 123.667 344.459 123.393 344.459 123.02C344.459 122.7 344.539 122.44 344.699 122.24C344.859 122.04 345.079 121.94 345.359 121.94Z" fill="#E7E7E7"/>
<path d="M428.28 124.04C428.16 124.04 428.053 124 427.96 123.92C427.867 123.84 427.807 123.733 427.78 123.6C427.687 122.84 427.567 121.98 427.42 121.02C427.273 120.06 427.113 119.067 426.94 118.04C426.767 117.013 426.587 116.02 426.4 115.06C425.96 115.953 425.507 116.887 425.04 117.86C424.587 118.82 424.153 119.767 423.74 120.7C423.327 121.633 422.953 122.507 422.62 123.32C422.527 123.547 422.38 123.66 422.18 123.66C421.94 123.66 421.78 123.567 421.7 123.38C421.313 122.553 420.887 121.66 420.42 120.7C419.953 119.727 419.487 118.753 419.02 117.78C418.567 116.807 418.14 115.907 417.74 115.08C417.633 115.787 417.52 116.533 417.4 117.32C417.293 118.107 417.187 118.887 417.08 119.66C416.987 120.433 416.893 121.16 416.8 121.84C416.72 122.52 416.653 123.107 416.6 123.6C416.587 123.72 416.527 123.827 416.42 123.92C416.327 124 416.213 124.04 416.08 124.04C415.947 124.04 415.833 123.993 415.74 123.9C415.647 123.793 415.6 123.667 415.6 123.52C415.6 123.493 415.62 123.3 415.66 122.94C415.713 122.5 415.787 121.9 415.88 121.14C415.973 120.38 416.08 119.553 416.2 118.66C416.32 117.753 416.447 116.853 416.58 115.96C416.713 115.067 416.84 114.26 416.96 113.54C416.987 113.42 417.047 113.32 417.14 113.24C417.247 113.16 417.36 113.12 417.48 113.12C417.64 113.12 417.76 113.173 417.84 113.28C417.973 113.413 418.08 113.573 418.16 113.76C418.533 114.507 418.94 115.347 419.38 116.28C419.833 117.2 420.3 118.147 420.78 119.12C421.26 120.093 421.713 121.027 422.14 121.92C422.527 121.04 422.94 120.107 423.38 119.12C423.833 118.12 424.293 117.127 424.76 116.14C425.24 115.14 425.707 114.213 426.16 113.36C426.267 113.187 426.42 113.1 426.62 113.1C426.74 113.1 426.853 113.14 426.96 113.22C427.067 113.287 427.127 113.38 427.14 113.5C427.3 114.287 427.453 115.127 427.6 116.02C427.76 116.9 427.907 117.747 428.04 118.56C428.173 119.373 428.28 120.087 428.36 120.7C428.453 121.3 428.52 121.713 428.56 121.94C428.667 122.593 428.727 123.013 428.74 123.2C428.767 123.387 428.78 123.5 428.78 123.54C428.78 123.673 428.733 123.793 428.64 123.9C428.547 123.993 428.427 124.04 428.28 124.04ZM437.669 123.82C437.375 123.513 437.149 123.127 436.989 122.66C436.535 123.087 436.035 123.42 435.489 123.66C434.955 123.887 434.375 124 433.749 124C433.135 124 432.649 123.887 432.289 123.66C431.929 123.433 431.675 123.153 431.529 122.82C431.382 122.487 431.309 122.173 431.309 121.88C431.309 121.56 431.362 121.253 431.469 120.96C431.589 120.653 431.769 120.387 432.009 120.16C432.342 119.853 432.789 119.593 433.349 119.38C433.909 119.167 434.595 119.06 435.409 119.06C435.835 119.06 436.289 119.08 436.769 119.12C436.715 118.52 436.515 118.047 436.169 117.7C435.822 117.34 435.302 117.16 434.609 117.16C434.342 117.16 434.069 117.187 433.789 117.24C433.509 117.28 433.295 117.327 433.149 117.38C432.975 117.447 432.849 117.48 432.769 117.48C432.635 117.48 432.515 117.433 432.409 117.34C432.302 117.233 432.249 117.12 432.249 117C432.249 116.747 432.362 116.58 432.589 116.5C432.815 116.433 433.115 116.36 433.489 116.28C433.875 116.2 434.249 116.16 434.609 116.16C435.702 116.16 436.502 116.46 437.009 117.06C437.529 117.66 437.789 118.44 437.789 119.4V121.22C437.789 121.673 437.835 122.053 437.929 122.36C438.035 122.653 438.189 122.913 438.389 123.14C438.482 123.233 438.529 123.347 438.529 123.48C438.529 123.613 438.475 123.733 438.369 123.84C438.275 123.933 438.162 123.98 438.029 123.98C437.895 123.98 437.775 123.927 437.669 123.82ZM433.749 123C434.322 123 434.869 122.873 435.389 122.62C435.909 122.353 436.375 121.953 436.789 121.42V120.12C436.295 120.08 435.835 120.06 435.409 120.06C434.142 120.06 433.249 120.32 432.729 120.84C432.569 121 432.455 121.167 432.389 121.34C432.335 121.513 432.309 121.693 432.309 121.88C432.309 122.147 432.422 122.4 432.649 122.64C432.889 122.88 433.255 123 433.749 123ZM446.993 124C446.846 124 446.719 123.94 446.613 123.82C446.199 123.353 445.746 122.853 445.253 122.32C444.773 121.773 444.279 121.227 443.773 120.68C443.213 121.293 442.679 121.88 442.173 122.44C441.679 123 441.273 123.46 440.953 123.82C440.859 123.94 440.733 124 440.573 124C440.439 124 440.319 123.953 440.213 123.86C440.119 123.753 440.073 123.633 440.073 123.5C440.073 123.367 440.113 123.26 440.193 123.18C440.513 122.807 440.933 122.333 441.453 121.76C441.973 121.187 442.519 120.58 443.093 119.94C442.599 119.393 442.119 118.867 441.653 118.36C441.199 117.853 440.799 117.393 440.453 116.98C440.373 116.9 440.333 116.8 440.333 116.68C440.333 116.533 440.379 116.413 440.473 116.32C440.579 116.213 440.693 116.16 440.813 116.16C440.986 116.16 441.119 116.22 441.213 116.34C441.559 116.74 441.946 117.187 442.373 117.68C442.813 118.16 443.279 118.667 443.773 119.2C444.239 118.68 444.679 118.173 445.093 117.68C445.519 117.187 445.886 116.74 446.193 116.34C446.299 116.22 446.433 116.16 446.593 116.16C446.739 116.16 446.859 116.213 446.953 116.32C447.046 116.427 447.093 116.54 447.093 116.66C447.093 116.793 447.059 116.9 446.993 116.98C446.673 117.393 446.286 117.853 445.833 118.36C445.379 118.867 444.913 119.393 444.433 119.94C444.966 120.513 445.486 121.08 445.993 121.64C446.499 122.187 446.959 122.7 447.373 123.18C447.453 123.26 447.493 123.367 447.493 123.5C447.493 123.62 447.446 123.733 447.353 123.84C447.259 123.947 447.139 124 446.993 124ZM450.953 116.54C451.22 116.54 451.44 116.647 451.613 116.86C451.787 117.06 451.873 117.313 451.873 117.62C451.873 117.993 451.787 118.267 451.613 118.44C451.453 118.613 451.24 118.7 450.973 118.7C450.76 118.7 450.553 118.613 450.353 118.44C450.153 118.267 450.053 117.993 450.053 117.62C450.053 117.3 450.133 117.04 450.293 116.84C450.453 116.64 450.673 116.54 450.953 116.54ZM450.953 121.94C451.22 121.94 451.44 122.047 451.613 122.26C451.787 122.46 451.873 122.713 451.873 123.02C451.873 123.393 451.787 123.667 451.613 123.84C451.453 124.013 451.24 124.1 450.973 124.1C450.76 124.1 450.553 124.013 450.353 123.84C450.153 123.667 450.053 123.393 450.053 123.02C450.053 122.7 450.133 122.44 450.293 122.24C450.453 122.04 450.673 121.94 450.953 121.94Z" fill="#E7E7E7"/>
<rect x="127" y="102" width="118" height="32" rx="16" fill="#202020"/>
<circle cx="228" cy="118" r="9" fill="#202020" stroke="#2B2B2B" stroke-width="4"/>
<path d="M228 129C225.083 129 222.285 127.841 220.222 125.778C218.159 123.715 217 120.917 217 118C217 115.083 218.159 112.285 220.222 110.222C222.285 108.159 225.083 107 228 107L228 111.002C226.144 111.002 224.365 111.74 223.052 113.052C221.74 114.364 221.003 116.144 221.003 118C221.003 119.856 221.74 121.636 223.052 122.948C224.365 124.26 226.144 124.998 228 124.998L228 129Z" fill="#62BDFF"/>
<path d="M228 107V111" stroke="#E7E7E7" stroke-width="2" stroke-linecap="round"/>
<path d="M142.414 114.64C141.761 114.293 140.934 114.12 139.934 114.12C139.134 114.12 138.394 114.313 137.714 114.7C137.047 115.087 136.507 115.627 136.094 116.32C135.681 117 135.474 117.8 135.474 118.72C135.474 119.56 135.654 120.32 136.014 121C136.374 121.667 136.894 122.2 137.574 122.6C138.267 122.987 139.094 123.18 140.054 123.18C140.534 123.18 140.981 123.133 141.394 123.04C141.821 122.947 142.201 122.813 142.534 122.64C142.601 122.6 142.674 122.58 142.754 122.58C142.901 122.58 143.021 122.627 143.114 122.72C143.207 122.813 143.254 122.933 143.254 123.08C143.254 123.293 143.161 123.44 142.974 123.52C142.574 123.733 142.127 123.893 141.634 124C141.141 124.12 140.614 124.18 140.054 124.18C138.881 124.18 137.874 123.94 137.034 123.46C136.207 122.98 135.574 122.327 135.134 121.5C134.694 120.673 134.474 119.747 134.474 118.72C134.474 117.6 134.727 116.62 135.234 115.78C135.741 114.94 136.407 114.287 137.234 113.82C138.061 113.353 138.961 113.12 139.934 113.12C141.134 113.12 142.121 113.333 142.894 113.76C143.067 113.867 143.154 114.013 143.154 114.2C143.154 114.32 143.107 114.433 143.014 114.54C142.921 114.647 142.801 114.7 142.654 114.7C142.574 114.7 142.494 114.68 142.414 114.64ZM146.782 124C146.649 124 146.529 123.953 146.422 123.86C146.329 123.753 146.282 123.633 146.282 123.5V116.66C146.282 116.513 146.329 116.393 146.422 116.3C146.529 116.207 146.649 116.16 146.782 116.16C146.929 116.16 147.049 116.207 147.142 116.3C147.235 116.393 147.282 116.513 147.282 116.66V117.84C147.802 117.293 148.355 116.88 148.942 116.6C149.529 116.32 150.095 116.18 150.642 116.18C150.789 116.18 150.902 116.227 150.982 116.32C151.075 116.4 151.122 116.507 151.122 116.64C151.122 116.947 150.975 117.12 150.682 117.16C149.909 117.253 149.255 117.5 148.722 117.9C148.189 118.3 147.709 118.82 147.282 119.46V123.5C147.282 123.633 147.235 123.753 147.142 123.86C147.049 123.953 146.929 124 146.782 124ZM156.143 116.08C156.957 116.08 157.657 116.267 158.243 116.64C158.843 117 159.303 117.493 159.623 118.12C159.957 118.733 160.123 119.42 160.123 120.18C160.123 120.913 159.957 121.573 159.623 122.16C159.303 122.747 158.843 123.213 158.243 123.56C157.657 123.907 156.957 124.08 156.143 124.08C155.343 124.08 154.643 123.907 154.043 123.56C153.443 123.213 152.977 122.74 152.643 122.14C152.323 121.54 152.163 120.873 152.163 120.14C152.163 119.393 152.323 118.713 152.643 118.1C152.963 117.487 153.423 117 154.023 116.64C154.623 116.267 155.33 116.08 156.143 116.08ZM156.143 117.08C155.53 117.08 154.997 117.22 154.543 117.5C154.103 117.78 153.763 118.153 153.523 118.62C153.283 119.073 153.163 119.58 153.163 120.14C153.163 120.967 153.43 121.667 153.963 122.24C154.51 122.8 155.237 123.08 156.143 123.08C157.05 123.08 157.77 122.8 158.303 122.24C158.85 121.68 159.123 120.993 159.123 120.18C159.123 119.607 159.003 119.087 158.763 118.62C158.523 118.153 158.177 117.78 157.723 117.5C157.283 117.22 156.757 117.08 156.143 117.08ZM167.21 117.32C167.077 117.28 166.844 117.233 166.51 117.18C166.19 117.127 165.837 117.1 165.45 117.1C164.797 117.1 164.29 117.213 163.93 117.44C163.57 117.667 163.39 117.947 163.39 118.28C163.39 118.573 163.537 118.813 163.83 119C164.137 119.173 164.637 119.293 165.33 119.36L166.13 119.44C166.81 119.507 167.344 119.66 167.73 119.9C168.117 120.14 168.39 120.427 168.55 120.76C168.71 121.08 168.79 121.42 168.79 121.78C168.79 122.14 168.697 122.5 168.51 122.86C168.324 123.207 167.997 123.5 167.53 123.74C167.077 123.967 166.424 124.08 165.57 124.08C165.077 124.08 164.57 124.033 164.05 123.94C163.53 123.833 163.037 123.68 162.57 123.48C162.37 123.387 162.27 123.227 162.27 123C162.27 122.88 162.324 122.773 162.43 122.68C162.537 122.573 162.657 122.52 162.79 122.52C162.817 122.52 162.864 122.533 162.93 122.56C162.997 122.587 163.117 122.633 163.29 122.7C163.544 122.793 163.877 122.88 164.29 122.96C164.704 123.04 165.13 123.08 165.57 123.08C166.29 123.08 166.837 122.96 167.21 122.72C167.597 122.467 167.79 122.153 167.79 121.78C167.79 121.433 167.657 121.14 167.39 120.9C167.124 120.647 166.677 120.493 166.05 120.44L165.25 120.36C164.464 120.28 163.864 120.133 163.45 119.92C163.037 119.693 162.757 119.433 162.61 119.14C162.464 118.847 162.39 118.553 162.39 118.26C162.39 117.927 162.477 117.6 162.65 117.28C162.837 116.947 163.15 116.667 163.59 116.44C164.044 116.213 164.664 116.1 165.45 116.1C165.904 116.1 166.324 116.133 166.71 116.2C167.11 116.253 167.464 116.327 167.77 116.42C167.877 116.433 167.964 116.493 168.03 116.6C168.097 116.693 168.13 116.793 168.13 116.9C168.13 117.047 168.077 117.167 167.97 117.26C167.877 117.353 167.764 117.4 167.63 117.4C167.55 117.4 167.41 117.373 167.21 117.32ZM176.019 117.32C175.886 117.28 175.652 117.233 175.319 117.18C174.999 117.127 174.646 117.1 174.259 117.1C173.606 117.1 173.099 117.213 172.739 117.44C172.379 117.667 172.199 117.947 172.199 118.28C172.199 118.573 172.346 118.813 172.639 119C172.946 119.173 173.446 119.293 174.139 119.36L174.939 119.44C175.619 119.507 176.152 119.66 176.539 119.9C176.926 120.14 177.199 120.427 177.359 120.76C177.519 121.08 177.599 121.42 177.599 121.78C177.599 122.14 177.506 122.5 177.319 122.86C177.132 123.207 176.806 123.5 176.339 123.74C175.886 123.967 175.232 124.08 174.379 124.08C173.886 124.08 173.379 124.033 172.859 123.94C172.339 123.833 171.846 123.68 171.379 123.48C171.179 123.387 171.079 123.227 171.079 123C171.079 122.88 171.132 122.773 171.239 122.68C171.346 122.573 171.466 122.52 171.599 122.52C171.626 122.52 171.672 122.533 171.739 122.56C171.806 122.587 171.926 122.633 172.099 122.7C172.352 122.793 172.686 122.88 173.099 122.96C173.512 123.04 173.939 123.08 174.379 123.08C175.099 123.08 175.646 122.96 176.019 122.72C176.406 122.467 176.599 122.153 176.599 121.78C176.599 121.433 176.466 121.14 176.199 120.9C175.932 120.647 175.486 120.493 174.859 120.44L174.059 120.36C173.272 120.28 172.672 120.133 172.259 119.92C171.846 119.693 171.566 119.433 171.419 119.14C171.272 118.847 171.199 118.553 171.199 118.26C171.199 117.927 171.286 117.6 171.459 117.28C171.646 116.947 171.959 116.667 172.399 116.44C172.852 116.213 173.472 116.1 174.259 116.1C174.712 116.1 175.132 116.133 175.519 116.2C175.919 116.253 176.272 116.327 176.579 116.42C176.686 116.433 176.772 116.493 176.839 116.6C176.906 116.693 176.939 116.793 176.939 116.9C176.939 117.047 176.886 117.167 176.779 117.26C176.686 117.353 176.572 117.4 176.439 117.4C176.359 117.4 176.219 117.373 176.019 117.32ZM181.403 124C181.269 124 181.149 123.953 181.043 123.86C180.949 123.753 180.903 123.633 180.903 123.5V117.16H179.643C179.509 117.16 179.389 117.113 179.283 117.02C179.189 116.913 179.143 116.793 179.143 116.66C179.143 116.513 179.189 116.393 179.283 116.3C179.389 116.207 179.509 116.16 179.643 116.16H180.903V115.2C180.903 114.213 181.189 113.48 181.763 113C182.349 112.52 183.143 112.28 184.143 112.28C184.289 112.28 184.403 112.327 184.483 112.42C184.576 112.513 184.623 112.633 184.623 112.78C184.623 112.9 184.576 113.013 184.483 113.12C184.389 113.213 184.276 113.26 184.143 113.26C183.329 113.26 182.749 113.44 182.403 113.8C182.069 114.147 181.903 114.613 181.903 115.2V116.16H184.163C184.309 116.16 184.429 116.207 184.523 116.3C184.616 116.393 184.663 116.513 184.663 116.66C184.663 116.793 184.616 116.913 184.523 117.02C184.429 117.113 184.309 117.16 184.163 117.16H181.903V123.5C181.903 123.633 181.856 123.753 181.763 123.86C181.669 123.953 181.549 124 181.403 124ZM192.059 123.82C191.766 123.513 191.539 123.127 191.379 122.66C190.926 123.087 190.426 123.42 189.879 123.66C189.346 123.887 188.766 124 188.139 124C187.526 124 187.039 123.887 186.679 123.66C186.319 123.433 186.066 123.153 185.919 122.82C185.773 122.487 185.699 122.173 185.699 121.88C185.699 121.56 185.753 121.253 185.859 120.96C185.979 120.653 186.159 120.387 186.399 120.16C186.733 119.853 187.179 119.593 187.739 119.38C188.299 119.167 188.986 119.06 189.799 119.06C190.226 119.06 190.679 119.08 191.159 119.12C191.106 118.52 190.906 118.047 190.559 117.7C190.213 117.34 189.693 117.16 188.999 117.16C188.733 117.16 188.459 117.187 188.179 117.24C187.899 117.28 187.686 117.327 187.539 117.38C187.366 117.447 187.239 117.48 187.159 117.48C187.026 117.48 186.906 117.433 186.799 117.34C186.693 117.233 186.639 117.12 186.639 117C186.639 116.747 186.753 116.58 186.979 116.5C187.206 116.433 187.506 116.36 187.879 116.28C188.266 116.2 188.639 116.16 188.999 116.16C190.093 116.16 190.893 116.46 191.399 117.06C191.919 117.66 192.179 118.44 192.179 119.4V121.22C192.179 121.673 192.226 122.053 192.319 122.36C192.426 122.653 192.579 122.913 192.779 123.14C192.873 123.233 192.919 123.347 192.919 123.48C192.919 123.613 192.866 123.733 192.759 123.84C192.666 123.933 192.553 123.98 192.419 123.98C192.286 123.98 192.166 123.927 192.059 123.82ZM188.139 123C188.713 123 189.259 122.873 189.779 122.62C190.299 122.353 190.766 121.953 191.179 121.42V120.12C190.686 120.08 190.226 120.06 189.799 120.06C188.533 120.06 187.639 120.32 187.119 120.84C186.959 121 186.846 121.167 186.779 121.34C186.726 121.513 186.699 121.693 186.699 121.88C186.699 122.147 186.813 122.4 187.039 122.64C187.279 122.88 187.646 123 188.139 123ZM201.603 124C201.47 124 201.35 123.953 201.243 123.86C201.15 123.753 201.103 123.633 201.103 123.5V122.66C200.717 123.073 200.277 123.4 199.783 123.64C199.303 123.88 198.77 124 198.183 124C197.53 124 196.937 123.847 196.403 123.54C195.883 123.233 195.463 122.8 195.143 122.24C194.837 121.667 194.683 121 194.683 120.24C194.683 119.44 194.85 118.733 195.183 118.12C195.53 117.507 195.997 117.027 196.583 116.68C197.183 116.333 197.857 116.16 198.603 116.16C199.083 116.16 199.523 116.227 199.923 116.36C200.337 116.48 200.73 116.653 201.103 116.88V113.28C201.103 113.133 201.15 113.013 201.243 112.92C201.35 112.827 201.47 112.78 201.603 112.78C201.75 112.78 201.87 112.827 201.963 112.92C202.057 113.013 202.103 113.133 202.103 113.28V123.5C202.103 123.633 202.057 123.753 201.963 123.86C201.87 123.953 201.75 124 201.603 124ZM198.183 123C198.85 123 199.417 122.827 199.883 122.48C200.363 122.133 200.77 121.687 201.103 121.14V118.08C200.73 117.787 200.343 117.56 199.943 117.4C199.557 117.24 199.11 117.16 198.603 117.16C198.043 117.16 197.543 117.293 197.103 117.56C196.663 117.827 196.317 118.193 196.063 118.66C195.81 119.113 195.683 119.64 195.683 120.24C195.683 121.053 195.917 121.72 196.383 122.24C196.863 122.747 197.463 123 198.183 123ZM209.041 124C207.761 124 206.728 123.667 205.941 123C205.168 122.333 204.781 121.393 204.781 120.18C204.781 119.367 204.954 118.66 205.301 118.06C205.648 117.46 206.108 116.993 206.681 116.66C207.268 116.327 207.914 116.16 208.621 116.16C209.328 116.16 209.921 116.3 210.401 116.58C210.881 116.86 211.241 117.207 211.481 117.62C211.734 118.033 211.861 118.44 211.861 118.84C211.861 119.32 211.708 119.733 211.401 120.08C211.108 120.427 210.548 120.6 209.721 120.6H205.801C205.908 121.4 206.254 122 206.841 122.4C207.441 122.8 208.174 123 209.041 123C209.374 123 209.674 122.973 209.941 122.92C210.221 122.867 210.434 122.813 210.581 122.76C210.728 122.707 210.821 122.673 210.861 122.66C210.914 122.647 210.954 122.64 210.981 122.64C211.114 122.64 211.228 122.693 211.321 122.8C211.428 122.893 211.481 123.007 211.481 123.14C211.481 123.367 211.374 123.52 211.161 123.6C210.881 123.707 210.554 123.8 210.181 123.88C209.808 123.96 209.428 124 209.041 124ZM208.621 117.16C207.914 117.16 207.301 117.387 206.781 117.84C206.261 118.28 205.941 118.867 205.821 119.6H209.741C210.501 119.6 210.881 119.347 210.881 118.84C210.881 118.427 210.674 118.047 210.261 117.7C209.848 117.34 209.301 117.16 208.621 117.16Z" fill="#E7E7E7"/>
<rect x="532" y="102" width="65" height="32" rx="16" fill="#202020"/>
<circle cx="582" cy="118" r="9" fill="#202020" stroke="#2B2B2B" stroke-width="4"/>
<path d="M582 107V111" stroke="#E7E7E7" stroke-width="2" stroke-linecap="round"/>
<path d="M540.827 124C540.694 124 540.574 123.953 540.467 123.86C540.374 123.753 540.327 123.633 540.327 123.5V113.8C540.327 113.653 540.374 113.533 540.467 113.44C540.574 113.347 540.694 113.3 540.827 113.3H543.687C544.474 113.3 545.16 113.46 545.747 113.78C546.334 114.087 546.787 114.507 547.107 115.04C547.44 115.573 547.607 116.187 547.607 116.88C547.607 117.52 547.46 118.113 547.167 118.66C546.887 119.207 546.454 119.647 545.867 119.98C545.294 120.313 544.567 120.48 543.687 120.48H541.327V123.5C541.327 123.633 541.28 123.753 541.187 123.86C541.094 123.953 540.974 124 540.827 124ZM541.327 114.3V119.48H543.687C544.634 119.48 545.354 119.233 545.847 118.74C546.354 118.233 546.607 117.613 546.607 116.88C546.607 116.107 546.334 115.487 545.787 115.02C545.24 114.54 544.54 114.3 543.687 114.3H541.327ZM555.415 123.82C555.121 123.513 554.895 123.127 554.735 122.66C554.281 123.087 553.781 123.42 553.235 123.66C552.701 123.887 552.121 124 551.495 124C550.881 124 550.395 123.887 550.035 123.66C549.675 123.433 549.421 123.153 549.275 122.82C549.128 122.487 549.055 122.173 549.055 121.88C549.055 121.56 549.108 121.253 549.215 120.96C549.335 120.653 549.515 120.387 549.755 120.16C550.088 119.853 550.535 119.593 551.095 119.38C551.655 119.167 552.341 119.06 553.155 119.06C553.581 119.06 554.035 119.08 554.515 119.12C554.461 118.52 554.261 118.047 553.915 117.7C553.568 117.34 553.048 117.16 552.355 117.16C552.088 117.16 551.815 117.187 551.535 117.24C551.255 117.28 551.041 117.327 550.895 117.38C550.721 117.447 550.595 117.48 550.515 117.48C550.381 117.48 550.261 117.433 550.155 117.34C550.048 117.233 549.995 117.12 549.995 117C549.995 116.747 550.108 116.58 550.335 116.5C550.561 116.433 550.861 116.36 551.235 116.28C551.621 116.2 551.995 116.16 552.355 116.16C553.448 116.16 554.248 116.46 554.755 117.06C555.275 117.66 555.535 118.44 555.535 119.4V121.22C555.535 121.673 555.581 122.053 555.675 122.36C555.781 122.653 555.935 122.913 556.135 123.14C556.228 123.233 556.275 123.347 556.275 123.48C556.275 123.613 556.221 123.733 556.115 123.84C556.021 123.933 555.908 123.98 555.775 123.98C555.641 123.98 555.521 123.927 555.415 123.82ZM551.495 123C552.068 123 552.615 122.873 553.135 122.62C553.655 122.353 554.121 121.953 554.535 121.42V120.12C554.041 120.08 553.581 120.06 553.155 120.06C551.888 120.06 550.995 120.32 550.475 120.84C550.315 121 550.201 121.167 550.135 121.34C550.081 121.513 550.055 121.693 550.055 121.88C550.055 122.147 550.168 122.4 550.395 122.64C550.635 122.88 551.001 123 551.495 123ZM564.998 124C564.865 124 564.745 123.953 564.638 123.86C564.545 123.753 564.498 123.633 564.498 123.5V119.5C564.498 118.673 564.338 118.08 564.018 117.72C563.712 117.347 563.292 117.16 562.758 117.16C562.198 117.16 561.665 117.313 561.158 117.62C560.652 117.913 560.185 118.273 559.758 118.7V123.5C559.758 123.633 559.712 123.753 559.618 123.86C559.525 123.953 559.405 124 559.258 124C559.125 124 559.005 123.953 558.898 123.86C558.805 123.753 558.758 123.633 558.758 123.5V116.66C558.758 116.513 558.805 116.393 558.898 116.3C559.005 116.207 559.125 116.16 559.258 116.16C559.405 116.16 559.525 116.207 559.618 116.3C559.712 116.393 559.758 116.513 559.758 116.66V117.38C560.212 117.02 560.685 116.727 561.178 116.5C561.672 116.273 562.198 116.16 562.758 116.16C563.265 116.16 563.725 116.26 564.138 116.46C564.552 116.66 564.878 117.007 565.118 117.5C565.372 117.98 565.498 118.647 565.498 119.5V123.5C565.498 123.633 565.452 123.753 565.358 123.86C565.265 123.953 565.145 124 564.998 124Z" fill="#E7E7E7"/>
<rect x="617" y="103" width="116" height="32" rx="16" fill="#202020"/>
<path d="M632.4 115.62C632.08 115.487 631.727 115.38 631.34 115.3C630.967 115.22 630.473 115.18 629.86 115.18C629.18 115.18 628.64 115.353 628.24 115.7C627.84 116.033 627.64 116.413 627.64 116.84C627.64 117.267 627.827 117.653 628.2 118C628.573 118.347 629.3 118.647 630.38 118.9C631.34 119.113 632.08 119.387 632.6 119.72C633.133 120.053 633.507 120.433 633.72 120.86C633.933 121.273 634.04 121.733 634.04 122.24C634.04 122.733 633.913 123.207 633.66 123.66C633.42 124.1 633.02 124.467 632.46 124.76C631.913 125.04 631.18 125.18 630.26 125.18C628.953 125.18 627.747 124.873 626.64 124.26C626.467 124.153 626.38 124.007 626.38 123.82C626.38 123.7 626.427 123.587 626.52 123.48C626.613 123.373 626.733 123.32 626.88 123.32C626.96 123.32 627.04 123.34 627.12 123.38C628.067 123.913 629.113 124.18 630.26 124.18C631.167 124.18 631.853 123.993 632.32 123.62C632.8 123.233 633.04 122.773 633.04 122.24C633.04 121.68 632.813 121.213 632.36 120.84C631.92 120.467 631.193 120.153 630.18 119.9C629.233 119.66 628.5 119.387 627.98 119.08C627.473 118.773 627.12 118.427 626.92 118.04C626.733 117.653 626.64 117.227 626.64 116.76C626.64 116.333 626.76 115.927 627 115.54C627.253 115.14 627.62 114.813 628.1 114.56C628.58 114.307 629.167 114.18 629.86 114.18C630.593 114.18 631.18 114.24 631.62 114.36C632.073 114.467 632.547 114.62 633.04 114.82C633.253 114.9 633.36 115.053 633.36 115.28C633.36 115.413 633.307 115.533 633.2 115.64C633.107 115.733 632.993 115.78 632.86 115.78C632.833 115.78 632.793 115.773 632.74 115.76C632.687 115.733 632.573 115.687 632.4 115.62ZM638.013 128.32C638.013 128.453 637.966 128.567 637.873 128.66C637.779 128.767 637.659 128.82 637.513 128.82C637.379 128.82 637.259 128.767 637.153 128.66C637.059 128.567 637.013 128.453 637.013 128.32V117.66C637.013 117.513 637.059 117.393 637.153 117.3C637.259 117.207 637.379 117.16 637.513 117.16C637.659 117.16 637.779 117.207 637.873 117.3C637.966 117.393 638.013 117.513 638.013 117.66V118.46C638.439 118.047 638.886 117.727 639.353 117.5C639.833 117.273 640.333 117.16 640.853 117.16C641.479 117.16 642.059 117.307 642.593 117.6C643.139 117.893 643.579 118.333 643.913 118.92C644.246 119.493 644.413 120.213 644.413 121.08C644.413 121.827 644.253 122.5 643.933 123.1C643.613 123.687 643.166 124.153 642.593 124.5C642.019 124.833 641.359 125 640.613 125C640.173 125 639.733 124.927 639.293 124.78C638.853 124.633 638.426 124.433 638.013 124.18V128.32ZM640.613 124C641.453 124 642.126 123.72 642.633 123.16C643.153 122.587 643.413 121.893 643.413 121.08C643.413 120.147 643.159 119.427 642.653 118.92C642.146 118.413 641.546 118.16 640.853 118.16C640.293 118.16 639.773 118.327 639.293 118.66C638.826 118.98 638.399 119.407 638.013 119.94V122.98C638.399 123.273 638.813 123.52 639.253 123.72C639.706 123.907 640.159 124 640.613 124ZM652.536 124.82C652.242 124.513 652.016 124.127 651.856 123.66C651.402 124.087 650.902 124.42 650.356 124.66C649.822 124.887 649.242 125 648.616 125C648.002 125 647.516 124.887 647.156 124.66C646.796 124.433 646.542 124.153 646.396 123.82C646.249 123.487 646.176 123.173 646.176 122.88C646.176 122.56 646.229 122.253 646.336 121.96C646.456 121.653 646.636 121.387 646.876 121.16C647.209 120.853 647.656 120.593 648.216 120.38C648.776 120.167 649.462 120.06 650.276 120.06C650.702 120.06 651.156 120.08 651.636 120.12C651.582 119.52 651.382 119.047 651.036 118.7C650.689 118.34 650.169 118.16 649.476 118.16C649.209 118.16 648.936 118.187 648.656 118.24C648.376 118.28 648.162 118.327 648.016 118.38C647.842 118.447 647.716 118.48 647.636 118.48C647.502 118.48 647.382 118.433 647.276 118.34C647.169 118.233 647.116 118.12 647.116 118C647.116 117.747 647.229 117.58 647.456 117.5C647.682 117.433 647.982 117.36 648.356 117.28C648.742 117.2 649.116 117.16 649.476 117.16C650.569 117.16 651.369 117.46 651.876 118.06C652.396 118.66 652.656 119.44 652.656 120.4V122.22C652.656 122.673 652.702 123.053 652.796 123.36C652.902 123.653 653.056 123.913 653.256 124.14C653.349 124.233 653.396 124.347 653.396 124.48C653.396 124.613 653.342 124.733 653.236 124.84C653.142 124.933 653.029 124.98 652.896 124.98C652.762 124.98 652.642 124.927 652.536 124.82ZM648.616 124C649.189 124 649.736 123.873 650.256 123.62C650.776 123.353 651.242 122.953 651.656 122.42V121.12C651.162 121.08 650.702 121.06 650.276 121.06C649.009 121.06 648.116 121.32 647.596 121.84C647.436 122 647.322 122.167 647.256 122.34C647.202 122.513 647.176 122.693 647.176 122.88C647.176 123.147 647.289 123.4 647.516 123.64C647.756 123.88 648.122 124 648.616 124ZM659.76 125C658.533 125 657.66 124.747 657.14 124.24C656.62 123.72 656.36 123.027 656.36 122.16V118.16H655.1C654.966 118.16 654.846 118.113 654.74 118.02C654.646 117.913 654.6 117.793 654.6 117.66C654.6 117.513 654.646 117.393 654.74 117.3C654.846 117.207 654.966 117.16 655.1 117.16H656.36V115.14C656.36 114.993 656.406 114.873 656.5 114.78C656.606 114.687 656.726 114.64 656.86 114.64C657.006 114.64 657.126 114.687 657.22 114.78C657.313 114.873 657.36 114.993 657.36 115.14V117.16H660.02C660.166 117.16 660.286 117.207 660.38 117.3C660.473 117.393 660.52 117.513 660.52 117.66C660.52 117.793 660.473 117.913 660.38 118.02C660.286 118.113 660.166 118.16 660.02 118.16H657.36V122.16C657.36 123.387 658.16 124 659.76 124C659.906 124 660.026 124.053 660.12 124.16C660.213 124.253 660.26 124.367 660.26 124.5C660.26 124.633 660.206 124.753 660.1 124.86C660.006 124.953 659.893 125 659.76 125ZM663.55 113.06C663.777 113.06 663.97 113.153 664.13 113.34C664.29 113.513 664.37 113.753 664.37 114.06C664.37 114.367 664.29 114.6 664.13 114.76C663.97 114.92 663.783 115 663.57 115C663.33 115 663.123 114.92 662.95 114.76C662.79 114.587 662.71 114.353 662.71 114.06C662.71 113.753 662.79 113.513 662.95 113.34C663.11 113.153 663.31 113.06 663.55 113.06ZM663.07 117.66C663.07 117.513 663.117 117.393 663.21 117.3C663.317 117.207 663.437 117.16 663.57 117.16C663.717 117.16 663.837 117.207 663.93 117.3C664.023 117.393 664.07 117.513 664.07 117.66V124.5C664.07 124.633 664.023 124.753 663.93 124.86C663.837 124.953 663.717 125 663.57 125C663.437 125 663.317 124.953 663.21 124.86C663.117 124.753 663.07 124.633 663.07 124.5V117.66ZM673.258 124.82C672.965 124.513 672.738 124.127 672.578 123.66C672.125 124.087 671.625 124.42 671.078 124.66C670.545 124.887 669.965 125 669.338 125C668.725 125 668.238 124.887 667.878 124.66C667.518 124.433 667.265 124.153 667.118 123.82C666.972 123.487 666.898 123.173 666.898 122.88C666.898 122.56 666.952 122.253 667.058 121.96C667.178 121.653 667.358 121.387 667.598 121.16C667.932 120.853 668.378 120.593 668.938 120.38C669.498 120.167 670.185 120.06 670.998 120.06C671.425 120.06 671.878 120.08 672.358 120.12C672.305 119.52 672.105 119.047 671.758 118.7C671.412 118.34 670.892 118.16 670.198 118.16C669.932 118.16 669.658 118.187 669.378 118.24C669.098 118.28 668.885 118.327 668.738 118.38C668.565 118.447 668.438 118.48 668.358 118.48C668.225 118.48 668.105 118.433 667.998 118.34C667.892 118.233 667.838 118.12 667.838 118C667.838 117.747 667.952 117.58 668.178 117.5C668.405 117.433 668.705 117.36 669.078 117.28C669.465 117.2 669.838 117.16 670.198 117.16C671.292 117.16 672.092 117.46 672.598 118.06C673.118 118.66 673.378 119.44 673.378 120.4V122.22C673.378 122.673 673.425 123.053 673.518 123.36C673.625 123.653 673.778 123.913 673.978 124.14C674.072 124.233 674.118 124.347 674.118 124.48C674.118 124.613 674.065 124.733 673.958 124.84C673.865 124.933 673.752 124.98 673.618 124.98C673.485 124.98 673.365 124.927 673.258 124.82ZM669.338 124C669.912 124 670.458 123.873 670.978 123.62C671.498 123.353 671.965 122.953 672.378 122.42V121.12C671.885 121.08 671.425 121.06 670.998 121.06C669.732 121.06 668.838 121.32 668.318 121.84C668.158 122 668.045 122.167 667.978 122.34C667.925 122.513 667.898 122.693 667.898 122.88C667.898 123.147 668.012 123.4 668.238 123.64C668.478 123.88 668.845 124 669.338 124ZM676.722 114.28C676.722 114.133 676.769 114.013 676.862 113.92C676.969 113.827 677.089 113.78 677.222 113.78C677.369 113.78 677.489 113.827 677.582 113.92C677.676 114.013 677.722 114.133 677.722 114.28V124.5C677.722 124.633 677.676 124.753 677.582 124.86C677.489 124.953 677.369 125 677.222 125C677.089 125 676.969 124.953 676.862 124.86C676.769 124.753 676.722 124.633 676.722 124.5V114.28ZM681.851 113.06C682.077 113.06 682.271 113.153 682.431 113.34C682.591 113.513 682.671 113.753 682.671 114.06C682.671 114.367 682.591 114.6 682.431 114.76C682.271 114.92 682.084 115 681.871 115C681.631 115 681.424 114.92 681.251 114.76C681.091 114.587 681.011 114.353 681.011 114.06C681.011 113.753 681.091 113.513 681.251 113.34C681.411 113.153 681.611 113.06 681.851 113.06ZM681.371 117.66C681.371 117.513 681.417 117.393 681.511 117.3C681.617 117.207 681.737 117.16 681.871 117.16C682.017 117.16 682.137 117.207 682.231 117.3C682.324 117.393 682.371 117.513 682.371 117.66V124.5C682.371 124.633 682.324 124.753 682.231 124.86C682.137 124.953 682.017 125 681.871 125C681.737 125 681.617 124.953 681.511 124.86C681.417 124.753 681.371 124.633 681.371 124.5V117.66ZM690.499 118.32C690.366 118.28 690.133 118.233 689.799 118.18C689.479 118.127 689.126 118.1 688.739 118.1C688.086 118.1 687.579 118.213 687.219 118.44C686.859 118.667 686.679 118.947 686.679 119.28C686.679 119.573 686.826 119.813 687.119 120C687.426 120.173 687.926 120.293 688.619 120.36L689.419 120.44C690.099 120.507 690.633 120.66 691.019 120.9C691.406 121.14 691.679 121.427 691.839 121.76C691.999 122.08 692.079 122.42 692.079 122.78C692.079 123.14 691.986 123.5 691.799 123.86C691.613 124.207 691.286 124.5 690.819 124.74C690.366 124.967 689.713 125.08 688.859 125.08C688.366 125.08 687.859 125.033 687.339 124.94C686.819 124.833 686.326 124.68 685.859 124.48C685.659 124.387 685.559 124.227 685.559 124C685.559 123.88 685.613 123.773 685.719 123.68C685.826 123.573 685.946 123.52 686.079 123.52C686.106 123.52 686.153 123.533 686.219 123.56C686.286 123.587 686.406 123.633 686.579 123.7C686.833 123.793 687.166 123.88 687.579 123.96C687.993 124.04 688.419 124.08 688.859 124.08C689.579 124.08 690.126 123.96 690.499 123.72C690.886 123.467 691.079 123.153 691.079 122.78C691.079 122.433 690.946 122.14 690.679 121.9C690.413 121.647 689.966 121.493 689.339 121.44L688.539 121.36C687.753 121.28 687.153 121.133 686.739 120.92C686.326 120.693 686.046 120.433 685.899 120.14C685.753 119.847 685.679 119.553 685.679 119.26C685.679 118.927 685.766 118.6 685.939 118.28C686.126 117.947 686.439 117.667 686.879 117.44C687.333 117.213 687.953 117.1 688.739 117.1C689.193 117.1 689.613 117.133 689.999 117.2C690.399 117.253 690.753 117.327 691.059 117.42C691.166 117.433 691.253 117.493 691.319 117.6C691.386 117.693 691.419 117.793 691.419 117.9C691.419 118.047 691.366 118.167 691.259 118.26C691.166 118.353 691.053 118.4 690.919 118.4C690.839 118.4 690.699 118.373 690.499 118.32ZM698.443 125C697.163 125 696.13 124.667 695.343 124C694.57 123.333 694.183 122.393 694.183 121.18C694.183 120.367 694.356 119.66 694.703 119.06C695.05 118.46 695.51 117.993 696.083 117.66C696.67 117.327 697.316 117.16 698.023 117.16C698.73 117.16 699.323 117.3 699.803 117.58C700.283 117.86 700.643 118.207 700.883 118.62C701.136 119.033 701.263 119.44 701.263 119.84C701.263 120.32 701.11 120.733 700.803 121.08C700.51 121.427 699.95 121.6 699.123 121.6H695.203C695.31 122.4 695.656 123 696.243 123.4C696.843 123.8 697.576 124 698.443 124C698.776 124 699.076 123.973 699.343 123.92C699.623 123.867 699.836 123.813 699.983 123.76C700.13 123.707 700.223 123.673 700.263 123.66C700.316 123.647 700.356 123.64 700.383 123.64C700.516 123.64 700.63 123.693 700.723 123.8C700.83 123.893 700.883 124.007 700.883 124.14C700.883 124.367 700.776 124.52 700.563 124.6C700.283 124.707 699.956 124.8 699.583 124.88C699.21 124.96 698.83 125 698.443 125ZM698.023 118.16C697.316 118.16 696.703 118.387 696.183 118.84C695.663 119.28 695.343 119.867 695.223 120.6H699.143C699.903 120.6 700.283 120.347 700.283 119.84C700.283 119.427 700.076 119.047 699.663 118.7C699.25 118.34 698.703 118.16 698.023 118.16Z" fill="#E7E7E7"/>
<rect x="708" y="109" width="20" height="20" rx="10" fill="#2B2B2B"/>
<rect x="28" y="102" width="89" height="32" rx="16" fill="#202020"/>
<circle cx="100.258" cy="118.158" r="9" fill="#202020" stroke="#2B2B2B" stroke-width="6"/>
<path d="M100.149 106.013L100.149 112.013" stroke="#E7E7E7" stroke-width="2" stroke-linecap="round"/>
<path d="M36.46 124C36.3267 124 36.2067 123.953 36.1 123.86C36.0067 123.753 35.96 123.633 35.96 123.5V113.8C35.96 113.653 36.0067 113.533 36.1 113.44C36.2067 113.347 36.3267 113.3 36.46 113.3H39.32C40.1067 113.3 40.7933 113.46 41.38 113.78C41.9667 114.087 42.42 114.507 42.74 115.04C43.0733 115.573 43.24 116.187 43.24 116.88C43.24 117.52 43.0933 118.113 42.8 118.66C42.52 119.207 42.0867 119.647 41.5 119.98C40.9267 120.313 40.2 120.48 39.32 120.48H36.96V123.5C36.96 123.633 36.9133 123.753 36.82 123.86C36.7267 123.953 36.6067 124 36.46 124ZM36.96 114.3V119.48H39.32C40.2667 119.48 40.9867 119.233 41.48 118.74C41.9867 118.233 42.24 117.613 42.24 116.88C42.24 116.107 41.9667 115.487 41.42 115.02C40.8733 114.54 40.1733 114.3 39.32 114.3H36.96ZM46.3977 112.06C46.6243 112.06 46.8177 112.153 46.9777 112.34C47.1377 112.513 47.2177 112.753 47.2177 113.06C47.2177 113.367 47.1377 113.6 46.9777 113.76C46.8177 113.92 46.631 114 46.4177 114C46.1777 114 45.971 113.92 45.7977 113.76C45.6377 113.587 45.5577 113.353 45.5577 113.06C45.5577 112.753 45.6377 112.513 45.7977 112.34C45.9577 112.153 46.1577 112.06 46.3977 112.06ZM45.9177 116.66C45.9177 116.513 45.9643 116.393 46.0577 116.3C46.1643 116.207 46.2843 116.16 46.4177 116.16C46.5643 116.16 46.6843 116.207 46.7777 116.3C46.871 116.393 46.9177 116.513 46.9177 116.66V123.5C46.9177 123.633 46.871 123.753 46.7777 123.86C46.6843 123.953 46.5643 124 46.4177 124C46.2843 124 46.1643 123.953 46.0577 123.86C45.9643 123.753 45.9177 123.633 45.9177 123.5V116.66ZM54.3261 124C53.0994 124 52.2261 123.747 51.7061 123.24C51.1861 122.72 50.9261 122.027 50.9261 121.16V117.16H49.6661C49.5328 117.16 49.4128 117.113 49.3061 117.02C49.2128 116.913 49.1661 116.793 49.1661 116.66C49.1661 116.513 49.2128 116.393 49.3061 116.3C49.4128 116.207 49.5328 116.16 49.6661 116.16H50.9261V114.14C50.9261 113.993 50.9728 113.873 51.0661 113.78C51.1728 113.687 51.2928 113.64 51.4261 113.64C51.5728 113.64 51.6928 113.687 51.7861 113.78C51.8794 113.873 51.9261 113.993 51.9261 114.14V116.16H54.5861C54.7328 116.16 54.8528 116.207 54.9461 116.3C55.0394 116.393 55.0861 116.513 55.0861 116.66C55.0861 116.793 55.0394 116.913 54.9461 117.02C54.8528 117.113 54.7328 117.16 54.5861 117.16H51.9261V121.16C51.9261 122.387 52.7261 123 54.3261 123C54.4728 123 54.5928 123.053 54.6861 123.16C54.7794 123.253 54.8261 123.367 54.8261 123.5C54.8261 123.633 54.7728 123.753 54.6661 123.86C54.5728 123.953 54.4594 124 54.3261 124ZM62.2211 117.38C61.7411 117.233 61.2744 117.16 60.8211 117.16C59.8078 117.16 59.0144 117.453 58.4411 118.04C57.8811 118.613 57.6011 119.353 57.6011 120.26C57.6011 121.047 57.8811 121.7 58.4411 122.22C59.0011 122.74 59.7878 123 60.8011 123C61.1744 123 61.5011 122.973 61.7811 122.92C62.0611 122.853 62.2811 122.793 62.4411 122.74C62.5878 122.687 62.6811 122.653 62.7211 122.64C62.7744 122.627 62.8144 122.62 62.8411 122.62C62.9744 122.62 63.0878 122.673 63.1811 122.78C63.2878 122.873 63.3411 122.987 63.3411 123.12C63.3411 123.347 63.2344 123.5 63.0211 123.58C62.7278 123.7 62.3944 123.8 62.0211 123.88C61.6611 123.96 61.2544 124 60.8011 124C59.8944 124 59.1278 123.833 58.5011 123.5C57.8744 123.153 57.4011 122.7 57.0811 122.14C56.7611 121.567 56.6011 120.94 56.6011 120.26C56.6011 119.473 56.7678 118.773 57.1011 118.16C57.4344 117.533 57.9144 117.047 58.5411 116.7C59.1678 116.34 59.9278 116.16 60.8211 116.16C61.5011 116.16 62.1478 116.267 62.7611 116.48C62.9878 116.56 63.1011 116.727 63.1011 116.98C63.1011 117.1 63.0478 117.213 62.9411 117.32C62.8344 117.413 62.7144 117.46 62.5811 117.46C62.5411 117.46 62.4211 117.433 62.2211 117.38ZM72.272 124C72.1387 124 72.0187 123.953 71.912 123.86C71.8187 123.753 71.772 123.633 71.772 123.5V119.5C71.772 118.673 71.612 118.08 71.292 117.72C70.9854 117.347 70.5654 117.16 70.032 117.16C69.472 117.16 68.9387 117.313 68.432 117.62C67.9254 117.913 67.4587 118.273 67.032 118.7V123.5C67.032 123.633 66.9854 123.753 66.892 123.86C66.7987 123.953 66.6787 124 66.532 124C66.3987 124 66.2787 123.953 66.172 123.86C66.0787 123.753 66.032 123.633 66.032 123.5V113.28C66.032 113.133 66.0787 113.013 66.172 112.92C66.2787 112.827 66.3987 112.78 66.532 112.78C66.6787 112.78 66.7987 112.827 66.892 112.92C66.9854 113.013 67.032 113.133 67.032 113.28V117.38C67.4854 117.033 67.9587 116.747 68.452 116.52C68.9454 116.28 69.472 116.16 70.032 116.16C70.5387 116.16 70.9987 116.26 71.412 116.46C71.8254 116.66 72.152 117.007 72.392 117.5C72.6454 117.98 72.772 118.647 72.772 119.5V123.5C72.772 123.633 72.7254 123.753 72.632 123.86C72.5387 123.953 72.4187 124 72.272 124Z" fill="#E7E7E7"/>
</svg>
