<svg width="105" height="108" viewBox="0 0 105 108" fill="none" xmlns="http://www.w3.org/2000/svg">
<path d="M76.9924 66C76.2185 66 75.5146 66.4342 75.124 67.1024C70.6141 74.8173 62.2433 80 52.6619 80C43.0806 80 34.7097 74.8173 30.1998 67.1024C29.8092 66.4342 29.1054 66 28.3314 66V66C26.8344 66 25.8394 67.5346 26.5807 68.8351C31.744 77.893 41.4898 84 52.6619 84C63.8341 84 73.5799 77.893 78.7431 68.8351C79.4845 67.5346 78.4894 66 76.9924 66V66Z" fill="#E8E8E8" fill-opacity="0.2"/>
<path d="M28.3314 42C29.1054 42 29.8092 41.5658 30.1998 40.8976C34.7097 33.1827 43.0806 28 52.6619 28C62.2433 28 70.6141 33.1827 75.124 40.8976C75.5146 41.5658 76.2185 42 76.9924 42V42C78.4894 42 79.4845 40.4654 78.7431 39.1649C73.5799 30.107 63.8341 24 52.6619 24C41.4898 24 31.744 30.107 26.5807 39.1649C25.8394 40.4654 26.8344 42 28.3314 42V42Z" fill="#E8E8E8" fill-opacity="0.2"/>
<path d="M102.795 66C101.866 66 101.06 66.6365 100.809 67.5312C94.9085 88.5714 75.587 104 52.6619 104C29.7368 104 10.4153 88.5714 4.51439 67.5312C4.26346 66.6365 3.45813 66 2.52891 66V66C1.23333 66 0.271773 67.2043 0.61774 68.4528C6.93716 91.2584 27.8444 108 52.6619 108C77.4794 108 98.3866 91.2584 104.706 68.4528C105.052 67.2043 104.09 66 102.795 66V66Z" fill="#E8E8E8" fill-opacity="0.2"/>
<path d="M2.52891 42C3.45813 42 4.26346 41.3635 4.51439 40.4688C10.4153 19.4286 29.7368 4 52.6619 4C75.587 4 94.9085 19.4286 100.809 40.4688C101.06 41.3635 101.866 42 102.795 42V42C104.09 42 105.052 40.7957 104.706 39.5472C98.3866 16.7416 77.4794 0 52.6619 0C27.8444 0 6.93716 16.7416 0.61774 39.5472C0.271773 40.7957 1.23333 42 2.52891 42V42Z" fill="#E8E8E8" fill-opacity="0.2"/>
</svg>
