<svg width="58" height="58" viewBox="0 0 58 58" fill="none" xmlns="http://www.w3.org/2000/svg">
<path d="M40.8045 34.6667C40.1027 34.6667 39.466 35.0635 39.1105 35.6686C36.7958 39.6087 33.7703 41.5 28.6619 41.5C23.5534 41.5 20.528 39.6087 18.2132 35.6686C17.8577 35.0635 17.2211 34.6667 16.5193 34.6667C15.1691 34.6667 14.275 36.0493 15.0004 37.188C17.9241 41.7776 22.8951 45 28.6619 45C34.4286 45 39.3996 41.7776 42.3234 37.188C43.0488 36.0493 42.1546 34.6667 40.8045 34.6667Z" fill="#E8E8E8"/>
<path d="M55.2052 34.6667C54.2993 34.6667 53.5166 35.2896 53.2601 36.1585C49.9363 47.4173 41.052 54.5 28.6619 54.5C16.2717 54.5 7.38746 47.4173 4.06366 36.1585C3.80716 35.2896 3.02449 34.6667 2.11856 34.6667C0.85906 34.6667 -0.0774642 35.8371 0.298573 37.0391C4.09979 49.1902 15.361 58 28.6619 58C41.9627 58 53.2239 49.1902 57.0252 37.0391C57.4012 35.8371 56.4647 34.6667 55.2052 34.6667Z" fill="#E8E8E8"/>
<path d="M16.5193 23.3333C17.2211 23.3333 17.8577 22.9365 18.2132 22.3314C20.528 18.3912 23.5534 16.5 28.6619 16.5C33.7703 16.5 36.7958 18.3912 39.1105 22.3314C39.466 22.9365 40.1027 23.3333 40.8045 23.3333C42.1546 23.3333 43.0488 21.9507 42.3234 20.812C39.3996 16.2224 34.4286 13 28.6619 13C22.8951 13 17.9241 16.2224 15.0004 20.812C14.275 21.9507 15.1691 23.3333 16.5193 23.3333Z" fill="#E8E8E8"/>
<path d="M2.11855 23.3333C3.02448 23.3333 3.80716 22.7104 4.06366 21.8415C7.38745 10.5827 16.2717 3.5 28.6619 3.5C41.052 3.5 49.9363 10.5827 53.2601 21.8415C53.5166 22.7104 54.2992 23.3333 55.2052 23.3333C56.4647 23.3333 57.4012 22.1629 57.0252 20.9609C53.2239 8.80976 41.9627 -1.1628e-06 28.6619 0C15.361 1.1628e-06 4.09979 8.80976 0.298571 20.9609C-0.0774649 22.1629 0.859058 23.3333 2.11855 23.3333Z" fill="#E8E8E8"/>
</svg>
