<svg width="90" height="90" viewBox="0 0 90 90" fill="none" xmlns="http://www.w3.org/2000/svg">
<path d="M32 3H58C63.65 3 67.7071 3.00251 70.8916 3.2627C73.844 3.50392 75.8137 3.95313 77.4043 4.69922L77.7178 4.85254C80.7166 6.3805 83.1897 8.76212 84.8301 11.6895L85.1475 12.2822C85.9859 13.9279 86.48 15.959 86.7373 19.1084C86.9975 22.2929 87 26.35 87 32V58C87 63.65 86.9975 67.7071 86.7373 70.8916C86.4961 73.844 86.0469 75.8137 85.3008 77.4043L85.1475 77.7178C83.6195 80.7166 81.2379 83.1897 78.3105 84.8301L77.7178 85.1475C76.0721 85.9859 74.041 86.48 70.8916 86.7373C67.7071 86.9975 63.65 87 58 87H32C26.35 87 22.2929 86.9975 19.1084 86.7373C16.156 86.4961 14.1863 86.0469 12.5957 85.3008L12.2822 85.1475C9.28343 83.6195 6.81031 81.2379 5.16992 78.3105L4.85254 77.7178C4.01407 76.0721 3.52001 74.041 3.2627 70.8916C3.00251 67.7071 3 63.65 3 58V32C3 26.35 3.00251 22.2929 3.2627 19.1084C3.52001 15.959 4.01407 13.9279 4.85254 12.2822C6.48239 9.08347 9.08347 6.48239 12.2822 4.85254C13.9279 4.01407 15.959 3.52001 19.1084 3.2627C22.2929 3.00251 26.35 3 32 3Z" stroke="url(#paint0_linear_437_3310)" stroke-width="6"/>
<defs>
<linearGradient id="paint0_linear_437_3310" x1="45" y1="0" x2="45" y2="90" gradientUnits="userSpaceOnUse">
<stop stop-color="#FF9F5A"/>
<stop offset="1" stop-color="#C44610"/>
</linearGradient>
</defs>
</svg>
