<svg width="190" height="190" viewBox="0 0 190 190" fill="none" xmlns="http://www.w3.org/2000/svg">
<path d="M32 3H158C163.65 3 167.707 3.00251 170.892 3.2627C173.844 3.50392 175.814 3.95313 177.404 4.69922L177.718 4.85254C180.717 6.3805 183.19 8.76212 184.83 11.6895L185.147 12.2822C185.986 13.9279 186.48 15.959 186.737 19.1084C186.997 22.2929 187 26.35 187 32V158C187 163.65 186.997 167.707 186.737 170.892C186.496 173.844 186.047 175.814 185.301 177.404L185.147 177.718C183.619 180.717 181.238 183.19 178.311 184.83L177.718 185.147C176.072 185.986 174.041 186.48 170.892 186.737C167.707 186.997 163.65 187 158 187H32C26.35 187 22.2929 186.997 19.1084 186.737C16.156 186.496 14.1863 186.047 12.5957 185.301L12.2822 185.147C9.28343 183.619 6.81031 181.238 5.16992 178.311L4.85254 177.718C4.01407 176.072 3.52001 174.041 3.2627 170.892C3.00251 167.707 3 163.65 3 158V32C3 26.35 3.00251 22.2929 3.2627 19.1084C3.52001 15.959 4.01407 13.9279 4.85254 12.2822C6.48239 9.08347 9.08347 6.48239 12.2822 4.85254C13.9279 4.01407 15.959 3.52001 19.1084 3.2627C22.2929 3.00251 26.35 3 32 3Z" stroke="url(#paint0_linear_437_3304)" stroke-width="6"/>
<defs>
<linearGradient id="paint0_linear_437_3304" x1="95" y1="0" x2="95" y2="190" gradientUnits="userSpaceOnUse">
<stop stop-color="#A051D5"/>
<stop offset="1" stop-color="#301485"/>
</linearGradient>
</defs>
</svg>
