<svg width="138" height="44" viewBox="0 0 138 44" fill="none" xmlns="http://www.w3.org/2000/svg">
<path fill-rule="evenodd" clip-rule="evenodd" d="M12 0C5.37259 0 2.87533e-06 5.37258 0 12V32C-2.93913e-06 38.6274 5.37258 44 12 44L126 44C132.627 44 138 38.6274 138 32V12C138 5.37261 132.627 2.1282e-05 126 2.01232e-05L12 0ZM51 5C46.5817 5 43 8.58172 43 13L43 31C43 35.4183 46.5817 39 51 39L125 39C129.418 39 133 35.4183 133 31L133 13C133 8.58174 129.418 5.00001 125 5.00001L51 5Z" fill="#202020"/>
<path d="M31.4268 12.5733C33.9264 15.0737 35.3306 18.4645 35.3306 22C35.3306 25.5355 33.9264 28.9263 31.4268 31.4267M26.7201 17.28C27.9699 18.5302 28.6721 20.2256 28.6721 21.9933C28.6721 23.7611 27.9699 25.4565 26.7201 26.7067M20.6668 12.6667L14.0001 18H8.66681V26H14.0001L20.6668 31.3333V12.6667Z" stroke="#E8E8E8" stroke-width="3" stroke-linecap="round" stroke-linejoin="round"/>
</svg>
