<svg width="174" height="44" viewBox="0 0 174 44" fill="none" xmlns="http://www.w3.org/2000/svg">
<rect x="7.62939e-06" width="174" height="44" rx="12" fill="#202020"/>
<path d="M92.44 17.12C93.3867 17.12 94.2467 17.3533 95.02 17.82C95.8067 18.2867 96.4267 18.94 96.88 19.78C97.3467 20.6067 97.58 21.5667 97.58 22.66C97.58 23.7 97.3733 24.64 96.96 25.48C96.56 26.3067 95.9733 26.9667 95.2 27.46C94.44 27.94 93.52 28.18 92.44 28.18C91.4267 28.18 90.5267 27.94 89.74 27.46C88.9533 26.9667 88.3333 26.3067 87.88 25.48C87.44 24.6533 87.22 23.7333 87.22 22.72C87.22 21.6 87.44 20.62 87.88 19.78C88.32 18.94 88.9267 18.2867 89.7 17.82C90.4867 17.3533 91.4 17.12 92.44 17.12ZM92.44 18.12C91.6 18.12 90.86 18.32 90.22 18.72C89.5933 19.1067 89.1 19.6467 88.74 20.34C88.3933 21.02 88.22 21.8133 88.22 22.72C88.22 23.5333 88.3933 24.28 88.74 24.96C89.1 25.64 89.6 26.18 90.24 26.58C90.88 26.98 91.6133 27.18 92.44 27.18C93.32 27.18 94.0667 26.98 94.68 26.58C95.3067 26.18 95.78 25.64 96.1 24.96C96.42 24.2667 96.58 23.5 96.58 22.66C96.58 21.78 96.3933 21 96.02 20.32C95.66 19.64 95.1667 19.1067 94.54 18.72C93.9133 18.32 93.2133 18.12 92.44 18.12ZM106.928 28C106.795 28 106.675 27.9533 106.568 27.86C106.475 27.7533 106.428 27.6333 106.428 27.5V23.5C106.428 22.6733 106.268 22.08 105.948 21.72C105.642 21.3467 105.222 21.16 104.688 21.16C104.128 21.16 103.595 21.3133 103.088 21.62C102.582 21.9133 102.115 22.2733 101.688 22.7V27.5C101.688 27.6333 101.642 27.7533 101.548 27.86C101.455 27.9533 101.335 28 101.188 28C101.055 28 100.935 27.9533 100.828 27.86C100.735 27.7533 100.688 27.6333 100.688 27.5V20.66C100.688 20.5133 100.735 20.3933 100.828 20.3C100.935 20.2067 101.055 20.16 101.188 20.16C101.335 20.16 101.455 20.2067 101.548 20.3C101.642 20.3933 101.688 20.5133 101.688 20.66V21.38C102.142 21.02 102.615 20.7267 103.108 20.5C103.602 20.2733 104.128 20.16 104.688 20.16C105.195 20.16 105.655 20.26 106.068 20.46C106.482 20.66 106.808 21.0067 107.048 21.5C107.302 21.98 107.428 22.6467 107.428 23.5V27.5C107.428 27.6333 107.382 27.7533 107.288 27.86C107.195 27.9533 107.075 28 106.928 28ZM114.17 28C112.89 28 111.856 27.6667 111.07 27C110.296 26.3333 109.91 25.3933 109.91 24.18C109.91 23.3667 110.083 22.66 110.43 22.06C110.776 21.46 111.236 20.9933 111.81 20.66C112.396 20.3267 113.043 20.16 113.75 20.16C114.456 20.16 115.05 20.3 115.53 20.58C116.01 20.86 116.37 21.2067 116.61 21.62C116.863 22.0333 116.99 22.44 116.99 22.84C116.99 23.32 116.836 23.7333 116.53 24.08C116.236 24.4267 115.676 24.6 114.85 24.6H110.93C111.036 25.4 111.383 26 111.97 26.4C112.57 26.8 113.303 27 114.17 27C114.503 27 114.803 26.9733 115.07 26.92C115.35 26.8667 115.563 26.8133 115.71 26.76C115.856 26.7067 115.95 26.6733 115.99 26.66C116.043 26.6467 116.083 26.64 116.11 26.64C116.243 26.64 116.356 26.6933 116.45 26.8C116.556 26.8933 116.61 27.0067 116.61 27.14C116.61 27.3667 116.503 27.52 116.29 27.6C116.01 27.7067 115.683 27.8 115.31 27.88C114.936 27.96 114.556 28 114.17 28ZM113.75 21.16C113.043 21.16 112.43 21.3867 111.91 21.84C111.39 22.28 111.07 22.8667 110.95 23.6H114.87C115.63 23.6 116.01 23.3467 116.01 22.84C116.01 22.4267 115.803 22.0467 115.39 21.7C114.976 21.34 114.43 21.16 113.75 21.16ZM124.349 23.1C124.496 23.1 124.616 23.1467 124.709 23.24C124.802 23.3333 124.849 23.4533 124.849 23.6C124.849 23.7333 124.802 23.8533 124.709 23.96C124.616 24.0533 124.496 24.1 124.349 24.1H120.309C120.176 24.1 120.056 24.0533 119.949 23.96C119.856 23.8533 119.809 23.7333 119.809 23.6C119.809 23.4533 119.856 23.3333 119.949 23.24C120.056 23.1467 120.176 23.1 120.309 23.1H124.349ZM132.827 21.32C132.694 21.28 132.461 21.2333 132.127 21.18C131.807 21.1267 131.454 21.1 131.067 21.1C130.414 21.1 129.907 21.2133 129.547 21.44C129.187 21.6667 129.007 21.9467 129.007 22.28C129.007 22.5733 129.154 22.8133 129.447 23C129.754 23.1733 130.254 23.2933 130.947 23.36L131.747 23.44C132.427 23.5067 132.961 23.66 133.347 23.9C133.734 24.14 134.007 24.4267 134.167 24.76C134.327 25.08 134.407 25.42 134.407 25.78C134.407 26.14 134.314 26.5 134.127 26.86C133.941 27.2067 133.614 27.5 133.147 27.74C132.694 27.9667 132.041 28.08 131.187 28.08C130.694 28.08 130.187 28.0333 129.667 27.94C129.147 27.8333 128.654 27.68 128.187 27.48C127.987 27.3867 127.887 27.2267 127.887 27C127.887 26.88 127.941 26.7733 128.047 26.68C128.154 26.5733 128.274 26.52 128.407 26.52C128.434 26.52 128.481 26.5333 128.547 26.56C128.614 26.5867 128.734 26.6333 128.907 26.7C129.161 26.7933 129.494 26.88 129.907 26.96C130.321 27.04 130.747 27.08 131.187 27.08C131.907 27.08 132.454 26.96 132.827 26.72C133.214 26.4667 133.407 26.1533 133.407 25.78C133.407 25.4333 133.274 25.14 133.007 24.9C132.741 24.6467 132.294 24.4933 131.667 24.44L130.867 24.36C130.081 24.28 129.481 24.1333 129.067 23.92C128.654 23.6933 128.374 23.4333 128.227 23.14C128.081 22.8467 128.007 22.5533 128.007 22.26C128.007 21.9267 128.094 21.6 128.267 21.28C128.454 20.9467 128.767 20.6667 129.207 20.44C129.661 20.2133 130.281 20.1 131.067 20.1C131.521 20.1 131.941 20.1333 132.327 20.2C132.727 20.2533 133.081 20.3267 133.387 20.42C133.494 20.4333 133.581 20.4933 133.647 20.6C133.714 20.6933 133.747 20.7933 133.747 20.9C133.747 21.0467 133.694 21.1667 133.587 21.26C133.494 21.3533 133.381 21.4 133.247 21.4C133.167 21.4 133.027 21.3733 132.827 21.32ZM143.471 28C143.338 28 143.218 27.9533 143.111 27.86C143.018 27.7533 142.971 27.6333 142.971 27.5V23.5C142.971 22.6733 142.811 22.08 142.491 21.72C142.185 21.3467 141.765 21.16 141.231 21.16C140.671 21.16 140.138 21.3133 139.631 21.62C139.125 21.9133 138.658 22.2733 138.231 22.7V27.5C138.231 27.6333 138.185 27.7533 138.091 27.86C137.998 27.9533 137.878 28 137.731 28C137.598 28 137.478 27.9533 137.371 27.86C137.278 27.7533 137.231 27.6333 137.231 27.5V17.28C137.231 17.1333 137.278 17.0133 137.371 16.92C137.478 16.8267 137.598 16.78 137.731 16.78C137.878 16.78 137.998 16.8267 138.091 16.92C138.185 17.0133 138.231 17.1333 138.231 17.28V21.38C138.685 21.0333 139.158 20.7467 139.651 20.52C140.145 20.28 140.671 20.16 141.231 20.16C141.738 20.16 142.198 20.26 142.611 20.46C143.025 20.66 143.351 21.0067 143.591 21.5C143.845 21.98 143.971 22.6467 143.971 23.5V27.5C143.971 27.6333 143.925 27.7533 143.831 27.86C143.738 27.9533 143.618 28 143.471 28ZM150.413 20.08C151.226 20.08 151.926 20.2667 152.513 20.64C153.113 21 153.573 21.4933 153.893 22.12C154.226 22.7333 154.393 23.42 154.393 24.18C154.393 24.9133 154.226 25.5733 153.893 26.16C153.573 26.7467 153.113 27.2133 152.513 27.56C151.926 27.9067 151.226 28.08 150.413 28.08C149.613 28.08 148.913 27.9067 148.313 27.56C147.713 27.2133 147.246 26.74 146.913 26.14C146.593 25.54 146.433 24.8733 146.433 24.14C146.433 23.3933 146.593 22.7133 146.913 22.1C147.233 21.4867 147.693 21 148.293 20.64C148.893 20.2667 149.599 20.08 150.413 20.08ZM150.413 21.08C149.799 21.08 149.266 21.22 148.813 21.5C148.373 21.78 148.033 22.1533 147.793 22.62C147.553 23.0733 147.433 23.58 147.433 24.14C147.433 24.9667 147.699 25.6667 148.233 26.24C148.779 26.8 149.506 27.08 150.413 27.08C151.319 27.08 152.039 26.8 152.573 26.24C153.119 25.68 153.393 24.9933 153.393 24.18C153.393 23.6067 153.273 23.0867 153.033 22.62C152.793 22.1533 152.446 21.78 151.993 21.5C151.553 21.22 151.026 21.08 150.413 21.08ZM161.15 28C159.924 28 159.05 27.7467 158.53 27.24C158.01 26.72 157.75 26.0267 157.75 25.16V21.16H156.49C156.357 21.16 156.237 21.1133 156.13 21.02C156.037 20.9133 155.99 20.7933 155.99 20.66C155.99 20.5133 156.037 20.3933 156.13 20.3C156.237 20.2067 156.357 20.16 156.49 20.16H157.75V18.14C157.75 17.9933 157.797 17.8733 157.89 17.78C157.997 17.6867 158.117 17.64 158.25 17.64C158.397 17.64 158.517 17.6867 158.61 17.78C158.704 17.8733 158.75 17.9933 158.75 18.14V20.16H161.41C161.557 20.16 161.677 20.2067 161.77 20.3C161.864 20.3933 161.91 20.5133 161.91 20.66C161.91 20.7933 161.864 20.9133 161.77 21.02C161.677 21.1133 161.557 21.16 161.41 21.16H158.75V25.16C158.75 26.3867 159.55 27 161.15 27C161.297 27 161.417 27.0533 161.51 27.16C161.604 27.2533 161.65 27.3667 161.65 27.5C161.65 27.6333 161.597 27.7533 161.49 27.86C161.397 27.9533 161.284 28 161.15 28Z" fill="#E8E8E8"/>
<path d="M4.00001 16C4.00001 9.37258 9.37259 4 16 4L40 4.00001L40 40L16 40C9.37258 40 4 34.6274 4 28L4.00001 16Z" fill="#2B2B2B"/>
<g clip-path="url(#clip0_83_2065)">
<path d="M21 32C26.5229 32 31 27.5228 31 22C31 16.4772 26.5229 12 21 12C15.4772 12 11 16.4772 11 22C11 27.5228 15.4772 32 21 32Z" stroke="#FF9F5A" stroke-width="2.5" stroke-linecap="round" stroke-linejoin="round"/>
<path d="M21 25C22.6569 25 24 23.6569 24 22C24 20.3431 22.6569 19 21 19C19.3432 19 18 20.3431 18 22C18 23.6569 19.3432 25 21 25Z" stroke="#FF9F5A" stroke-width="2.5" stroke-linecap="round" stroke-linejoin="round"/>
</g>
<g clip-path="url(#clip1_83_2065)">
<path d="M66 11L70 15M70 15L66 19M70 15H56C54.9391 15 53.9217 15.4214 53.1716 16.1716C52.4214 16.9217 52 17.9391 52 19V21M56 33L52 29M52 29L56 25M52 29H66C67.0609 29 68.0783 28.5786 68.8284 27.8284C69.5786 27.0783 70 26.0609 70 25V23" stroke="#3B3B3B" stroke-width="2.5" stroke-linecap="round" stroke-linejoin="round"/>
</g>
<defs>
<clipPath id="clip0_83_2065">
<rect width="24" height="24" fill="white" transform="translate(9.00001 10)"/>
</clipPath>
<clipPath id="clip1_83_2065">
<rect width="24" height="24" fill="white" transform="translate(49 10)"/>
</clipPath>
</defs>
</svg>
