<svg width="90" height="44" viewBox="0 0 90 44" fill="none" xmlns="http://www.w3.org/2000/svg">
<rect width="90" height="44" rx="12" fill="#202020"/>
<mask id="path-2-inside-1_536_1242" fill="white">
<path d="M0 12C0 5.37258 5.37258 0 12 0H45V44H12C5.37258 44 0 38.6274 0 32V12Z"/>
</mask>
<path d="M0 12C0 5.37258 5.37258 0 12 0H45V44H12C5.37258 44 0 38.6274 0 32V12Z" fill="#2D2D2D"/>
<path d="M-4 12C-4 3.16344 3.16344 -4 12 -4H47L43 4H12C7.58172 4 4 7.58172 4 12H-4ZM47 48H12C3.16344 48 -4 40.8366 -4 32H4C4 36.4183 7.58172 40 12 40H43L47 48ZM12 48C3.16344 48 -4 40.8366 -4 32V12C-4 3.16344 3.16344 -4 12 -4V4C7.58172 4 4 7.58172 4 12V32C4 36.4183 7.58172 40 12 40V48ZM47 -4V48L43 40V4L47 -4Z" fill="#202020" mask="url(#path-2-inside-1_536_1242)"/>
<g clip-path="url(#clip0_536_1242)">
<path d="M67 14H60C59.4696 14 58.9609 14.2107 58.5858 14.5858C58.2107 14.9609 58 15.4696 58 16V30C58 30.5304 58.2107 31.0391 58.5858 31.4142C58.9609 31.7893 59.4696 32 60 32H74C74.5304 32 75.0391 31.7893 75.4142 31.4142C75.7893 31.0391 76 30.5304 76 30V23M74.5 12.5C74.8978 12.1022 75.4374 11.8787 76 11.8787C76.5626 11.8787 77.1022 12.1022 77.5 12.5C77.8978 12.8978 78.1213 13.4374 78.1213 14C78.1213 14.5626 77.8978 15.1022 77.5 15.5L68 25L64 26L65 22L74.5 12.5Z" stroke="#616161" stroke-width="2.5" stroke-linecap="round" stroke-linejoin="round"/>
</g>
<path d="M18 13L32 22L18 31V13Z" stroke="#E7E7E7" stroke-width="2.5" stroke-linecap="round" stroke-linejoin="round"/>
<defs>
<clipPath id="clip0_536_1242">
<rect width="24" height="24" fill="white" transform="translate(56 10)"/>
</clipPath>
</defs>
</svg>
