<svg width="174" height="44" viewBox="0 0 174 44" fill="none" xmlns="http://www.w3.org/2000/svg">
<rect width="133" height="44" rx="12" fill="#202020"/>
<path d="M88.46 28C88.3267 28 88.2067 27.9533 88.1 27.86C88.0067 27.7533 87.96 27.6333 87.96 27.5V17.8C87.96 17.6533 88.0067 17.5333 88.1 17.44C88.2067 17.3467 88.3267 17.3 88.46 17.3C88.6067 17.3 88.7267 17.3467 88.82 17.44C88.9133 17.5333 88.96 17.6533 88.96 17.8V27H93.88C94.0267 27 94.1467 27.0467 94.24 27.14C94.3333 27.2333 94.38 27.3533 94.38 27.5C94.38 27.6333 94.3333 27.7533 94.24 27.86C94.1467 27.9533 94.0267 28 93.88 28H88.46ZM100.022 20.08C100.835 20.08 101.535 20.2667 102.122 20.64C102.722 21 103.182 21.4933 103.502 22.12C103.835 22.7333 104.002 23.42 104.002 24.18C104.002 24.9133 103.835 25.5733 103.502 26.16C103.182 26.7467 102.722 27.2133 102.122 27.56C101.535 27.9067 100.835 28.08 100.022 28.08C99.222 28.08 98.522 27.9067 97.922 27.56C97.322 27.2133 96.8554 26.74 96.522 26.14C96.202 25.54 96.042 24.8733 96.042 24.14C96.042 23.3933 96.202 22.7133 96.522 22.1C96.842 21.4867 97.302 21 97.902 20.64C98.502 20.2667 99.2087 20.08 100.022 20.08ZM100.022 21.08C99.4087 21.08 98.8754 21.22 98.422 21.5C97.982 21.78 97.642 22.1533 97.402 22.62C97.162 23.0733 97.042 23.58 97.042 24.14C97.042 24.9667 97.3087 25.6667 97.842 26.24C98.3887 26.8 99.1154 27.08 100.022 27.08C100.929 27.08 101.649 26.8 102.182 26.24C102.729 25.68 103.002 24.9933 103.002 24.18C103.002 23.6067 102.882 23.0867 102.642 22.62C102.402 22.1533 102.055 21.78 101.602 21.5C101.162 21.22 100.635 21.08 100.022 21.08ZM110.022 20.08C110.835 20.08 111.535 20.2667 112.122 20.64C112.722 21 113.182 21.4933 113.502 22.12C113.835 22.7333 114.002 23.42 114.002 24.18C114.002 24.9133 113.835 25.5733 113.502 26.16C113.182 26.7467 112.722 27.2133 112.122 27.56C111.535 27.9067 110.835 28.08 110.022 28.08C109.222 28.08 108.522 27.9067 107.922 27.56C107.322 27.2133 106.855 26.74 106.522 26.14C106.202 25.54 106.042 24.8733 106.042 24.14C106.042 23.3933 106.202 22.7133 106.522 22.1C106.842 21.4867 107.302 21 107.902 20.64C108.502 20.2667 109.209 20.08 110.022 20.08ZM110.022 21.08C109.409 21.08 108.875 21.22 108.422 21.5C107.982 21.78 107.642 22.1533 107.402 22.62C107.162 23.0733 107.042 23.58 107.042 24.14C107.042 24.9667 107.309 25.6667 107.842 26.24C108.389 26.8 109.115 27.08 110.022 27.08C110.929 27.08 111.649 26.8 112.182 26.24C112.729 25.68 113.002 24.9933 113.002 24.18C113.002 23.6067 112.882 23.0867 112.642 22.62C112.402 22.1533 112.055 21.78 111.602 21.5C111.162 21.22 110.635 21.08 110.022 21.08ZM117.684 31.32C117.684 31.4533 117.638 31.5667 117.544 31.66C117.451 31.7667 117.331 31.82 117.184 31.82C117.051 31.82 116.931 31.7667 116.824 31.66C116.731 31.5667 116.684 31.4533 116.684 31.32V20.66C116.684 20.5133 116.731 20.3933 116.824 20.3C116.931 20.2067 117.051 20.16 117.184 20.16C117.331 20.16 117.451 20.2067 117.544 20.3C117.638 20.3933 117.684 20.5133 117.684 20.66V21.46C118.111 21.0467 118.558 20.7267 119.024 20.5C119.504 20.2733 120.004 20.16 120.524 20.16C121.151 20.16 121.731 20.3067 122.264 20.6C122.811 20.8933 123.251 21.3333 123.584 21.92C123.918 22.4933 124.084 23.2133 124.084 24.08C124.084 24.8267 123.924 25.5 123.604 26.1C123.284 26.6867 122.838 27.1533 122.264 27.5C121.691 27.8333 121.031 28 120.284 28C119.844 28 119.404 27.9267 118.964 27.78C118.524 27.6333 118.098 27.4333 117.684 27.18V31.32ZM120.284 27C121.124 27 121.798 26.72 122.304 26.16C122.824 25.5867 123.084 24.8933 123.084 24.08C123.084 23.1467 122.831 22.4267 122.324 21.92C121.818 21.4133 121.218 21.16 120.524 21.16C119.964 21.16 119.444 21.3267 118.964 21.66C118.498 21.98 118.071 22.4067 117.684 22.94V25.98C118.071 26.2733 118.484 26.52 118.924 26.72C119.378 26.9067 119.831 27 120.284 27Z" fill="#E8E8E8"/>
<path d="M80 28C80 34.6274 74.6274 40 68 40L44 40L44 4L68 4C74.6274 4 80 9.37259 80 16L80 28Z" fill="#2B2B2B"/>
<g clip-path="url(#clip0_83_2059)">
<path d="M21 32C26.5228 32 31 27.5228 31 22C31 16.4772 26.5228 12 21 12C15.4772 12 11 16.4772 11 22C11 27.5228 15.4772 32 21 32Z" stroke="#3B3B3B" stroke-width="2.5" stroke-linecap="round" stroke-linejoin="round"/>
<path d="M21 25C22.6569 25 24 23.6569 24 22C24 20.3431 22.6569 19 21 19C19.3431 19 18 20.3431 18 22C18 23.6569 19.3431 25 21 25Z" stroke="#3B3B3B" stroke-width="2.5" stroke-linecap="round" stroke-linejoin="round"/>
</g>
<g clip-path="url(#clip1_83_2059)">
<path d="M66 11L70 15M70 15L66 19M70 15H56C54.9391 15 53.9217 15.4214 53.1716 16.1716C52.4214 16.9217 52 17.9391 52 19V21M56 33L52 29M52 29L56 25M52 29H66C67.0609 29 68.0783 28.5786 68.8284 27.8284C69.5786 27.0783 70 26.0609 70 25V23" stroke="#63BEFF" stroke-width="2.5" stroke-linecap="round" stroke-linejoin="round"/>
</g>
<defs>
<clipPath id="clip0_83_2059">
<rect width="24" height="24" fill="white" transform="translate(9 10)"/>
</clipPath>
<clipPath id="clip1_83_2059">
<rect width="24" height="24" fill="white" transform="translate(49 10)"/>
</clipPath>
</defs>
</svg>
