<svg width="156" height="44" viewBox="0 0 156 44" fill="none" xmlns="http://www.w3.org/2000/svg">
<rect x="2" y="2" width="152" height="40" rx="10" fill="#202020" stroke="#2B2B2B" stroke-width="4"/>
<path d="M21.2216 28C20.9496 28 20.7656 27.872 20.6696 27.616C20.5096 27.184 20.3176 26.704 20.0936 26.176C19.8696 25.648 19.6296 25.096 19.3736 24.52H12.6056C12.3816 25.096 12.1656 25.648 11.9576 26.176C11.7656 26.688 11.5896 27.16 11.4296 27.592C11.3816 27.72 11.3016 27.824 11.1896 27.904C11.0776 27.968 10.9576 28 10.8296 28C10.6856 28 10.5496 27.944 10.4216 27.832C10.3096 27.704 10.2536 27.552 10.2536 27.376C10.2536 27.328 10.2616 27.264 10.2776 27.184C10.3096 27.088 10.3816 26.904 10.4936 26.632C10.7656 25.912 11.0856 25.088 11.4536 24.16C11.8376 23.232 12.2456 22.264 12.6776 21.256C13.1096 20.248 13.5496 19.232 13.9976 18.208C14.4456 17.184 14.8776 16.216 15.2936 15.304C15.4056 15.064 15.5976 14.944 15.8696 14.944H15.9656C16.2536 14.944 16.4456 15.056 16.5416 15.28C16.9736 16.208 17.4296 17.208 17.9096 18.28C18.4056 19.352 18.8856 20.416 19.3496 21.472C19.8136 22.512 20.2376 23.488 20.6216 24.4C21.0056 25.296 21.3176 26.04 21.5576 26.632C21.6856 26.92 21.7576 27.112 21.7736 27.208C21.8056 27.304 21.8216 27.368 21.8216 27.4C21.8216 27.56 21.7576 27.704 21.6296 27.832C21.5176 27.944 21.3816 28 21.2216 28ZM18.8696 23.32C18.4056 22.248 17.9176 21.152 17.4056 20.032C16.8936 18.912 16.3976 17.848 15.9176 16.84C15.4696 17.864 14.9976 18.936 14.5016 20.056C14.0216 21.16 13.5576 22.248 13.1096 23.32H18.8696ZM32.6206 28C32.4606 28 32.3166 27.944 32.1886 27.832C32.0766 27.704 32.0206 27.56 32.0206 27.4V26.392C31.5566 26.888 31.0286 27.28 30.4366 27.568C29.8606 27.856 29.2206 28 28.5166 28C27.7326 28 27.0206 27.816 26.3806 27.448C25.7566 27.08 25.2526 26.56 24.8686 25.888C24.5006 25.2 24.3166 24.4 24.3166 23.488C24.3166 22.528 24.5166 21.68 24.9166 20.944C25.3326 20.208 25.8926 19.632 26.5966 19.216C27.3166 18.8 28.1246 18.592 29.0206 18.592C29.5966 18.592 30.1246 18.672 30.6046 18.832C31.1006 18.976 31.5726 19.184 32.0206 19.456V15.136C32.0206 14.96 32.0766 14.816 32.1886 14.704C32.3166 14.592 32.4606 14.536 32.6206 14.536C32.7966 14.536 32.9406 14.592 33.0526 14.704C33.1646 14.816 33.2206 14.96 33.2206 15.136V27.4C33.2206 27.56 33.1646 27.704 33.0526 27.832C32.9406 27.944 32.7966 28 32.6206 28ZM28.5166 26.8C29.3166 26.8 29.9966 26.592 30.5566 26.176C31.1326 25.76 31.6206 25.224 32.0206 24.568V20.896C31.5726 20.544 31.1086 20.272 30.6286 20.08C30.1646 19.888 29.6286 19.792 29.0206 19.792C28.3486 19.792 27.7486 19.952 27.2206 20.272C26.6926 20.592 26.2766 21.032 25.9726 21.592C25.6686 22.136 25.5166 22.768 25.5166 23.488C25.5166 24.464 25.7966 25.264 26.3566 25.888C26.9326 26.496 27.6526 26.8 28.5166 26.8ZM44.7378 28C44.5778 28 44.4338 27.944 44.3058 27.832C44.1938 27.704 44.1378 27.56 44.1378 27.4V26.392C43.6738 26.888 43.1458 27.28 42.5538 27.568C41.9778 27.856 41.3378 28 40.6338 28C39.8498 28 39.1378 27.816 38.4978 27.448C37.8738 27.08 37.3698 26.56 36.9858 25.888C36.6178 25.2 36.4338 24.4 36.4338 23.488C36.4338 22.528 36.6338 21.68 37.0338 20.944C37.4498 20.208 38.0098 19.632 38.7138 19.216C39.4338 18.8 40.2418 18.592 41.1378 18.592C41.7138 18.592 42.2418 18.672 42.7218 18.832C43.2178 18.976 43.6898 19.184 44.1378 19.456V15.136C44.1378 14.96 44.1938 14.816 44.3058 14.704C44.4338 14.592 44.5778 14.536 44.7378 14.536C44.9138 14.536 45.0578 14.592 45.1698 14.704C45.2818 14.816 45.3378 14.96 45.3378 15.136V27.4C45.3378 27.56 45.2818 27.704 45.1698 27.832C45.0578 27.944 44.9138 28 44.7378 28ZM40.6338 26.8C41.4338 26.8 42.1138 26.592 42.6738 26.176C43.2498 25.76 43.7378 25.224 44.1378 24.568V20.896C43.6898 20.544 43.2258 20.272 42.7458 20.08C42.2818 19.888 41.7458 19.792 41.1378 19.792C40.4658 19.792 39.8658 19.952 39.3378 20.272C38.8098 20.592 38.3938 21.032 38.0898 21.592C37.7858 22.136 37.6338 22.768 37.6338 23.488C37.6338 24.464 37.9138 25.264 38.4738 25.888C39.0498 26.496 39.7698 26.8 40.6338 26.8ZM57.2411 28C57.0811 28 56.9371 27.944 56.8091 27.832C56.6971 27.704 56.6411 27.56 56.6411 27.4V15.76C56.6411 15.584 56.6971 15.44 56.8091 15.328C56.9371 15.216 57.0811 15.16 57.2411 15.16C57.4171 15.16 57.5611 15.216 57.6731 15.328C57.7851 15.44 57.8411 15.584 57.8411 15.76V26.8H63.7451C63.9211 26.8 64.0651 26.856 64.1771 26.968C64.2891 27.08 64.3451 27.224 64.3451 27.4C64.3451 27.56 64.2891 27.704 64.1771 27.832C64.0651 27.944 63.9211 28 63.7451 28H57.2411ZM74.0195 27.784C73.6675 27.416 73.3955 26.952 73.2035 26.392C72.6595 26.904 72.0595 27.304 71.4035 27.592C70.7635 27.864 70.0675 28 69.3155 28C68.5795 28 67.9955 27.864 67.5635 27.592C67.1315 27.32 66.8275 26.984 66.6515 26.584C66.4755 26.184 66.3875 25.808 66.3875 25.456C66.3875 25.072 66.4515 24.704 66.5795 24.352C66.7235 23.984 66.9395 23.664 67.2275 23.392C67.6275 23.024 68.1635 22.712 68.8355 22.456C69.5075 22.2 70.3315 22.072 71.3075 22.072C71.8195 22.072 72.3635 22.096 72.9395 22.144C72.8755 21.424 72.6355 20.856 72.2195 20.44C71.8035 20.008 71.1795 19.792 70.3475 19.792C70.0275 19.792 69.6995 19.824 69.3635 19.888C69.0275 19.936 68.7715 19.992 68.5955 20.056C68.3875 20.136 68.2355 20.176 68.1395 20.176C67.9795 20.176 67.8355 20.12 67.7075 20.008C67.5795 19.88 67.5155 19.744 67.5155 19.6C67.5155 19.296 67.6515 19.096 67.9235 19C68.1955 18.92 68.5555 18.832 69.0035 18.736C69.4675 18.64 69.9155 18.592 70.3475 18.592C71.6595 18.592 72.6195 18.952 73.2275 19.672C73.8515 20.392 74.1635 21.328 74.1635 22.48V24.664C74.1635 25.208 74.2195 25.664 74.3315 26.032C74.4595 26.384 74.6435 26.696 74.8835 26.968C74.9955 27.08 75.0515 27.216 75.0515 27.376C75.0515 27.536 74.9875 27.68 74.8595 27.808C74.7475 27.92 74.6115 27.976 74.4515 27.976C74.2915 27.976 74.1475 27.912 74.0195 27.784ZM69.3155 26.8C70.0035 26.8 70.6595 26.648 71.2835 26.344C71.9075 26.024 72.4675 25.544 72.9635 24.904V23.344C72.3715 23.296 71.8195 23.272 71.3075 23.272C69.7875 23.272 68.7155 23.584 68.0915 24.208C67.8995 24.4 67.7635 24.6 67.6835 24.808C67.6195 25.016 67.5875 25.232 67.5875 25.456C67.5875 25.776 67.7235 26.08 67.9955 26.368C68.2835 26.656 68.7235 26.8 69.3155 26.8ZM77.5282 32.176C77.3842 32.176 77.2402 32.12 77.0962 32.008C76.9682 31.896 76.9042 31.76 76.9042 31.6C76.9042 31.36 77.0082 31.176 77.2162 31.048C77.8882 30.664 78.5362 30.2 79.1602 29.656C79.7842 29.128 80.3922 28.384 80.9842 27.424C80.3762 26.464 79.7282 25.352 79.0402 24.088C78.3682 22.824 77.7762 21.512 77.2642 20.152C77.1362 19.784 77.0482 19.544 77.0002 19.432C76.9682 19.304 76.9522 19.208 76.9522 19.144C76.9522 19.016 77.0082 18.888 77.1202 18.76C77.2322 18.632 77.3682 18.568 77.5282 18.568C77.6562 18.568 77.7762 18.608 77.8882 18.688C78.0002 18.752 78.0802 18.848 78.1282 18.976C78.6882 20.528 79.2802 21.904 79.9042 23.104C80.5282 24.304 81.1122 25.352 81.6562 26.248C82.0402 25.56 82.4162 24.808 82.7842 23.992C83.1682 23.176 83.5202 22.344 83.8402 21.496C84.1762 20.632 84.4562 19.808 84.6802 19.024C84.7602 18.736 84.9522 18.592 85.2562 18.592C85.4322 18.592 85.5762 18.656 85.6882 18.784C85.8002 18.896 85.8562 19.032 85.8562 19.192C85.8562 19.24 85.8242 19.36 85.7602 19.552C85.7122 19.744 85.6642 19.912 85.6162 20.056C85.3922 20.76 85.0962 21.568 84.7282 22.48C84.3602 23.376 83.9602 24.288 83.5282 25.216C83.1122 26.128 82.6882 26.952 82.2562 27.688C81.5522 28.888 80.8322 29.808 80.0962 30.448C79.3602 31.088 78.5922 31.64 77.7922 32.104C77.7282 32.152 77.6402 32.176 77.5282 32.176ZM92.8505 28C91.3145 28 90.0745 27.6 89.1305 26.8C88.2025 26 87.7385 24.872 87.7385 23.416C87.7385 22.44 87.9465 21.592 88.3625 20.872C88.7785 20.152 89.3305 19.592 90.0185 19.192C90.7225 18.792 91.4985 18.592 92.3465 18.592C93.1945 18.592 93.9065 18.76 94.4825 19.096C95.0585 19.432 95.4905 19.848 95.7785 20.344C96.0825 20.84 96.2345 21.328 96.2345 21.808C96.2345 22.384 96.0505 22.88 95.6825 23.296C95.3305 23.712 94.6585 23.92 93.6665 23.92H88.9625C89.0905 24.88 89.5065 25.6 90.2105 26.08C90.9305 26.56 91.8105 26.8 92.8505 26.8C93.2505 26.8 93.6105 26.768 93.9305 26.704C94.2665 26.64 94.5225 26.576 94.6985 26.512C94.8745 26.448 94.9865 26.408 95.0345 26.392C95.0985 26.376 95.1465 26.368 95.1785 26.368C95.3385 26.368 95.4745 26.432 95.5865 26.56C95.7145 26.672 95.7785 26.808 95.7785 26.968C95.7785 27.24 95.6505 27.424 95.3945 27.52C95.0585 27.648 94.6665 27.76 94.2185 27.856C93.7705 27.952 93.3145 28 92.8505 28ZM92.3465 19.792C91.4985 19.792 90.7625 20.064 90.1385 20.608C89.5145 21.136 89.1305 21.84 88.9865 22.72H93.6905C94.6025 22.72 95.0585 22.416 95.0585 21.808C95.0585 21.312 94.8105 20.856 94.3145 20.44C93.8185 20.008 93.1625 19.792 92.3465 19.792ZM100.242 28C100.082 28 99.9376 27.944 99.8096 27.832C99.6976 27.704 99.6416 27.56 99.6416 27.4V19.192C99.6416 19.016 99.6976 18.872 99.8096 18.76C99.9376 18.648 100.082 18.592 100.242 18.592C100.418 18.592 100.562 18.648 100.674 18.76C100.786 18.872 100.842 19.016 100.842 19.192V20.608C101.466 19.952 102.13 19.456 102.834 19.12C103.538 18.784 104.218 18.616 104.874 18.616C105.05 18.616 105.186 18.672 105.282 18.784C105.394 18.88 105.45 19.008 105.45 19.168C105.45 19.536 105.274 19.744 104.922 19.792C103.994 19.904 103.21 20.2 102.57 20.68C101.93 21.16 101.354 21.784 100.842 22.552V27.4C100.842 27.56 100.786 27.704 100.674 27.832C100.562 27.944 100.418 28 100.242 28Z" fill="#E8E8E8"/>
<path d="M133 14.4167V29.5833M125.417 22H140.583" stroke="#E8E8E8" stroke-width="2" stroke-linecap="round" stroke-linejoin="round"/>
</svg>
