<svg width="47" height="46" viewBox="0 0 47 46" fill="none" xmlns="http://www.w3.org/2000/svg">
<path d="M2 14C2 7.37258 7.37258 2 14 2H45V32C45 38.6274 39.6274 44 33 44H2V14Z" fill="#2A2A2A" stroke="#202020" stroke-width="4"/>
<path d="M25.7768 17.2083C25.5454 17.4345 25.4158 17.7387 25.4158 18.0555C25.4158 18.3722 25.5454 18.6764 25.7768 18.9026L27.7973 20.8389C28.0333 21.0607 28.3507 21.1849 28.6813 21.1849C29.0118 21.1849 29.3292 21.0607 29.5652 20.8389L34.3261 16.2765C34.9611 17.6212 35.1534 19.1195 34.8773 20.5717C34.6012 22.0238 33.8699 23.3608 32.7808 24.4046C31.6916 25.4483 30.2965 26.1491 28.7812 26.4137C27.2659 26.6783 25.7025 26.4941 24.2992 25.8855L15.5731 34.2481C15.0707 34.7295 14.3893 35 13.6789 35C12.9684 35 12.287 34.7295 11.7846 34.2481C11.2822 33.7666 11 33.1136 11 32.4328C11 31.7519 11.2822 31.0989 11.7846 30.6174L20.5108 22.2549C19.8758 20.9101 19.6835 19.4118 19.9596 17.9597C20.2357 16.5075 20.967 15.1705 22.0561 14.1268C23.1452 13.0831 24.5404 12.3822 26.0557 12.1176C27.5709 11.853 29.1344 12.0373 30.5376 12.6458L25.7768 17.2083Z" stroke="#E7E7E7" stroke-width="2.5" stroke-linecap="round" stroke-linejoin="round"/>
</svg>
