<svg width="32" height="32" viewBox="0 0 32 32" fill="none" xmlns="http://www.w3.org/2000/svg">
<path d="M25.3333 4H6.66667C5.19391 4 4 5.19391 4 6.66667V25.3333C4 26.8061 5.19391 28 6.66667 28H25.3333C26.8061 28 28 26.8061 28 25.3333V6.66667C28 5.19391 26.8061 4 25.3333 4Z" stroke="#E8E8E8" stroke-width="2" stroke-linecap="round" stroke-linejoin="round"/>
<path d="M11.3333 13.3333C12.4378 13.3333 13.3333 12.4379 13.3333 11.3333C13.3333 10.2287 12.4378 9.33331 11.3333 9.33331C10.2287 9.33331 9.33325 10.2287 9.33325 11.3333C9.33325 12.4379 10.2287 13.3333 11.3333 13.3333Z" stroke="#E8E8E8" stroke-width="2" stroke-linecap="round" stroke-linejoin="round"/>
<path d="M28.0001 20L21.3334 13.3333L6.66675 28" stroke="#E8E8E8" stroke-width="2" stroke-linecap="round" stroke-linejoin="round"/>
</svg>
