<svg width="32" height="32" viewBox="0 0 32 32" fill="none" xmlns="http://www.w3.org/2000/svg">
<path d="M19.6001 8.39999C19.3557 8.64923 19.2189 8.98432 19.2189 9.33333C19.2189 9.68233 19.3557 10.0174 19.6001 10.2667L21.7334 12.4C21.9826 12.6443 22.3177 12.7811 22.6667 12.7811C23.0157 12.7811 23.3508 12.6443 23.6001 12.4L28.6267 7.37333C29.2972 8.85491 29.5002 10.5056 29.2087 12.1055C28.9172 13.7054 28.145 15.1785 26.9951 16.3284C25.8452 17.4783 24.3721 18.2504 22.7722 18.5419C21.1724 18.8334 19.5216 18.6304 18.0401 17.96L8.82672 27.1733C8.29629 27.7038 7.57686 28.0018 6.82672 28.0018C6.07657 28.0018 5.35715 27.7038 4.82672 27.1733C4.29629 26.6429 3.99829 25.9235 3.99829 25.1733C3.99829 24.4232 4.29629 23.7038 4.82672 23.1733L14.0401 13.96C13.3696 12.4784 13.1666 10.8277 13.4581 9.2278C13.7496 7.62792 14.5218 6.15487 15.6717 5.00496C16.8216 3.85504 18.2946 3.08289 19.8945 2.79138C21.4944 2.49988 23.1451 2.70288 24.6267 3.37333L19.6134 8.38666L19.6001 8.39999Z" stroke="#E8E8E8" stroke-width="2" stroke-linecap="round" stroke-linejoin="round"/>
</svg>
